<?xml version="1.0" standalone="no"?>
<!DOCTYPE svg PUBLIC "-//W3C//DTD SVG 1.1//EN" "http://www.w3.org/Graphics/SVG/1.1/DTD/svg11.dtd" >
<svg xmlns="http://www.w3.org/2000/svg" xmlns:xlink="http://www.w3.org/1999/xlink" version="1.1">
<metadata>
Created by FontForge 20170731 at Thu Mar  4 13:41:18 2021
 By Aleksey,,,
Copyright 2019 The Lexend Project Authors (https://github.com/ThomasJockin/lexend)
</metadata>
<defs>
<font id="Lexend-Medium" horiz-adv-x="0" >
  <font-face 
    font-family="Lexend Medium"
    font-weight="500"
    font-stretch="normal"
    units-per-em="1000"
    panose-1="0 0 0 0 0 0 0 0 0 0"
    ascent="800"
    descent="-200"
    x-height="525"
    cap-height="700"
    bbox="-148 -244.077 1385 1080"
    underline-thickness="50"
    underline-position="-175"
    unicode-range="U+000D-FB02"
  />
<missing-glyph horiz-adv-x="584" 
d="M75 0q-35 0 -35 35v630q0 35 35 35h434q35 0 35 -35v-630q0 -35 -35 -35h-434zM508 65q2 -3 4 -2.5t2 4.5v598q0 5 -5 5h-414q-3 0 -4 -2t1 -4zM75 30h413q3 0 4 2t-1 4l-415 599q-2 3 -4 2.5t-2 -4.5v-598q0 -5 5 -5z" />
    <glyph glyph-name="fi" unicode="fi" horiz-adv-x="671" 
d="M129 0v421h-84v95h84v68q0 68 43.5 111.5t112.5 43.5q32 0 60 -12t45 -32l-35 -79q-13 12 -28.5 19.5t-29.5 7.5q-64 0 -64 -59v-68h124v-95h-124v-421h-104zM534 641q-33 0 -51 17t-18 48q0 29 18.5 47t50.5 18q33 0 51 -17t18 -48q0 -29 -18.5 -47t-50.5 -18zM484 0
v525h103v-525h-103z" />
    <glyph glyph-name="fl" unicode="fl" horiz-adv-x="644" 
d="M129 0v421h-84v95h84v68q0 68 43.5 111.5t112.5 43.5q32 0 60 -12t45 -32l-35 -79q-13 12 -28.5 19.5t-29.5 7.5q-64 0 -64 -59v-68h124v-95h-124v-421h-104zM467 0v740h103v-740h-103z" />
    <glyph glyph-name="f_f" unicode="ff" horiz-adv-x="786" 
d="M129 0v421h-84v95h84v68q0 68 43.5 111.5t112.5 43.5q32 0 60 -12t45 -32l-35 -79q-13 12 -28.5 19.5t-29.5 7.5q-64 0 -64 -59v-68h124v-95h-124v-421h-104zM522 0v421h-84v95h84v68q0 68 43.5 111.5t112.5 43.5q32 0 60 -12t45 -32l-35 -79q-13 12 -28.5 19.5
t-29.5 7.5q-64 0 -64 -59v-68h124v-95h-124v-421h-104z" />
    <glyph glyph-name="f_f_i" unicode="ffi" horiz-adv-x="1064" 
d="M129 0v421h-84v95h84v68q0 68 43.5 111.5t112.5 43.5q32 0 60 -12t45 -32l-35 -79q-13 12 -28.5 19.5t-29.5 7.5q-64 0 -64 -59v-68h124v-95h-124v-421h-104zM522 0v421h-84v95h84v68q0 68 43.5 111.5t112.5 43.5q32 0 60 -12t45 -32l-35 -79q-13 12 -28.5 19.5
t-29.5 7.5q-64 0 -64 -59v-68h124v-95h-124v-421h-104zM927 641q-33 0 -51 17t-18 48q0 29 18.5 47t50.5 18q33 0 51 -17t18 -48q0 -29 -18.5 -47t-50.5 -18zM877 0v525h103v-525h-103z" />
    <glyph glyph-name="f_f_l" unicode="ffl" horiz-adv-x="1037" 
d="M129 0v421h-84v95h84v68q0 68 43.5 111.5t112.5 43.5q32 0 60 -12t45 -32l-35 -79q-13 12 -28.5 19.5t-29.5 7.5q-64 0 -64 -59v-68h124v-95h-124v-421h-104zM522 0v421h-84v95h84v68q0 68 43.5 111.5t112.5 43.5q32 0 60 -12t45 -32l-35 -79q-13 12 -28.5 19.5
t-29.5 7.5q-64 0 -64 -59v-68h124v-95h-124v-421h-104zM860 0v740h103v-740h-103z" />
    <glyph glyph-name=".notdef" horiz-adv-x="584" 
d="M75 0q-35 0 -35 35v630q0 35 35 35h434q35 0 35 -35v-630q0 -35 -35 -35h-434zM508 65q2 -3 4 -2.5t2 4.5v598q0 5 -5 5h-414q-3 0 -4 -2t1 -4zM75 30h413q3 0 4 2t-1 4l-415 599q-2 3 -4 2.5t-2 -4.5v-598q0 -5 5 -5z" />
    <glyph glyph-name=".null" 
 />
    <glyph glyph-name="nonmarkingreturn" horiz-adv-x="333" 
 />
    <glyph glyph-name="CR" unicode="&#xd;" horiz-adv-x="277" 
 />
    <glyph glyph-name="space" unicode=" " horiz-adv-x="280" 
 />
    <glyph glyph-name="exclam" unicode="!" horiz-adv-x="236" 
d="M87 241q-11 94 -17.5 197.5t-6.5 191.5v70h108v-70q0 -62 -3 -130t-8.5 -134.5t-12.5 -124.5h-60zM114 -11q-33 0 -51 19.5t-18 55.5q0 33 19 54t50 21q33 0 51 -19.5t18 -55.5q0 -33 -19 -54t-50 -21z" />
    <glyph glyph-name="quotedbl" unicode="&#x22;" horiz-adv-x="412" 
d="M245 442l24 258h116l-80 -258h-60zM37 442l23 258h118l-81 -258h-60z" />
    <glyph glyph-name="numbersign" unicode="#" horiz-adv-x="678" 
d="M101 0l30 173h-100v83h114l34 197h-110v83h124l28 164h90l-28 -164h176l28 164h90l-28 -164h98v-83h-112l-34 -197h109v-83h-123l-30 -173h-90l30 173h-176l-30 -173h-90zM235 256h176l34 197h-176z" />
    <glyph glyph-name="dollar" unicode="$" horiz-adv-x="624" 
d="M254 -91v86q-127 20 -204 131l74 85q64 -92 130 -114v215q-169 49 -169 202q0 52 27 94t74.5 68.5t107.5 31.5v74h97v-78q116 -21 172 -117l-76 -75q-39 64 -96 88v-209q85 -27 131.5 -73.5t46.5 -109.5q0 -92 -58 -149.5t-160 -66.5v-83h-97zM193 517q0 -37 23 -61
t78 -41v196q-46 -6 -73.5 -31.5t-27.5 -62.5zM461 180q0 38 -26.5 65t-83.5 44v-200q47 5 78.5 30t31.5 61z" />
    <glyph glyph-name="percent" unicode="%" horiz-adv-x="839" 
d="M193 329q-45 0 -79.5 24.5t-54 67t-19.5 97.5t19.5 98.5t54.5 68t80 24.5t79.5 -24.5t54 -68t19.5 -98.5q0 -53 -20 -96t-55 -68t-79 -25zM129 0l463 700h103l-468 -700h-98zM194 404q32 0 50.5 30.5t18.5 83.5t-18.5 84t-51.5 31q-32 0 -51 -31.5t-19 -83.5t19 -83
t52 -31zM636 -9q-45 0 -79.5 25t-54.5 67.5t-20 96.5q0 55 19.5 98.5t54.5 68t80 24.5t79.5 -24.5t54 -68t19.5 -98.5q0 -53 -20 -96t-54.5 -68t-78.5 -25zM636 65q32 0 51 31.5t19 83.5t-19 83.5t-51 31.5q-33 0 -52 -31t-19 -84q0 -52 19 -83.5t52 -31.5z" />
    <glyph glyph-name="ampersand" unicode="&#x26;" horiz-adv-x="739" 
d="M306 -10q-71 0 -129 30.5t-92.5 81t-34.5 110.5q0 75 39 130.5t114 88.5q-16 27 -25.5 52.5t-9.5 48.5q0 51 26.5 91.5t73 63.5t107.5 23q67 0 120.5 -36.5t72.5 -94.5l-78 -50q-19 46 -46.5 67t-68.5 21q-95 0 -95 -82q0 -22 12.5 -48.5t31.5 -53.5t39 -50t35 -40
l119 -132q27 52 37 118h92q-15 -108 -66 -188l129 -141h-134l-61 65q-42 -36 -94.5 -55.5t-113.5 -19.5zM159 227q0 -63 44.5 -102.5t122.5 -39.5q72 0 128 46l-159 177q-21 23 -38 45q-98 -31 -98 -126z" />
    <glyph glyph-name="quotesingle" unicode="'" horiz-adv-x="205" 
d="M37 442l23 258h118l-81 -258h-60z" />
    <glyph glyph-name="parenleft" unicode="(" horiz-adv-x="366" 
d="M290 -186q-122 76 -186 190t-64 254q0 139 64.5 253.5t186.5 190.5l55 -62q-102 -71 -155.5 -169.5t-53.5 -212.5t53.5 -212.5t155.5 -169.5z" />
    <glyph glyph-name="parenright" unicode=")" horiz-adv-x="363" 
d="M73 -186l-55 62q102 71 155.5 169.5t53.5 212.5t-53.5 212.5t-155.5 169.5l56 62q122 -76 186 -190t64 -254q0 -139 -64.5 -253.5t-186.5 -190.5z" />
    <glyph glyph-name="asterisk" unicode="*" horiz-adv-x="387" 
d="M159 376l8 111l-98 -66l-37 65l106 51l-108 52l38 64l99 -67l-8 114h75l-8 -113l94 64l37 -65l-102 -50l101 -49l-37 -64l-93 62l8 -109h-75z" />
    <glyph glyph-name="plus" unicode="+" horiz-adv-x="591" 
d="M45 235v90h197v200h105v-200h199v-90h-199v-193h-105v193h-197z" />
    <glyph glyph-name="comma" unicode="," horiz-adv-x="267" 
d="M88 -179l-38 46q35 20 57 46t22 45q0 10 -5 19.5t-21 26.5q-20 19 -26 32t-6 28q0 24 17 38.5t44 14.5q38 0 63.5 -31.5t25.5 -81.5q0 -39 -17.5 -75.5t-47.5 -64.5t-68 -43z" />
    <glyph glyph-name="hyphen" unicode="-" horiz-adv-x="394" 
d="M53 235v102h288v-102h-288z" />
    <glyph glyph-name="period" unicode="." horiz-adv-x="228" 
d="M114 -11q-33 0 -51 19.5t-18 55.5q0 33 19 54t50 21q33 0 51 -19.5t18 -55.5q0 -33 -19 -54t-50 -21z" />
    <glyph glyph-name="slash" unicode="/" horiz-adv-x="557" 
d="M18 -132l412 832h99l-411 -832h-100z" />
    <glyph glyph-name="zero" unicode="0" horiz-adv-x="607" 
d="M303 -10q-80 0 -137.5 44t-88.5 124.5t-31 191.5t31 191.5t88.5 124.5t137.5 44t138 -44t89 -124.5t31 -191.5t-31 -191.5t-89 -124.5t-138 -44zM303 88q73 0 113 68.5t40 193.5t-40 193.5t-113 68.5t-113 -68.5t-40 -193.5t40 -193.5t113 -68.5z" />
    <glyph glyph-name="one" unicode="1" horiz-adv-x="500" 
d="M106 0v104h111v465l-101 -53l-29 94l187 100h52v-606h114v-104h-334z" />
    <glyph glyph-name="two" unicode="2" horiz-adv-x="548" 
d="M93 0l-33 82l214 241q22 25 47.5 57t43.5 66t18 63q0 48 -28 74.5t-77 26.5q-43 0 -84 -37.5t-60 -99.5l-83 52q25 87 89.5 136t150.5 49q59 0 105 -24.5t72 -68t26 -100.5q0 -58 -33.5 -122.5t-109.5 -147.5l-131 -143h296v-104h-423z" />
    <glyph glyph-name="three" unicode="3" horiz-adv-x="529" 
d="M251 -10q-74 0 -128.5 34t-102.5 114l84 53q37 -56 74.5 -81t80.5 -25q35 0 65 17.5t48 48.5t18 70q0 59 -31.5 91t-87.5 32q-47 0 -121 -30l-30 79l188 207h-249v100h401l20 -40l-196 -217q59 0 106.5 -29t75.5 -78t28 -109q0 -68 -32.5 -121.5t-87.5 -84.5t-123 -31z
" />
    <glyph glyph-name="four" unicode="4" horiz-adv-x="620" 
d="M352 0v190h-276l-46 90l343 420h83v-411h122v-99h-122v-190h-104zM157 289h195v238z" />
    <glyph glyph-name="five" unicode="5" horiz-adv-x="568" 
d="M257 -7q-69 0 -125 31.5t-93 90.5l60 67q47 -52 82 -71t76 -19t74 18t52.5 49t19.5 69q0 40 -18.5 71.5t-49.5 50t-70 18.5q-19 0 -36 -2.5t-41 -11.5t-63 -28l-57 77l41 297h378v-100h-292l-23 -155q23 10 54 16.5t58 6.5q64 0 114.5 -29.5t80 -81.5t29.5 -119
q0 -69 -33 -124.5t-90 -88t-128 -32.5z" />
    <glyph glyph-name="six" unicode="6" horiz-adv-x="557" 
d="M283 0q-69 0 -124 32t-87 88t-32 127q0 54 30.5 134t88.5 177l91 154h105l4 -10l-110 -185q-14 -23 -26 -46q40 18 85 18q58 0 106.5 -31.5t78 -83.5t29.5 -114q0 -75 -30.5 -133.5t-84.5 -92.5t-124 -34zM283 100q58 0 96.5 41t38.5 106q0 37 -18 69.5t-48 52.5t-67 20
q-41 0 -73 -19t-50 -51t-18 -71q0 -42 18 -75.5t49 -53t72 -19.5z" />
    <glyph glyph-name="seven" unicode="7" horiz-adv-x="542" 
d="M112 0l275 600h-327v100h433l14 -69l-279 -631h-116z" />
    <glyph glyph-name="eight" unicode="8" horiz-adv-x="579" 
d="M289 -3q-65 0 -118.5 27.5t-85.5 73.5t-32 102q0 112 110 173q-44 21 -68.5 56.5t-24.5 79.5q0 53 29.5 96t79 69t110.5 26t110.5 -26t79 -69t29.5 -96q0 -91 -96 -137q52 -27 83 -73.5t31 -98.5q0 -57 -32 -103t-85.5 -73t-119.5 -27zM289 414q48 0 80 26t32 66t-32 67
t-80 27t-80 -27t-32 -67t32 -66t80 -26zM289 97q56 0 93 30.5t37 76.5q0 49 -37 81.5t-93 32.5q-55 0 -92 -32.5t-37 -81.5q0 -45 37 -76t92 -31z" />
    <glyph glyph-name="nine" unicode="9" horiz-adv-x="551" 
d="M228 0l-4 10l126 267q-52 -34 -109 -34t-105 30t-77 80t-29 109q0 71 32 127.5t87.5 89.5t124.5 33q67 0 122 -31.5t87.5 -84.5t32.5 -118q0 -33 -9 -73.5t-31 -96t-59 -134.5l-83 -174h-106zM264 343q39 0 70 17.5t48.5 47t17.5 66.5q0 59 -37.5 98.5t-96.5 39.5
q-54 0 -89.5 -38t-35.5 -99q0 -35 16.5 -65t44.5 -48.5t62 -18.5z" />
    <glyph glyph-name="colon" unicode=":" horiz-adv-x="268" 
d="M134 -10q-33 0 -51 19.5t-18 55.5q0 33 19 54t50 21q33 0 51 -19.5t18 -55.5q0 -33 -19 -54t-50 -21zM134 385q-33 0 -51 19.5t-18 55.5q0 33 19 54t50 21q33 0 51 -19.5t18 -55.5q0 -33 -19 -54t-50 -21z" />
    <glyph glyph-name="semicolon" unicode=";" horiz-adv-x="257" 
d="M81 -179l-38 46q35 20 57 46t22 45q0 10 -5 19.5t-21 26.5q-20 19 -26 32t-6 28q0 24 17 38.5t44 14.5q38 0 63.5 -31.5t25.5 -81.5q0 -39 -17.5 -75.5t-47.5 -64.5t-68 -43zM130 385q-33 0 -51 19.5t-18 55.5q0 33 19 54t50 21q33 0 51 -19.5t18 -55.5q0 -33 -19 -54
t-50 -21z" />
    <glyph glyph-name="less" unicode="&#x3c;" horiz-adv-x="524" 
d="M411 4l-361 207v81l361 207l48 -75l-301 -172l301 -173z" />
    <glyph glyph-name="equal" unicode="=" horiz-adv-x="566" 
d="M50 331v90h466v-90h-466zM50 142v89h466v-89h-466z" />
    <glyph glyph-name="greater" unicode="&#x3e;" horiz-adv-x="524" 
d="M113 4l-48 75l301 173l-301 172l48 75l361 -207v-81z" />
    <glyph glyph-name="question" unicode="?" horiz-adv-x="511" 
d="M193 211l-26 141q98 26 144.5 64.5t46.5 94.5q0 44 -34 72.5t-85 28.5q-40 0 -77.5 -27.5t-64.5 -77.5l-75 63q43 66 102.5 102.5t124.5 36.5q63 0 113 -26t79.5 -71t29.5 -101q0 -44 -24 -85t-65.5 -73.5t-94.5 -51.5l-17 -90h-77zM158 64q0 33 19 54t50 21
q33 0 51 -19.5t18 -55.5q0 -33 -19 -54t-50 -21q-33 0 -51 19.5t-18 55.5z" />
    <glyph glyph-name="at" unicode="@" horiz-adv-x="965" 
d="M414 -162q-117 0 -200.5 46t-128.5 129t-45 193q0 117 41.5 210.5t115 159t171 100t208.5 34.5q106 0 184.5 -39.5t121.5 -110.5t43 -164q0 -68 -19.5 -129.5t-54.5 -109t-81.5 -75t-100.5 -27.5q-50 0 -83 25.5t-35 68.5q-53 -94 -151 -94q-43 0 -76.5 23t-52.5 64
t-19 95q0 47 17 95t49 88t76 65t97 25q37 0 64.5 -21.5t40.5 -57.5l11 70h101l-51 -308q-4 -28 10 -42t33 -14q40 0 72 35t51 92.5t19 126.5q0 112 -71.5 175.5t-198.5 63.5q-137 0 -237.5 -50.5t-155.5 -145t-55 -225.5q0 -137 76 -214t217 -77q47 0 81 6.5t65 20t69 33.5
l37 -67q-59 -30 -101 -45.5t-78 -21.5t-76 -6zM423 140q34 0 65.5 21.5t54 55t27.5 69.5q3 18 5 31t2 25q0 39 -22 61t-60 22q-39 0 -71 -28.5t-51 -73t-19 -91.5q0 -43 18.5 -67.5t50.5 -24.5z" />
    <glyph glyph-name="A" unicode="A" horiz-adv-x="700" 
d="M25 0l271 700h110l269 -700h-115l-66 174h-293l-66 -174h-110zM294 418l-53 -140h214l-55 144q-3 7 -12 35t-20 62t-20 60q-8 -26 -18 -57t-19.5 -59t-16.5 -45z" />
    <glyph glyph-name="B" unicode="B" horiz-adv-x="681" 
d="M98 0v700h292q101 0 153.5 -45t52.5 -131q0 -49 -23 -85.5t-65 -55.5q57 -21 91 -66.5t34 -110.5q0 -100 -61.5 -153t-171.5 -53h-302zM206 410h178q45 0 74.5 26t29.5 67q0 45 -30 69t-86 24h-166v-186zM206 104h188q61 0 95 27t34 77q0 47 -36.5 72.5t-97.5 25.5h-183
v-202z" />
    <glyph glyph-name="C" unicode="C" horiz-adv-x="679" 
d="M382 -10q-97 0 -172.5 46t-118.5 127t-43 187q0 75 26.5 139.5t73.5 113.5t109 76t134 27q51 0 99.5 -15.5t88 -43t64.5 -62.5l-72 -75q-86 88 -180 88q-65 0 -118 -32t-84 -88t-31 -128q0 -77 30.5 -133t85 -87t126.5 -31q50 0 96 20t80 55l54 -88q-23 -27 -62.5 -49
t-88 -34.5t-97.5 -12.5z" />
    <glyph glyph-name="D" unicode="D" horiz-adv-x="748" 
d="M98 0v700h274q100 0 173.5 -44t114 -123t40.5 -183q0 -105 -40 -183.5t-113.5 -122.5t-174.5 -44h-274zM367 596h-161v-492h161q106 0 164.5 65.5t58.5 180.5q0 114 -59 180t-164 66z" />
    <glyph glyph-name="E" unicode="E" horiz-adv-x="614" 
d="M98 0v700h441v-104h-333v-185h278v-104h-278v-203h333v-104h-441z" />
    <glyph glyph-name="F" unicode="F" horiz-adv-x="602" 
d="M98 0v700h454v-104h-346v-194h301v-104h-301v-298h-108z" />
    <glyph glyph-name="G" unicode="G" horiz-adv-x="766" 
d="M411 -10q-76 0 -142 27.5t-116 76.5t-77.5 114.5t-27.5 141.5q0 75 27.5 140t77 113.5t115.5 75.5t142 27q53 0 103.5 -15t91.5 -42t67 -62l-70 -73q-91 87 -192 87q-71 0 -128 -33t-90.5 -90t-33.5 -128q0 -52 20 -98.5t55.5 -81.5t82 -55t98.5 -20q53 0 96.5 20
t70 54.5t26.5 76.5v6h-199v107h310q3 -17 4 -31.5t1 -28.5q0 -92 -41.5 -161.5t-112.5 -108.5t-158 -39z" />
    <glyph glyph-name="H" unicode="H" horiz-adv-x="761" 
d="M98 0v700h108v-299h349v299h108v-700h-108v297h-349v-297h-108z" />
    <glyph glyph-name="I" unicode="I" horiz-adv-x="478" 
d="M72 0v100h113v500h-113v100h334v-100h-113v-500h113v-100h-334z" />
    <glyph glyph-name="J" unicode="J" horiz-adv-x="642" 
d="M256 -10q-68 0 -122.5 35t-83.5 92l68 71q29 -39 50.5 -59t42 -27t45.5 -7q54 0 87 36t33 92v377h-128v100h344v-100h-108v-387q0 -63 -29 -113.5t-80.5 -80t-118.5 -29.5z" />
    <glyph glyph-name="K" unicode="K" horiz-adv-x="732" 
d="M98 0v700h108v-343l343 343h142l-302 -293l308 -407h-135l-249 333l-107 -104v-229h-108z" />
    <glyph glyph-name="L" unicode="L" horiz-adv-x="599" 
d="M98 0v700h108v-596h328v-104h-436z" />
    <glyph glyph-name="M" unicode="M" horiz-adv-x="864" 
d="M98 0v700h106l229 -373l233 373h100v-700h-108v287q0 67 2.5 123t7.5 109l-205 -318h-66l-201 317q5 -50 7.5 -105.5t2.5 -125.5v-287h-108z" />
    <glyph glyph-name="N" unicode="N" horiz-adv-x="793" 
d="M98 0v700h97l407 -545q-8 61 -11.5 141t-3.5 174v230h108v-700h-99l-407 534q7 -87 11 -134.5t5 -71t1 -37.5v-291h-108z" />
    <glyph glyph-name="O" unicode="O" horiz-adv-x="782" 
d="M391 -10q-74 0 -136.5 27t-109 75.5t-72 114t-25.5 143.5t25.5 143.5t72 114t109 75.5t136.5 27t136.5 -27t109 -76t72 -114.5t25.5 -142.5t-25.5 -142.5t-72 -114.5t-109 -76t-136.5 -27zM391 95q67 0 120 33t83 91t30 131t-30 131t-83 91t-120 33q-68 0 -120.5 -33
t-82.5 -90.5t-30 -131.5t30 -131.5t82.5 -90.5t120.5 -33z" />
    <glyph glyph-name="P" unicode="P" horiz-adv-x="634" 
d="M98 0v700h285q57 0 103.5 -28.5t74.5 -77.5t28 -109t-28 -109t-74.5 -78.5t-103.5 -29.5h-177v-268h-108zM206 372h175q27 0 49 15.5t35.5 41t13.5 56.5q0 46 -29 78.5t-69 32.5h-175v-224z" />
    <glyph glyph-name="Q" unicode="Q" horiz-adv-x="782" 
d="M391 -10q-74 0 -136.5 27t-109 75.5t-72 114t-25.5 143.5t25.5 143.5t72 114t109 75.5t136.5 27t136.5 -27t109 -76t72 -114.5t25.5 -142.5q0 -87 -33 -160t-91 -122l89 -116l-86 -62l-94 124q-61 -24 -128 -24zM391 95q31 0 60 8l-103 134l89 59l108 -142q37 35 58 85
t21 111q0 73 -30 131t-83 91t-120 33q-68 0 -120.5 -33t-82.5 -90.5t-30 -131.5t30 -131.5t82.5 -90.5t120.5 -33z" />
    <glyph glyph-name="R" unicode="R" horiz-adv-x="695" 
d="M98 0v700h298q60 0 110.5 -29.5t80.5 -80t30 -113.5q0 -64 -38 -118t-97 -79l163 -281l-131 1l-148 263h-160v-263h-108zM206 367h200q44 0 72.5 32t28.5 79q0 52 -36.5 85t-92.5 33h-172v-229z" />
    <glyph glyph-name="S" unicode="S" horiz-adv-x="624" 
d="M314 -10q-170 0 -264 136l74 85q49 -70 94 -97t107 -27q57 0 96.5 26t39.5 67q0 46 -39 75.5t-123 45.5q-214 42 -214 213q0 57 32 101t86.5 69.5t122.5 25.5q165 0 237 -123l-76 -75q-30 49 -71.5 75t-92.5 26q-58 0 -94 -26.5t-36 -69.5t32.5 -69.5t111.5 -42.5
q110 -23 171 -74t61 -123q0 -100 -68.5 -159t-186.5 -59z" />
    <glyph glyph-name="T" unicode="T" horiz-adv-x="576" 
d="M231 0v596h-196v104h506v-104h-202v-596h-108z" />
    <glyph glyph-name="U" unicode="U" horiz-adv-x="740" 
d="M370 -6q-81 0 -145 35.5t-100.5 98t-36.5 141.5v432h108v-423q0 -51 24 -91.5t63.5 -64.5t86.5 -24q50 0 90.5 24t64.5 64.5t24 91.5v423h103v-432q0 -79 -36.5 -141.5t-100.5 -98t-145 -35.5z" />
    <glyph glyph-name="V" unicode="V" horiz-adv-x="715" 
d="M304 0l-280 700h123l167 -425q17 -44 29 -76t20 -58q9 27 20 59.5t27 74.5l155 425h126l-282 -700h-105z" />
    <glyph glyph-name="W" unicode="W" horiz-adv-x="996" 
d="M247 0l-223 700h115l135 -438q6 -18 11.5 -43t10.5 -49q12 43 18 62t11 31l126 316h97l122 -316q9 -23 16 -44.5t13 -43.5q2 12 4 21.5t6.5 25t13.5 43.5l133 435h116l-223 -700h-75l-180 425l-174 -425h-73z" />
    <glyph glyph-name="X" unicode="X" horiz-adv-x="685" 
d="M24 0l251 358l-246 342h137l183 -267l175 267h127l-242 -353l252 -347h-137l-187 271l-186 -271h-127z" />
    <glyph glyph-name="Y" unicode="Y" horiz-adv-x="660" 
d="M286 0v310l-276 390h130l202 -290l184 290h124l-256 -388v-312h-108z" />
    <glyph glyph-name="Z" unicode="Z" horiz-adv-x="659" 
d="M60 0v79l386 517h-360v104h507v-78l-384 -518h395v-104h-544z" />
    <glyph glyph-name="bracketleft" unicode="[" horiz-adv-x="403" 
d="M80 -190v890h257v-79h-164v-732h164v-79h-257z" />
    <glyph glyph-name="backslash" unicode="\" horiz-adv-x="557" 
d="M446 -107l-398 807h99l400 -807h-101z" />
    <glyph glyph-name="bracketright" unicode="]" horiz-adv-x="403" 
d="M66 -190v79h164v732h-164v79h257v-890h-257z" />
    <glyph glyph-name="asciicircum" unicode="^" horiz-adv-x="579" 
d="M29 368l211 359h100l211 -359h-115l-146 250l-148 -250h-113z" />
    <glyph glyph-name="underscore" unicode="_" horiz-adv-x="690" 
d="M53 -160v78h584v-78h-584z" />
    <glyph glyph-name="grave" unicode="`" horiz-adv-x="500" 
d="M320 606l-174 94l65 82l143 -125z" />
    <glyph glyph-name="a" unicode="a" horiz-adv-x="633" 
d="M274 -10q-65 0 -118.5 36t-85.5 98t-32 140q0 79 32.5 140.5t88 96.5t124.5 35q59 0 104.5 -25.5t69.5 -65.5v80h104v-525h-104v81q-27 -38 -76.5 -64.5t-106.5 -26.5zM301 85q47 0 83 23t56.5 63.5t20.5 92.5q0 51 -20.5 91t-56.5 63t-83 23q-46 0 -81.5 -23t-56 -63
t-20.5 -91q0 -52 20.5 -92.5t56 -63.5t81.5 -23z" />
    <glyph glyph-name="b" unicode="b" horiz-adv-x="630" 
d="M348 -10q-51 0 -98 23.5t-75 55.5v-66h-103v737h103v-290q24 35 71.5 60.5t98.5 25.5q71 0 126 -35t87 -96.5t32 -140.5t-31.5 -141t-86.5 -97.5t-124 -35.5zM331 84q46 0 82 23.5t57 64t21 92.5q0 51 -20.5 91.5t-56.5 63.5t-83 23t-83 -23t-57 -63.5t-21 -91.5
q0 -52 21 -92.5t57 -64t83 -23.5z" />
    <glyph glyph-name="c" unicode="c" horiz-adv-x="535" 
d="M295 -10q-73 0 -130.5 36t-91 98t-33.5 139t33.5 139t91 98t130.5 36q70 0 127.5 -28.5t87.5 -77.5l-57 -70q-24 35 -66.5 59t-81.5 24q-48 0 -85.5 -23.5t-59.5 -64.5t-22 -92t23 -91.5t61 -64.5t84 -24q81 0 147 80l57 -70q-32 -45 -91.5 -74t-123.5 -29z" />
    <glyph glyph-name="d" unicode="d" horiz-adv-x="634" 
d="M291 -10q-72 0 -128.5 35.5t-89.5 97t-33 140.5t32.5 140.5t88.5 97t127 35.5q52 0 98.5 -22t74.5 -54v280h103v-740h-103v72q-24 -34 -71 -58t-99 -24zM305 79q47 0 83 24t56.5 65.5t20.5 94.5t-20.5 94.5t-56.5 65.5t-83 24t-83 -24t-56.5 -65.5t-20.5 -94.5
t20.5 -94.5t56.5 -65.5t83 -24z" />
    <glyph glyph-name="e" unicode="e" horiz-adv-x="586" 
d="M317 -10q-81 0 -143.5 34.5t-98 94.5t-35.5 138q0 83 34.5 145.5t95 98t138.5 36.5q68 -1 122.5 -34t86 -90t29.5 -131l-1 -44h-402q9 -71 58.5 -112.5t125.5 -41.5q39 0 72.5 13t72.5 47l52 -73q-37 -36 -94 -58.5t-113 -22.5zM308 442q-135 0 -161 -122h294v7
q-3 33 -22 59t-48 41t-63 15z" />
    <glyph glyph-name="f" unicode="f" horiz-adv-x="393" 
d="M129 0v421h-84v95h84v68q0 68 43.5 111.5t112.5 43.5q32 0 60 -12t45 -32l-35 -79q-13 12 -28.5 19.5t-29.5 7.5q-64 0 -64 -59v-68h124v-95h-124v-421h-104z" />
    <glyph glyph-name="g" unicode="g" horiz-adv-x="649" 
d="M307 -230q-56 0 -111.5 17.5t-89.5 45.5l38 80q30 -23 74.5 -37t88.5 -14q167 0 167 158v63q-14 -25 -41.5 -46t-62 -34t-70.5 -13q-75 0 -133.5 35.5t-92.5 97t-34 140.5t33.5 140.5t92 97t131.5 35.5q55 0 103 -25t74 -57v71h103v-493q0 -125 -72 -193.5t-198 -68.5z
M311 85q49 0 87 23t59 63t21 92t-21.5 92.5t-59 63.5t-86.5 23q-48 0 -85.5 -23.5t-59 -64t-21.5 -91.5t21.5 -91.5t59 -63.5t85.5 -23z" />
    <glyph glyph-name="h" unicode="h" horiz-adv-x="595" 
d="M72 0v740h103v-297q26 39 73.5 66t98.5 27q180 0 180 -216v-320h-103v313q0 135 -111 129q-39 0 -70.5 -16.5t-49.5 -44.5t-18 -63v-318h-103z" />
    <glyph glyph-name="i" unicode="i" horiz-adv-x="278" 
d="M141 641q-33 0 -51 17t-18 48q0 29 18.5 47t50.5 18q33 0 51 -17t18 -48q0 -29 -18.5 -47t-50.5 -18zM91 0v525h103v-525h-103z" />
    <glyph glyph-name="j" unicode="j" horiz-adv-x="265" 
d="M140 641q-33 0 -51 17t-18 48q0 29 18.5 47t50.5 18q33 0 51 -17t18 -48q0 -29 -18.5 -47t-50.5 -18zM9 -197l-39 79q116 0 116 119v524h103v-549q0 -77 -50 -125t-130 -48z" />
    <glyph glyph-name="k" unicode="k" horiz-adv-x="570" 
d="M74 0v740h103v-450l237 235h139l-246 -231l253 -294h-132l-194 226l-57 -54v-172h-103z" />
    <glyph glyph-name="l" unicode="l" horiz-adv-x="251" 
d="M74 0v740h103v-740h-103z" />
    <glyph glyph-name="m" unicode="m" horiz-adv-x="921" 
d="M70 0v525h104v-83q25 38 70 65t95 27q123 0 160 -110q15 30 44.5 55t65 40t71.5 15q175 0 175 -219v-315h-104v309q0 67 -25.5 98.5t-79.5 31.5q-57 0 -95 -36t-38 -89v-314h-104v311q0 62 -26.5 95t-76.5 33q-37 0 -67 -16.5t-47.5 -44t-17.5 -62.5v-316h-104z" />
    <glyph glyph-name="n" unicode="n" horiz-adv-x="595" 
d="M72 0v525h103v-82q26 39 73.5 66t98.5 27q180 0 180 -216v-320h-103v313q0 135 -111 129q-39 0 -70.5 -16.5t-49.5 -44.5t-18 -63v-318h-103z" />
    <glyph glyph-name="o" unicode="o" horiz-adv-x="615" 
d="M308 -10q-77 0 -137.5 35.5t-95.5 97t-35 140.5t35 140.5t95.5 97t137.5 35.5q76 0 136.5 -35.5t95.5 -97t35 -140.5t-35 -140.5t-95.5 -97t-136.5 -35.5zM308 84q47 0 84 23.5t58 64t20 91.5q1 52 -20 92.5t-58 63.5t-84 23t-84.5 -23.5t-58.5 -64t-20 -91.5
q-1 -51 20 -91.5t58.5 -64t84.5 -23.5z" />
    <glyph glyph-name="p" unicode="p" horiz-adv-x="631" 
d="M72 -220v745h104v-75q24 34 71.5 59t98.5 25q71 0 126 -35t87 -96t32 -140q0 -78 -31.5 -139.5t-86.5 -97t-124 -35.5q-51 0 -98 23t-75 55v-289h-104zM332 86q46 0 82 23t57 63t21 91t-20.5 90.5t-56.5 62.5t-83 23t-83 -22.5t-57 -62.5t-21 -91t21 -91t57 -63t83 -23z
" />
    <glyph glyph-name="q" unicode="q" horiz-adv-x="630" 
d="M455 -220v292q-25 -33 -71 -57.5t-96 -24.5q-71 0 -127 35.5t-88.5 97t-32.5 140.5t32 140.5t87.5 97t125.5 35.5q51 0 97 -22t73 -54v66h103v-746h-103zM299 85q47 0 83 23t56.5 63t20.5 92t-20.5 92.5t-56.5 63.5t-83 23t-83 -23.5t-56.5 -64t-20.5 -91.5t20.5 -91.5
t56.5 -63.5t83 -23z" />
    <glyph glyph-name="r" unicode="r" horiz-adv-x="403" 
d="M72 0v525h104v-99q23 47 67 78.5t93 31.5q17 0 32.5 -3t24.5 -7l-27 -112q-12 5 -26.5 8.5t-28.5 3.5q-36 0 -66.5 -18t-49.5 -49t-19 -69v-290h-104z" />
    <glyph glyph-name="s" unicode="s" horiz-adv-x="479" 
d="M247 -10q-66 0 -119 23t-88 68l70 60q30 -35 65.5 -50.5t80.5 -15.5q37 0 60.5 18t23.5 49q0 26 -19 42q-19 15 -87 33q-58 15 -95 34t-57 43q-29 36 -29 91q0 44 25 78t67.5 53.5t95.5 19.5q56 0 108.5 -22.5t84.5 -61.5l-59 -65q-29 29 -64.5 46.5t-64.5 17.5
q-43 0 -66.5 -16t-23.5 -47q1 -27 22 -44t89 -34q50 -13 82.5 -28.5t51.5 -35.5q20 -19 28 -44t8 -56q0 -45 -25.5 -80.5t-68.5 -55.5t-96 -20z" />
    <glyph glyph-name="t" unicode="t" horiz-adv-x="384" 
d="M137 0v425h-109v100h109v134h103v-134h122v-100h-122v-425h-103z" />
    <glyph glyph-name="u" unicode="u" horiz-adv-x="605" 
d="M256 -10q-84 0 -134 57t-50 154v324h103v-296q0 -69 32.5 -109t90.5 -40q57 0 94.5 36t37.5 93v316h103v-525h-103v84q-26 -42 -72.5 -68t-101.5 -26z" />
    <glyph glyph-name="v" unicode="v" horiz-adv-x="573" 
d="M244 0l-222 525h111l153 -375l159 375h106l-233 -525h-74z" />
    <glyph glyph-name="w" unicode="w" horiz-adv-x="800" 
d="M201 0l-179 525l104 1l118 -362l126 278h62l125 -274l117 357h104l-177 -525h-71l-134 305l-125 -305h-70z" />
    <glyph glyph-name="x" unicode="x" horiz-adv-x="562" 
d="M16 0l202 263l-203 262h130l142 -185l120 185h122l-185 -259l203 -266h-126l-144 187l-139 -187h-122z" />
    <glyph glyph-name="y" unicode="y" horiz-adv-x="581" 
d="M160 -230l89 205l-244 550h120l164 -386q5 -11 13 -35l15 42l137 379h122l-216 -525l-89 -230h-111z" />
    <glyph glyph-name="z" unicode="z" horiz-adv-x="484" 
d="M50 0v86l262 350h-262v89h383v-84l-263 -352h269v-89h-389z" />
    <glyph glyph-name="braceleft" unicode="{" horiz-adv-x="411" 
d="M369 -200q-98 20 -141.5 64t-43.5 129l1 95q0 58 -25.5 90.5t-72.5 33.5h-43v76h45q47 1 71.5 33t24.5 91l-1 95q0 82 43 127t142 66l18 -69q-43 -14 -67.5 -30t-34.5 -41.5t-10 -66.5l2 -95q0 -58 -26 -96t-73 -52q99 -36 99 -148l-2 -95q0 -41 10 -66t34.5 -41
t67.5 -31z" />
    <glyph glyph-name="bar" unicode="|" horiz-adv-x="231" 
d="M67 -193v933h97v-933h-97z" />
    <glyph glyph-name="braceright" unicode="}" horiz-adv-x="411" 
d="M42 -200l-18 69q43 14 67 30t34.5 41.5t10.5 66.5l-2 95q0 58 26 96t73 52q-99 36 -99 148l2 95q0 41 -10 66t-34 41.5t-68 30.5l18 69q98 -20 141.5 -64t43.5 -129l-1 -95q0 -58 25.5 -90.5t72.5 -33.5h43v-76h-45q-47 -1 -71.5 -33t-24.5 -91l1 -95q0 -82 -43 -127
t-142 -66z" />
    <glyph glyph-name="asciitilde" unicode="~" horiz-adv-x="510" 
d="M356 225q-15 0 -37 6t-43.5 14t-36.5 13q-22 8 -49 17.5t-39 9.5q-37 0 -37 -58h-74q0 68 31.5 105t90.5 37q25 0 59 -12.5t56 -21.5q21 -8 46 -17t38 -9q17 0 27 13.5t8 34.5l74 -3q0 -129 -114 -129z" />
    <glyph glyph-name="uni00A0" unicode="&#xa0;" horiz-adv-x="280" 
 />
    <glyph glyph-name="exclamdown" unicode="&#xa1;" horiz-adv-x="236" 
d="M141 289q11 -94 17.5 -197.5t6.5 -191.5v-70h-108v70q0 62 3 130t8.5 134.5t12.5 124.5h60zM114 541q33 0 51 -19.5t18 -55.5q0 -33 -19 -54t-50 -21q-33 0 -51 19.5t-18 55.5q0 33 19 54t50 21z" />
    <glyph glyph-name="cent" unicode="&#xa2;" horiz-adv-x="535" 
d="M239 0v84q-58 13 -103 51t-70.5 93.5t-25.5 122.5t25.5 122.5t70.5 93.5t103 51v82h97v-79q57 -7 102.5 -34t71.5 -69l-57 -70q-20 30 -54.5 52t-69.5 29v-356q68 10 124 78l57 -70q-27 -38 -74 -65t-100 -35v-81h-97zM138 351q0 -59 30.5 -104t77.5 -64v337
q-49 -18 -78.5 -63.5t-29.5 -105.5z" />
    <glyph glyph-name="sterling" unicode="&#xa3;" horiz-adv-x="610" 
d="M44 323v85h82q-7 27 -9.5 44.5t-2.5 34.5q0 67 28 117.5t78.5 78t119.5 27.5q67 0 116.5 -22.5t72.5 -62.5l-74 -56q-46 48 -115 48q-56 0 -91 -37t-35 -94q0 -18 4 -38t10 -40h224v-85h-197q8 -25 14 -50.5t6 -48.5q0 -58 -32 -111q19 -2 39.5 -7.5t51.5 -16.5
q21 -7 45 -14.5t46 -7.5q57 0 113 35l52 -65q-31 -28 -74.5 -43t-90.5 -15q-23 0 -56.5 9t-55.5 16q-19 6 -49 14t-50 8q-32 0 -69.5 -8.5t-74.5 -23.5l-40 71q54 33 123 44q10 18 16 42t6 50q0 24 -4.5 50.5t-18.5 71.5h-108z" />
    <glyph glyph-name="currency" unicode="&#xa4;" horiz-adv-x="550" 
d="M129 82l-71 70l63 67q-20 39 -20 83t20 83l-71 66l70 70l68 -64q42 25 91 25q45 0 84 -22l66 70l71 -70l-66 -70q23 -41 23 -88q0 -45 -20 -84l61 -58l-70 -70l-60 56q-41 -24 -89 -24t-89 24zM279 210q37 0 60 26t23 66t-23 66.5t-60 26.5q-36 0 -59 -26.5t-23 -66.5
t23 -66t59 -26z" />
    <glyph glyph-name="yen" unicode="&#xa5;" horiz-adv-x="660" 
d="M146 90v86l140 -1v54l-140 1v86l136 -1l-272 385h130l202 -290l184 290h124l-254 -385l162 -1v-86l-164 1v-54l164 -1v-86l-164 1v-89h-108v89z" />
    <glyph glyph-name="brokenbar" unicode="&#xa6;" horiz-adv-x="239" 
d="M71 341v399h97v-399h-97zM71 -202v400h97v-400h-97z" />
    <glyph glyph-name="section" unicode="&#xa7;" horiz-adv-x="549" 
d="M274 -134q-58 0 -118.5 25t-100.5 65l50 79q36 -35 81.5 -56.5t86.5 -21.5q50 0 78.5 18.5t28.5 53.5q0 26 -21.5 43t-55.5 27l-118 36q-138 42 -138 155q0 44 22 80t64 56q-17 19 -28 46.5t-11 63.5q0 76 51.5 125.5t149.5 49.5q114 0 181 -83l-57 -66q-53 55 -129 55
q-42 0 -70 -21t-28 -55q0 -25 19.5 -46t61.5 -33l93 -27q153 -45 147 -157q-3 -47 -25 -79t-60 -49q22 -19 36 -46t14 -63q0 -76 -51.5 -125.5t-152.5 -49.5zM330 200l14 -4q36 9 53.5 28t17.5 42t-15.5 38t-50.5 25l-129 38q-4 1 -8 3q-27 -8 -42.5 -26.5t-15.5 -43.5
q0 -24 19 -42.5t62 -30.5z" />
    <glyph glyph-name="dieresis" unicode="&#xa8;" horiz-adv-x="500" 
d="M350 642q-33 0 -51 17t-18 48q0 29 18.5 47t50.5 18q33 0 51 -17t18 -48q0 -29 -18.5 -47t-50.5 -18zM150 642q-33 0 -51 17t-18 48q0 29 18.5 47t50.5 18q33 0 51 -17t18 -48q0 -29 -18.5 -47t-50.5 -18z" />
    <glyph glyph-name="copyright" unicode="&#xa9;" horiz-adv-x="786" 
d="M393 -7q-75 0 -139.5 27.5t-113.5 76.5t-76.5 113.5t-27.5 139.5t27.5 139.5t76.5 113.5t113.5 76.5t139.5 27.5q74 0 138.5 -27.5t114 -76.5t77 -113.5t27.5 -139.5t-27.5 -139.5t-77 -113.5t-114 -76.5t-138.5 -27.5zM393 67q59 0 110.5 22t90 60.5t60.5 90t22 110.5
q0 60 -22 111t-60.5 90t-90 60.5t-110.5 21.5t-110.5 -21.5t-90 -60.5t-60.5 -90t-22 -111q0 -59 22 -110.5t60.5 -90t90 -60.5t110.5 -22zM411 142q-60 0 -108.5 27t-77 74t-28.5 107q0 57 28.5 104t77 75t108.5 28q70 0 129 -45l-37 -75q-29 21 -50.5 30t-41.5 9
q-55 0 -91.5 -36.5t-36.5 -89.5q0 -56 36.5 -91.5t91.5 -35.5q46 0 96 38l37 -76q-61 -43 -133 -43z" />
    <glyph glyph-name="ordfeminine" unicode="&#xaa;" horiz-adv-x="365" 
d="M143 391q-59 0 -93.5 47t-34.5 124q0 69 39 114t101 45t87 -52v46h93v-314h-93v55q-15 -28 -41.5 -46.5t-57.5 -18.5zM172 458q33 0 53.5 26.5t20.5 70.5q0 46 -20 72.5t-55 26.5q-26 0 -44.5 -27t-18.5 -65q0 -48 17 -76t47 -28z" />
    <glyph glyph-name="guillemotleft" unicode="&#xab;" horiz-adv-x="481" 
d="M381 50l-159 207v2l158 212l63 -45l-115 -165l116 -166zM168 50l-159 207v2l158 212l63 -45l-115 -165l116 -166z" />
    <glyph glyph-name="logicalnot" unicode="&#xac;" horiz-adv-x="670" 
d="M515 117v190h-465v97h570v-287h-105z" />
    <glyph glyph-name="uni00AD" unicode="&#xad;" horiz-adv-x="394" 
d="M53 235v102h288v-102h-288z" />
    <glyph glyph-name="registered" unicode="&#xae;" horiz-adv-x="507" 
d="M259 259q-64 0 -116 30t-83 81t-31 114t31 114t83.5 81t115.5 30t115 -30.5t83 -81.5t31 -113q0 -63 -31 -114t-83 -81t-115 -30zM259 322q46 0 83.5 21.5t60 58.5t22.5 82t-22.5 82t-60 59t-83.5 22q-47 0 -85 -22t-60.5 -59t-22.5 -82t22.5 -82t60.5 -58.5t85 -21.5z
M172 367v239h110q33 0 53.5 -20t20.5 -52q0 -23 -12 -40.5t-31 -26.5l39 -100h-60l-35 94h-28v-94h-57zM264 556h-35v-54h33q17 0 28 7.5t11 19.5q0 27 -37 27z" />
    <glyph glyph-name="macron" unicode="&#xaf;" horiz-adv-x="424" 
d="M108 642v75h284v-75h-284z" />
    <glyph glyph-name="degree" unicode="&#xb0;" horiz-adv-x="532" 
d="M266 399q-44 0 -79.5 20.5t-56 55.5t-20.5 78q0 44 20.5 79.5t55.5 56t80 20.5t80 -20.5t55.5 -56t20.5 -78.5t-20.5 -78.5t-56 -56t-79.5 -20.5zM266 466q34 0 57.5 26t23.5 62t-23.5 61.5t-57.5 25.5q-35 0 -58 -25.5t-23 -62.5q0 -36 23.5 -61.5t57.5 -25.5z" />
    <glyph glyph-name="plusminus" unicode="&#xb1;" horiz-adv-x="582" 
d="M240 143v142h-190v90h190v159h104v-159h188v-90h-188v-142h-104zM50 -1v92h482v-92h-482z" />
    <glyph glyph-name="uni00B2" unicode="&#xb2;" horiz-adv-x="346" 
d="M65 418l-9 71l99 99q9 8 22 21t23 29.5t10 33.5q0 16 -9 25.5t-26 9.5t-37.5 -12.5t-41.5 -41.5l-54 40q23 39 60 62.5t80 23.5q49 0 79.5 -28t30.5 -72q0 -28 -15 -53.5t-35 -47t-37 -37.5l-58 -56h149v-67h-231z" />
    <glyph glyph-name="uni00B3" unicode="&#xb3;" horiz-adv-x="342" 
d="M165 412q-28 0 -57.5 9.5t-50.5 24.5l33 55q36 -23 69 -23q28 0 45.5 14.5t17.5 39.5q0 20 -15.5 32.5t-41.5 12.5q-29 0 -56 -12l-21 57l95 82h-104v68h186l7 -66l-82 -68q50 -1 78.5 -29.5t28.5 -75.5q0 -53 -38 -87t-94 -34z" />
    <glyph glyph-name="acute" unicode="&#xb4;" horiz-adv-x="500" 
d="M180 606l-34 51l143 125l65 -82z" />
    <glyph glyph-name="uni00B5" unicode="&#xb5;" horiz-adv-x="586" 
d="M80 -157v682h97v-303q0 -142 107 -142q38 0 68.5 19t48.5 51.5t18 71.5v303h97v-525h-97v82q-21 -46 -62 -69t-88 -23q-27 0 -53 12.5t-39 32.5v-192h-97z" />
    <glyph glyph-name="paragraph" unicode="&#xb6;" horiz-adv-x="712" 
d="M246 0v279h-10q-54 0 -96.5 27t-67 73.5t-24.5 106.5q0 65 28 113t78.5 74.5t118.5 26.5h341v-700h-108v596h-152v-596h-108z" />
    <glyph glyph-name="periodcentered" unicode="&#xb7;" horiz-adv-x="228" 
d="M114 253q-33 0 -51 19.5t-18 55.5q0 33 19 54t50 21q33 0 51 -19.5t18 -55.5q0 -33 -19 -54t-50 -21z" />
    <glyph glyph-name="cedilla" unicode="&#xb8;" horiz-adv-x="500" 
d="M159 -244l-7 53q24 0 50 8t44 20.5t18 24.5q0 14 -17 22t-38 12t-35 4l-13 10l72 114h59l-43 -70q100 -21 100 -93q0 -34 -29.5 -58t-73.5 -36t-87 -11z" />
    <glyph glyph-name="uni00B9" unicode="&#xb9;" horiz-adv-x="281" 
d="M126 429v252l-44 -28l-35 66l98 58h56v-348h-75z" />
    <glyph glyph-name="ordmasculine" unicode="&#xba;" horiz-adv-x="354" 
d="M176 392q-45 0 -80 20.5t-55.5 56t-20.5 80.5q0 46 20.5 82.5t55.5 57.5t80 21t80.5 -21.5t56.5 -58t21 -81.5t-20.5 -80.5t-56.5 -56t-81 -20.5zM176 463q31 0 50 24t19 62q0 40 -19 65t-50 25t-49.5 -25t-18.5 -65q0 -38 19 -62t49 -24z" />
    <glyph glyph-name="guillemotright" unicode="&#xbb;" horiz-adv-x="484" 
d="M317 50l-63 45l115 165l-116 166l63 45l159 -207v-2zM101 50l-63 45l115 165l-116 166l63 45l159 -207v-2z" />
    <glyph glyph-name="onequarter" unicode="&#xbc;" horiz-adv-x="793" 
d="M133 359v252l-44 -28l-35 66l98 58h56v-348h-75zM111 0l463 700h103l-468 -700h-98zM690 -2h-75v83h-142l-17 69l168 206h66v-207h61v-68h-61v-83zM537 149h78v90z" />
    <glyph glyph-name="onehalf" unicode="&#xbd;" horiz-adv-x="785" 
d="M133 359v252l-44 -28l-35 66l98 58h56v-348h-75zM113 0l463 700h103l-468 -700h-98zM522 0l-9 71l99 99q9 8 22 21t23 29.5t10 33.5q0 16 -9 25.5t-26 9.5t-37.5 -12.5t-41.5 -41.5l-54 40q23 39 60 62.5t80 23.5q49 0 79.5 -28t30.5 -72q0 -28 -15 -53.5t-35 -47
t-37 -37.5l-58 -56h149v-67h-231z" />
    <glyph glyph-name="threequarters" unicode="&#xbe;" horiz-adv-x="791" 
d="M128 342q-28 0 -57.5 9.5t-50.5 24.5l33 55q36 -23 69 -23q28 0 45.5 14.5t17.5 39.5q0 20 -15.5 32.5t-41.5 12.5q-29 0 -56 -12l-21 57l95 82h-104v68h186l7 -66l-82 -68q50 -1 78.5 -29.5t28.5 -75.5q0 -53 -38 -87t-94 -34zM121 0l463 700h103l-468 -700h-98zM688 -2
h-75v83h-142l-17 69l168 206h66v-207h61v-68h-61v-83zM535 149h78v90z" />
    <glyph glyph-name="questiondown" unicode="&#xbf;" horiz-adv-x="511" 
d="M300 323l26 -141q-98 -26 -144.5 -64.5t-46.5 -94.5q0 -44 34 -72.5t85 -28.5q40 0 77.5 27.5t64.5 77.5l75 -63q-43 -66 -102.5 -102.5t-124.5 -36.5q-63 0 -113 26t-79.5 71t-29.5 101q0 44 24 85t65.5 73.5t94.5 51.5l17 90h77zM335 470q0 -33 -19 -54t-50 -21
q-33 0 -51 19.5t-18 55.5q0 33 19 54t50 21q33 0 51 -19.5t18 -55.5z" />
    <glyph glyph-name="Agrave" unicode="&#xc0;" horiz-adv-x="700" 
d="M25 0l271 700h110l269 -700h-115l-66 174h-293l-66 -174h-110zM294 418l-53 -140h214l-55 144q-3 7 -12 35t-20 62t-20 60q-8 -26 -18 -57t-19.5 -59t-16.5 -45zM426 755l-202 75l49 90l183 -113z" />
    <glyph glyph-name="Aacute" unicode="&#xc1;" horiz-adv-x="700" 
d="M25 0l271 700h110l269 -700h-115l-66 174h-293l-66 -174h-110zM294 418l-53 -140h214l-55 144q-3 7 -12 35t-20 62t-20 60q-8 -26 -18 -57t-19.5 -59t-16.5 -45zM282 755l-28 52l183 113l47 -90z" />
    <glyph glyph-name="Acircumflex" unicode="&#xc2;" horiz-adv-x="700" 
d="M25 0l271 700h110l269 -700h-115l-66 174h-293l-66 -174h-110zM294 418l-53 -140h214l-55 144q-3 7 -12 35t-20 62t-20 60q-8 -26 -18 -57t-19.5 -59t-16.5 -45zM226 755l-37 35l124 101h73l124 -101l-37 -35l-123 58z" />
    <glyph glyph-name="Atilde" unicode="&#xc3;" horiz-adv-x="700" 
d="M25 0l271 700h110l269 -700h-115l-66 174h-293l-66 -174h-110zM294 418l-53 -140h214l-55 144q-3 7 -12 35t-20 62t-20 60q-8 -26 -18 -57t-19.5 -59t-16.5 -45zM424 768q-23 0 -46.5 7.5t-44.5 15.5q-17 7 -29 11t-22 4q-30 0 -30 -38h-77q0 54 35 83.5t79 29.5
q21 0 41 -7t39 -15q14 -6 27.5 -10t22.5 -4q31 0 29 36h76q0 -44 -26.5 -78.5t-73.5 -34.5z" />
    <glyph glyph-name="Adieresis" unicode="&#xc4;" horiz-adv-x="700" 
d="M25 0l271 700h110l269 -700h-115l-66 174h-293l-66 -174h-110zM294 418l-53 -140h214l-55 144q-3 7 -12 35t-20 62t-20 60q-8 -26 -18 -57t-19.5 -59t-16.5 -45zM453 759q-35 0 -52 18t-17 47q0 25 17 45t52 20t52 -18t17 -47q0 -25 -17 -45t-52 -20zM247 759
q-35 0 -52 18t-17 47q0 25 17 45t52 20t52 -18t17 -47q0 -25 -17 -45t-52 -20z" />
    <glyph glyph-name="Aring" unicode="&#xc5;" horiz-adv-x="700" 
d="M25 0l271 700h110l269 -700h-115l-66 174h-293l-66 -174h-110zM294 418l-53 -140h214l-55 144q-3 7 -12 35t-20 62t-20 60q-8 -26 -18 -57t-19.5 -59t-16.5 -45zM349 679q-28 0 -53 14.5t-40.5 38.5t-15.5 52q0 30 15.5 54t40.5 38t53 14q29 0 54 -14t40.5 -38t15.5 -54
q0 -28 -15.5 -52t-40.5 -38.5t-54 -14.5zM349 738q21 0 35.5 13.5t14.5 32.5q0 23 -15 35t-35 12t-34.5 -13t-14.5 -34q0 -19 14.5 -32.5t34.5 -13.5z" />
    <glyph glyph-name="AE" unicode="&#xc6;" horiz-adv-x="969" 
d="M5 0l488 700h401v-93h-328v-205h283v-94h-283v-215h328v-93h-429v153h-246l-105 -153h-109zM465 245v268l-184 -268h184z" />
    <glyph glyph-name="Ccedilla" unicode="&#xc7;" horiz-adv-x="679" 
d="M382 -10q-97 0 -172.5 46t-118.5 127t-43 187q0 75 26.5 139.5t73.5 113.5t109 76t134 27q51 0 99.5 -15.5t88 -43t64.5 -62.5l-72 -75q-86 88 -180 88q-65 0 -118 -32t-84 -88t-31 -128q0 -77 30.5 -133t85 -87t126.5 -31q50 0 96 20t80 55l54 -88q-23 -27 -62.5 -49
t-88 -34.5t-97.5 -12.5zM284 -244l-7 53q24 0 50 8t44 20.5t18 24.5q0 14 -17 22t-38 12t-35 4l-13 10l72 114h59l-42 -70q99 -21 99 -93q0 -34 -29.5 -58t-73 -36t-87.5 -11z" />
    <glyph glyph-name="Egrave" unicode="&#xc8;" horiz-adv-x="614" 
d="M98 0v700h441v-104h-333v-185h278v-104h-278v-203h333v-104h-441zM403 755l-202 75l49 90l183 -113z" />
    <glyph glyph-name="Eacute" unicode="&#xc9;" horiz-adv-x="614" 
d="M98 0v700h441v-104h-333v-185h278v-104h-278v-203h333v-104h-441zM259 755l-28 52l183 113l47 -90z" />
    <glyph glyph-name="Ecircumflex" unicode="&#xca;" horiz-adv-x="614" 
d="M98 0v700h441v-104h-333v-185h278v-104h-278v-203h333v-104h-441zM203 755l-37 35l124 101h73l124 -101l-37 -35l-123 58z" />
    <glyph glyph-name="Edieresis" unicode="&#xcb;" horiz-adv-x="614" 
d="M98 0v700h441v-104h-333v-185h278v-104h-278v-203h333v-104h-441zM430 759q-35 0 -52 18t-17 47q0 25 17 45t52 20t52 -18t17 -47q0 -25 -17 -45t-52 -20zM224 759q-35 0 -52 18t-17 47q0 25 17 45t52 20t52 -18t17 -47q0 -25 -17 -45t-52 -20z" />
    <glyph glyph-name="Igrave" unicode="&#xcc;" horiz-adv-x="478" 
d="M72 0v100h113v500h-113v100h334v-100h-113v-500h113v-100h-334zM315 755l-202 75l49 90l183 -113z" />
    <glyph glyph-name="Iacute" unicode="&#xcd;" horiz-adv-x="478" 
d="M72 0v100h113v500h-113v100h334v-100h-113v-500h113v-100h-334zM171 755l-28 52l183 113l47 -90z" />
    <glyph glyph-name="Icircumflex" unicode="&#xce;" horiz-adv-x="478" 
d="M72 0v100h113v500h-113v100h334v-100h-113v-500h113v-100h-334zM115 755l-37 35l124 101h73l124 -101l-37 -35l-123 58z" />
    <glyph glyph-name="Idieresis" unicode="&#xcf;" horiz-adv-x="478" 
d="M72 0v100h113v500h-113v100h334v-100h-113v-500h113v-100h-334zM342 759q-35 0 -52 18t-17 47q0 25 17 45t52 20t52 -18t17 -47q0 -25 -17 -45t-52 -20zM136 759q-35 0 -52 18t-17 47q0 25 17 45t52 20t52 -18t17 -47q0 -25 -17 -45t-52 -20z" />
    <glyph glyph-name="Eth" unicode="&#xd0;" horiz-adv-x="748" 
d="M98 0v305h-49v90h49v305h274q100 0 173.5 -44t114 -123t40.5 -183q0 -105 -40 -183.5t-113.5 -122.5t-174.5 -44h-274zM317 305h-111v-201h161q106 0 164.5 65.5t58.5 180.5q0 114 -59 180t-164 66h-161v-201h111v-90z" />
    <glyph glyph-name="Ntilde" unicode="&#xd1;" horiz-adv-x="793" 
d="M98 0v700h97l407 -545q-8 61 -11.5 141t-3.5 174v230h108v-700h-99l-407 534q7 -87 11 -134.5t5 -71t1 -37.5v-291h-108zM471 768q-23 0 -46.5 7.5t-44.5 15.5q-17 7 -29 11t-22 4q-30 0 -30 -38h-77q0 54 35 83.5t79 29.5q21 0 41 -7t39 -15q14 -6 27.5 -10t22.5 -4
q31 0 29 36h76q0 -44 -26.5 -78.5t-73.5 -34.5z" />
    <glyph glyph-name="Ograve" unicode="&#xd2;" horiz-adv-x="782" 
d="M391 -10q-74 0 -136.5 27t-109 75.5t-72 114t-25.5 143.5t25.5 143.5t72 114t109 75.5t136.5 27t136.5 -27t109 -76t72 -114.5t25.5 -142.5t-25.5 -142.5t-72 -114.5t-109 -76t-136.5 -27zM391 95q67 0 120 33t83 91t30 131t-30 131t-83 91t-120 33q-68 0 -120.5 -33
t-82.5 -90.5t-30 -131.5t30 -131.5t82.5 -90.5t120.5 -33zM467 755l-202 75l49 90l183 -113z" />
    <glyph glyph-name="Oacute" unicode="&#xd3;" horiz-adv-x="782" 
d="M391 -10q-74 0 -136.5 27t-109 75.5t-72 114t-25.5 143.5t25.5 143.5t72 114t109 75.5t136.5 27t136.5 -27t109 -76t72 -114.5t25.5 -142.5t-25.5 -142.5t-72 -114.5t-109 -76t-136.5 -27zM391 95q67 0 120 33t83 91t30 131t-30 131t-83 91t-120 33q-68 0 -120.5 -33
t-82.5 -90.5t-30 -131.5t30 -131.5t82.5 -90.5t120.5 -33zM323 755l-28 52l183 113l47 -90z" />
    <glyph glyph-name="Ocircumflex" unicode="&#xd4;" horiz-adv-x="782" 
d="M391 -10q-74 0 -136.5 27t-109 75.5t-72 114t-25.5 143.5t25.5 143.5t72 114t109 75.5t136.5 27t136.5 -27t109 -76t72 -114.5t25.5 -142.5t-25.5 -142.5t-72 -114.5t-109 -76t-136.5 -27zM391 95q67 0 120 33t83 91t30 131t-30 131t-83 91t-120 33q-68 0 -120.5 -33
t-82.5 -90.5t-30 -131.5t30 -131.5t82.5 -90.5t120.5 -33zM267 755l-37 35l124 101h73l124 -101l-37 -35l-123 58z" />
    <glyph glyph-name="Otilde" unicode="&#xd5;" horiz-adv-x="782" 
d="M391 -10q-74 0 -136.5 27t-109 75.5t-72 114t-25.5 143.5t25.5 143.5t72 114t109 75.5t136.5 27t136.5 -27t109 -76t72 -114.5t25.5 -142.5t-25.5 -142.5t-72 -114.5t-109 -76t-136.5 -27zM391 95q67 0 120 33t83 91t30 131t-30 131t-83 91t-120 33q-68 0 -120.5 -33
t-82.5 -90.5t-30 -131.5t30 -131.5t82.5 -90.5t120.5 -33zM465 768q-23 0 -46.5 7.5t-44.5 15.5q-17 7 -29 11t-22 4q-30 0 -30 -38h-77q0 54 35 83.5t79 29.5q21 0 41 -7t39 -15q14 -6 27.5 -10t22.5 -4q31 0 29 36h76q0 -44 -26.5 -78.5t-73.5 -34.5z" />
    <glyph glyph-name="Odieresis" unicode="&#xd6;" horiz-adv-x="782" 
d="M391 -10q-74 0 -136.5 27t-109 75.5t-72 114t-25.5 143.5t25.5 143.5t72 114t109 75.5t136.5 27t136.5 -27t109 -76t72 -114.5t25.5 -142.5t-25.5 -142.5t-72 -114.5t-109 -76t-136.5 -27zM391 95q67 0 120 33t83 91t30 131t-30 131t-83 91t-120 33q-68 0 -120.5 -33
t-82.5 -90.5t-30 -131.5t30 -131.5t82.5 -90.5t120.5 -33zM494 759q-35 0 -52 18t-17 47q0 25 17 45t52 20t52 -18t17 -47q0 -25 -17 -45t-52 -20zM288 759q-35 0 -52 18t-17 47q0 25 17 45t52 20t52 -18t17 -47q0 -25 -17 -45t-52 -20z" />
    <glyph glyph-name="multiply" unicode="&#xd7;" horiz-adv-x="484" 
d="M98 71l-59 65l143 144l-147 146l64 60l145 -144l143 144l60 -64l-141 -142l143 -143l-64 -59l-141 140z" />
    <glyph glyph-name="Oslash" unicode="&#xd8;" horiz-adv-x="770" 
d="M123 -33l-63 53l71 87q-40 47 -62 109t-22 134q0 78 25.5 143.5t72 114t109 75.5t136.5 27q53 0 101 -14.5t88 -40.5l70 86l68 -47l-76 -93q43 -48 67.5 -112t24.5 -139q0 -77 -25.5 -142.5t-72 -114.5t-109 -76t-136.5 -27q-56 0 -106.5 16t-91.5 45zM157 350
q0 -45 11.5 -85t33.5 -72l308 378q-53 34 -120 34q-68 0 -120.5 -33t-82.5 -90.5t-30 -131.5zM390 95q67 0 120 33t83 91t30 131q0 48 -13.5 90.5t-38.5 74.5l-311 -381q57 -39 130 -39z" />
    <glyph glyph-name="Ugrave" unicode="&#xd9;" horiz-adv-x="740" 
d="M370 -6q-81 0 -145 35.5t-100.5 98t-36.5 141.5v432h108v-423q0 -51 24 -91.5t63.5 -64.5t86.5 -24q50 0 90.5 24t64.5 64.5t24 91.5v423h103v-432q0 -79 -36.5 -141.5t-100.5 -98t-145 -35.5zM446 755l-202 75l49 90l183 -113z" />
    <glyph glyph-name="Uacute" unicode="&#xda;" horiz-adv-x="740" 
d="M370 -6q-81 0 -145 35.5t-100.5 98t-36.5 141.5v432h108v-423q0 -51 24 -91.5t63.5 -64.5t86.5 -24q50 0 90.5 24t64.5 64.5t24 91.5v423h103v-432q0 -79 -36.5 -141.5t-100.5 -98t-145 -35.5zM302 755l-28 52l183 113l47 -90z" />
    <glyph glyph-name="Ucircumflex" unicode="&#xdb;" horiz-adv-x="740" 
d="M370 -6q-81 0 -145 35.5t-100.5 98t-36.5 141.5v432h108v-423q0 -51 24 -91.5t63.5 -64.5t86.5 -24q50 0 90.5 24t64.5 64.5t24 91.5v423h103v-432q0 -79 -36.5 -141.5t-100.5 -98t-145 -35.5zM246 755l-37 35l124 101h73l124 -101l-37 -35l-123 58z" />
    <glyph glyph-name="Udieresis" unicode="&#xdc;" horiz-adv-x="740" 
d="M370 -6q-81 0 -145 35.5t-100.5 98t-36.5 141.5v432h108v-423q0 -51 24 -91.5t63.5 -64.5t86.5 -24q50 0 90.5 24t64.5 64.5t24 91.5v423h103v-432q0 -79 -36.5 -141.5t-100.5 -98t-145 -35.5zM473 759q-35 0 -52 18t-17 47q0 25 17 45t52 20t52 -18t17 -47
q0 -25 -17 -45t-52 -20zM267 759q-35 0 -52 18t-17 47q0 25 17 45t52 20t52 -18t17 -47q0 -25 -17 -45t-52 -20z" />
    <glyph glyph-name="Yacute" unicode="&#xdd;" horiz-adv-x="660" 
d="M286 0v310l-276 390h130l202 -290l184 290h124l-256 -388v-312h-108zM262 755l-28 52l183 113l47 -90z" />
    <glyph glyph-name="Thorn" unicode="&#xde;" horiz-adv-x="634" 
d="M98 0v700h108v-127h177q57 0 103.5 -28.5t74.5 -77.5t28 -109t-28 -109.5t-74.5 -78.5t-103.5 -29h-177v-141h-108zM206 245h175q27 0 49 15.5t35.5 41t13.5 56.5q0 46 -29 78.5t-69 32.5h-175v-224z" />
    <glyph glyph-name="germandbls" unicode="&#xdf;" horiz-adv-x="664" 
d="M45 404v93h84v2q0 70 27.5 123t78 82.5t119.5 29.5q91 0 145 -44.5t54 -115.5q0 -41 -28 -77.5t-72 -55.5q76 -26 122.5 -90t46.5 -148q0 -61 -26 -109t-71 -76t-103 -28q-94 0 -147 67l52 55q27 -24 50 -34t47 -10q46 0 73.5 34t27.5 87q0 78 -43.5 125.5t-137.5 70.5
v65q113 50 113 115q0 37 -28.5 58t-78.5 21q-57 0 -90.5 -39t-33.5 -103v-502h-97v404h-84z" />
    <glyph glyph-name="agrave" unicode="&#xe0;" horiz-adv-x="633" 
d="M274 -10q-65 0 -118.5 36t-85.5 98t-32 140q0 79 32.5 140.5t88 96.5t124.5 35q59 0 104.5 -25.5t69.5 -65.5v80h104v-525h-104v81q-27 -38 -76.5 -64.5t-106.5 -26.5zM301 85q47 0 83 23t56.5 63.5t20.5 92.5q0 51 -20.5 91t-56.5 63t-83 23q-46 0 -81.5 -23t-56 -63
t-20.5 -91q0 -52 20.5 -92.5t56 -63.5t81.5 -23zM367 606l-174 94l65 82l143 -125z" />
    <glyph glyph-name="aacute" unicode="&#xe1;" horiz-adv-x="633" 
d="M274 -10q-65 0 -118.5 36t-85.5 98t-32 140q0 79 32.5 140.5t88 96.5t124.5 35q59 0 104.5 -25.5t69.5 -65.5v80h104v-525h-104v81q-27 -38 -76.5 -64.5t-106.5 -26.5zM301 85q47 0 83 23t56.5 63.5t20.5 92.5q0 51 -20.5 91t-56.5 63t-83 23q-46 0 -81.5 -23t-56 -63
t-20.5 -91q0 -52 20.5 -92.5t56 -63.5t81.5 -23zM247 606l-34 51l143 125l65 -82z" />
    <glyph glyph-name="acircumflex" unicode="&#xe2;" horiz-adv-x="633" 
d="M274 -10q-65 0 -118.5 36t-85.5 98t-32 140q0 79 32.5 140.5t88 96.5t124.5 35q59 0 104.5 -25.5t69.5 -65.5v80h104v-525h-104v81q-27 -38 -76.5 -64.5t-106.5 -26.5zM301 85q47 0 83 23t56.5 63.5t20.5 92.5q0 51 -20.5 91t-56.5 63t-83 23q-46 0 -81.5 -23t-56 -63
t-20.5 -91q0 -52 20.5 -92.5t56 -63.5t81.5 -23zM197 607l-38 33l115 113h86l115 -113l-38 -33l-120 65z" />
    <glyph glyph-name="atilde" unicode="&#xe3;" horiz-adv-x="633" 
d="M274 -10q-65 0 -118.5 36t-85.5 98t-32 140q0 79 32.5 140.5t88 96.5t124.5 35q59 0 104.5 -25.5t69.5 -65.5v80h104v-525h-104v81q-27 -38 -76.5 -64.5t-106.5 -26.5zM301 85q47 0 83 23t56.5 63.5t20.5 92.5q0 51 -20.5 91t-56.5 63t-83 23q-46 0 -81.5 -23t-56 -63
t-20.5 -91q0 -52 20.5 -92.5t56 -63.5t81.5 -23zM368 615q-20 0 -33.5 8t-28.5 20q-19 17 -28.5 23.5t-17.5 6.5q-29 0 -37 -58l-68 10q2 49 31.5 85t78.5 36q20 0 33.5 -8t28.5 -20q20 -16 29 -23t17 -7q29 0 37 58l68 -10q-2 -49 -31.5 -85t-78.5 -36z" />
    <glyph glyph-name="adieresis" unicode="&#xe4;" horiz-adv-x="633" 
d="M274 -10q-65 0 -118.5 36t-85.5 98t-32 140q0 79 32.5 140.5t88 96.5t124.5 35q59 0 104.5 -25.5t69.5 -65.5v80h104v-525h-104v81q-27 -38 -76.5 -64.5t-106.5 -26.5zM301 85q47 0 83 23t56.5 63.5t20.5 92.5q0 51 -20.5 91t-56.5 63t-83 23q-46 0 -81.5 -23t-56 -63
t-20.5 -91q0 -52 20.5 -92.5t56 -63.5t81.5 -23zM417 642q-33 0 -51 17t-18 48q0 29 18.5 47t50.5 18q33 0 51 -17t18 -48q0 -29 -18.5 -47t-50.5 -18zM217 642q-33 0 -51 17t-18 48q0 29 18.5 47t50.5 18q33 0 51 -17t18 -48q0 -29 -18.5 -47t-50.5 -18z" />
    <glyph glyph-name="aring" unicode="&#xe5;" horiz-adv-x="633" 
d="M274 -10q-65 0 -118.5 36t-85.5 98t-32 140q0 79 32.5 140.5t88 96.5t124.5 35q59 0 104.5 -25.5t69.5 -65.5v80h104v-525h-104v81q-27 -38 -76.5 -64.5t-106.5 -26.5zM301 85q47 0 83 23t56.5 63.5t20.5 92.5q0 51 -20.5 91t-56.5 63t-83 23q-46 0 -81.5 -23t-56 -63
t-20.5 -91q0 -52 20.5 -92.5t56 -63.5t81.5 -23zM316 604q-28 0 -53 14.5t-40.5 38.5t-15.5 52q0 29 15 53t40 38.5t54 14.5q30 0 55 -14.5t40 -38.5t15 -53q0 -28 -15 -52t-40 -38.5t-55 -14.5zM316 663q21 0 35.5 13.5t14.5 32.5q0 21 -14.5 34t-35.5 13t-35 -13.5
t-14 -33.5q0 -19 14.5 -32.5t34.5 -13.5z" />
    <glyph glyph-name="ae" unicode="&#xe6;" horiz-adv-x="899" 
d="M216 -10q-51 0 -91 20t-63.5 55.5t-23.5 83.5q0 84 60 127.5t176 42.5h99v37q0 37 -33.5 61t-77.5 24q-87 0 -144 -73l-67 67q43 49 97 75t116 26q66 0 113 -19.5t70 -56.5q33 36 77.5 56t96.5 20q68 -1 122 -34t85 -90.5t31 -130.5l-1 -44h-390q6 -45 32 -79.5t65.5 -54
t88.5 -19.5q39 0 72.5 13t72.5 47l50 -75q-36 -35 -93 -57t-112 -22q-73 0 -130 28t-93 77q-35 -47 -90 -76t-115 -29zM621 441q-127 0 -150 -122h283v7q-3 33 -22 59t-48 41t-63 15zM220 78q54 0 99.5 27t65.5 67q-9 31 -11 65h-113q-61 0 -93.5 -22.5t-32.5 -63.5
q0 -33 24 -53t61 -20z" />
    <glyph glyph-name="ccedilla" unicode="&#xe7;" horiz-adv-x="535" 
d="M295 -10q-73 0 -130.5 36t-91 98t-33.5 139t33.5 139t91 98t130.5 36q70 0 127.5 -28.5t87.5 -77.5l-57 -70q-24 35 -66.5 59t-81.5 24q-48 0 -85.5 -23.5t-59.5 -64.5t-22 -92t23 -91.5t61 -64.5t84 -24q81 0 147 80l57 -70q-32 -45 -91.5 -74t-123.5 -29zM204 -244
l-7 53q24 0 50 8t44 20.5t18 24.5q0 14 -17 22t-38 12t-35 4l-13 10l72 114h59l-43 -70q100 -21 100 -93q0 -34 -29.5 -58t-73.5 -36t-87 -11z" />
    <glyph glyph-name="egrave" unicode="&#xe8;" horiz-adv-x="586" 
d="M317 -10q-81 0 -143.5 34.5t-98 94.5t-35.5 138q0 83 34.5 145.5t95 98t138.5 36.5q68 -1 122.5 -34t86 -90t29.5 -131l-1 -44h-402q9 -71 58.5 -112.5t125.5 -41.5q39 0 72.5 13t72.5 47l52 -73q-37 -36 -94 -58.5t-113 -22.5zM308 442q-135 0 -161 -122h294v7
q-3 33 -22 59t-48 41t-63 15zM358 606l-174 94l65 82l143 -125z" />
    <glyph glyph-name="eacute" unicode="&#xe9;" horiz-adv-x="586" 
d="M317 -10q-81 0 -143.5 34.5t-98 94.5t-35.5 138q0 83 34.5 145.5t95 98t138.5 36.5q68 -1 122.5 -34t86 -90t29.5 -131l-1 -44h-402q9 -71 58.5 -112.5t125.5 -41.5q39 0 72.5 13t72.5 47l52 -73q-37 -36 -94 -58.5t-113 -22.5zM308 442q-135 0 -161 -122h294v7
q-3 33 -22 59t-48 41t-63 15zM238 606l-34 51l143 125l65 -82z" />
    <glyph glyph-name="ecircumflex" unicode="&#xea;" horiz-adv-x="586" 
d="M317 -10q-81 0 -143.5 34.5t-98 94.5t-35.5 138q0 83 34.5 145.5t95 98t138.5 36.5q68 -1 122.5 -34t86 -90t29.5 -131l-1 -44h-402q9 -71 58.5 -112.5t125.5 -41.5q39 0 72.5 13t72.5 47l52 -73q-37 -36 -94 -58.5t-113 -22.5zM308 442q-135 0 -161 -122h294v7
q-3 33 -22 59t-48 41t-63 15zM188 607l-38 33l115 113h86l115 -113l-38 -33l-120 65z" />
    <glyph glyph-name="edieresis" unicode="&#xeb;" horiz-adv-x="586" 
d="M317 -10q-81 0 -143.5 34.5t-98 94.5t-35.5 138q0 83 34.5 145.5t95 98t138.5 36.5q68 -1 122.5 -34t86 -90t29.5 -131l-1 -44h-402q9 -71 58.5 -112.5t125.5 -41.5q39 0 72.5 13t72.5 47l52 -73q-37 -36 -94 -58.5t-113 -22.5zM308 442q-135 0 -161 -122h294v7
q-3 33 -22 59t-48 41t-63 15zM408 642q-33 0 -51 17t-18 48q0 29 18.5 47t50.5 18q33 0 51 -17t18 -48q0 -29 -18.5 -47t-50.5 -18zM208 642q-33 0 -51 17t-18 48q0 29 18.5 47t50.5 18q33 0 51 -17t18 -48q0 -29 -18.5 -47t-50.5 -18z" />
    <glyph glyph-name="igrave" unicode="&#xec;" horiz-adv-x="243" 
d="M72 0v525h103v-525h-103zM172 606l-174 94l65 82l143 -125z" />
    <glyph glyph-name="iacute" unicode="&#xed;" horiz-adv-x="243" 
d="M72 0v525h103v-525h-103zM52 606l-34 51l143 125l65 -82z" />
    <glyph glyph-name="icircumflex" unicode="&#xee;" horiz-adv-x="243" 
d="M72 0v525h103v-525h-103zM2 607l-38 33l115 113h86l115 -113l-38 -33l-120 65z" />
    <glyph glyph-name="idieresis" unicode="&#xef;" horiz-adv-x="243" 
d="M72 0v525h103v-525h-103zM222 642q-33 0 -51 17t-18 48q0 29 18.5 47t50.5 18q33 0 51 -17t18 -48q0 -29 -18.5 -47t-50.5 -18zM22 642q-33 0 -51 17t-18 48q0 29 18.5 47t50.5 18q33 0 51 -17t18 -48q0 -29 -18.5 -47t-50.5 -18z" />
    <glyph glyph-name="eth" unicode="&#xf0;" horiz-adv-x="574" 
d="M287 -7q-69 0 -125 36t-89 97t-33 136q0 54 19 102t52 85t75.5 58t88.5 21q74 0 125 -48q-18 54 -57 92l-187 -44l-13 65l123 31q-41 21 -97 38l42 78q96 -23 167 -82l111 25l18 -66l-73 -17q48 -60 74 -140.5t26 -178.5q0 -85 -31.5 -150t-87.5 -101.5t-128 -36.5z
M287 89q42 0 76 23t54 62t20 88q0 47 -20 85.5t-54 61.5t-76 23t-76 -22.5t-54 -61t-20 -86.5q0 -49 20 -88t54 -62t76 -23z" />
    <glyph glyph-name="ntilde" unicode="&#xf1;" horiz-adv-x="595" 
d="M72 0v525h103v-82q26 39 73.5 66t98.5 27q180 0 180 -216v-320h-103v313q0 135 -111 129q-39 0 -70.5 -16.5t-49.5 -44.5t-18 -63v-318h-103zM379 615q-20 0 -33.5 8t-28.5 20q-19 17 -28.5 23.5t-17.5 6.5q-29 0 -37 -58l-68 10q2 49 31.5 85t78.5 36q20 0 33.5 -8
t28.5 -20q20 -16 29 -23t17 -7q29 0 37 58l68 -10q-2 -49 -31.5 -85t-78.5 -36z" />
    <glyph glyph-name="ograve" unicode="&#xf2;" horiz-adv-x="615" 
d="M308 -10q-77 0 -137.5 35.5t-95.5 97t-35 140.5t35 140.5t95.5 97t137.5 35.5q76 0 136.5 -35.5t95.5 -97t35 -140.5t-35 -140.5t-95.5 -97t-136.5 -35.5zM308 84q47 0 84 23.5t58 64t20 91.5q1 52 -20 92.5t-58 63.5t-84 23t-84.5 -23.5t-58.5 -64t-20 -91.5
q-1 -51 20 -91.5t58.5 -64t84.5 -23.5zM358 606l-174 94l65 82l143 -125z" />
    <glyph glyph-name="oacute" unicode="&#xf3;" horiz-adv-x="615" 
d="M308 -10q-77 0 -137.5 35.5t-95.5 97t-35 140.5t35 140.5t95.5 97t137.5 35.5q76 0 136.5 -35.5t95.5 -97t35 -140.5t-35 -140.5t-95.5 -97t-136.5 -35.5zM308 84q47 0 84 23.5t58 64t20 91.5q1 52 -20 92.5t-58 63.5t-84 23t-84.5 -23.5t-58.5 -64t-20 -91.5
q-1 -51 20 -91.5t58.5 -64t84.5 -23.5zM238 606l-34 51l143 125l65 -82z" />
    <glyph glyph-name="ocircumflex" unicode="&#xf4;" horiz-adv-x="615" 
d="M308 -10q-77 0 -137.5 35.5t-95.5 97t-35 140.5t35 140.5t95.5 97t137.5 35.5q76 0 136.5 -35.5t95.5 -97t35 -140.5t-35 -140.5t-95.5 -97t-136.5 -35.5zM308 84q47 0 84 23.5t58 64t20 91.5q1 52 -20 92.5t-58 63.5t-84 23t-84.5 -23.5t-58.5 -64t-20 -91.5
q-1 -51 20 -91.5t58.5 -64t84.5 -23.5zM188 607l-38 33l115 113h86l115 -113l-38 -33l-120 65z" />
    <glyph glyph-name="otilde" unicode="&#xf5;" horiz-adv-x="615" 
d="M308 -10q-77 0 -137.5 35.5t-95.5 97t-35 140.5t35 140.5t95.5 97t137.5 35.5q76 0 136.5 -35.5t95.5 -97t35 -140.5t-35 -140.5t-95.5 -97t-136.5 -35.5zM308 84q47 0 84 23.5t58 64t20 91.5q1 52 -20 92.5t-58 63.5t-84 23t-84.5 -23.5t-58.5 -64t-20 -91.5
q-1 -51 20 -91.5t58.5 -64t84.5 -23.5zM359 615q-20 0 -33.5 8t-28.5 20q-19 17 -28.5 23.5t-17.5 6.5q-29 0 -37 -58l-68 10q2 49 31.5 85t78.5 36q20 0 33.5 -8t28.5 -20q20 -16 29 -23t17 -7q29 0 37 58l68 -10q-2 -49 -31.5 -85t-78.5 -36z" />
    <glyph glyph-name="odieresis" unicode="&#xf6;" horiz-adv-x="615" 
d="M308 -10q-77 0 -137.5 35.5t-95.5 97t-35 140.5t35 140.5t95.5 97t137.5 35.5q76 0 136.5 -35.5t95.5 -97t35 -140.5t-35 -140.5t-95.5 -97t-136.5 -35.5zM308 84q47 0 84 23.5t58 64t20 91.5q1 52 -20 92.5t-58 63.5t-84 23t-84.5 -23.5t-58.5 -64t-20 -91.5
q-1 -51 20 -91.5t58.5 -64t84.5 -23.5zM408 642q-33 0 -51 17t-18 48q0 29 18.5 47t50.5 18q33 0 51 -17t18 -48q0 -29 -18.5 -47t-50.5 -18zM208 642q-33 0 -51 17t-18 48q0 29 18.5 47t50.5 18q33 0 51 -17t18 -48q0 -29 -18.5 -47t-50.5 -18z" />
    <glyph glyph-name="divide" unicode="&#xf7;" horiz-adv-x="597" 
d="M293 372q-27 0 -46.5 19t-19.5 45q0 27 19.5 46.5t46.5 19.5t46 -19.5t19 -46.5q0 -26 -19.5 -45t-45.5 -19zM50 215v90h497v-90h-497zM293 15q-27 0 -46.5 19t-19.5 46t19.5 46t46.5 19t46 -19t19 -46t-19 -46t-46 -19z" />
    <glyph glyph-name="oslash" unicode="&#xf8;" horiz-adv-x="615" 
d="M107 -35l-66 48l61 71q-30 35 -46 80.5t-16 98.5q0 79 35 140.5t95.5 97t137.5 35.5q40 0 76.5 -10.5t67.5 -29.5l42 49l67 -49l-47 -55q29 -35 45 -80.5t16 -97.5q0 -79 -35 -140.5t-95.5 -97t-136.5 -35.5q-41 0 -77.5 10.5t-67.5 29.5zM145 263q-1 -55 24 -99l219 257
q-36 21 -80 21q-47 0 -84.5 -23.5t-58.5 -64t-20 -91.5zM308 84q47 0 84 23.5t58 64t20 91.5q1 55 -24 99l-219 -257q37 -21 81 -21z" />
    <glyph glyph-name="ugrave" unicode="&#xf9;" horiz-adv-x="605" 
d="M256 -10q-84 0 -134 57t-50 154v324h103v-296q0 -69 32.5 -109t90.5 -40q57 0 94.5 36t37.5 93v316h103v-525h-103v84q-26 -42 -72.5 -68t-101.5 -26zM353 606l-174 94l65 82l143 -125z" />
    <glyph glyph-name="uacute" unicode="&#xfa;" horiz-adv-x="605" 
d="M256 -10q-84 0 -134 57t-50 154v324h103v-296q0 -69 32.5 -109t90.5 -40q57 0 94.5 36t37.5 93v316h103v-525h-103v84q-26 -42 -72.5 -68t-101.5 -26zM233 606l-34 51l143 125l65 -82z" />
    <glyph glyph-name="ucircumflex" unicode="&#xfb;" horiz-adv-x="605" 
d="M256 -10q-84 0 -134 57t-50 154v324h103v-296q0 -69 32.5 -109t90.5 -40q57 0 94.5 36t37.5 93v316h103v-525h-103v84q-26 -42 -72.5 -68t-101.5 -26zM183 607l-38 33l115 113h86l115 -113l-38 -33l-120 65z" />
    <glyph glyph-name="udieresis" unicode="&#xfc;" horiz-adv-x="605" 
d="M256 -10q-84 0 -134 57t-50 154v324h103v-296q0 -69 32.5 -109t90.5 -40q57 0 94.5 36t37.5 93v316h103v-525h-103v84q-26 -42 -72.5 -68t-101.5 -26zM403 642q-33 0 -51 17t-18 48q0 29 18.5 47t50.5 18q33 0 51 -17t18 -48q0 -29 -18.5 -47t-50.5 -18zM203 642
q-33 0 -51 17t-18 48q0 29 18.5 47t50.5 18q33 0 51 -17t18 -48q0 -29 -18.5 -47t-50.5 -18z" />
    <glyph glyph-name="yacute" unicode="&#xfd;" horiz-adv-x="581" 
d="M160 -230l89 205l-244 550h120l164 -386q5 -11 13 -35l15 42l137 379h122l-216 -525l-89 -230h-111zM221 606l-34 51l143 125l65 -82z" />
    <glyph glyph-name="thorn" unicode="&#xfe;" horiz-adv-x="631" 
d="M72 -220v960h104v-290q24 34 71.5 59t98.5 25q71 0 126 -35t87 -96t32 -140q0 -78 -31.5 -139.5t-86.5 -97t-124 -35.5q-51 0 -98 23t-75 55v-289h-104zM332 86q46 0 82 23t57 63t21 91t-20.5 90.5t-56.5 62.5t-83 23t-83 -22.5t-57 -62.5t-21 -91t21 -91t57 -63t83 -23z
" />
    <glyph glyph-name="ydieresis" unicode="&#xff;" horiz-adv-x="581" 
d="M160 -230l89 205l-244 550h120l164 -386q5 -11 13 -35l15 42l137 379h122l-216 -525l-89 -230h-111zM391 642q-33 0 -51 17t-18 48q0 29 18.5 47t50.5 18q33 0 51 -17t18 -48q0 -29 -18.5 -47t-50.5 -18zM191 642q-33 0 -51 17t-18 48q0 29 18.5 47t50.5 18q33 0 51 -17
t18 -48q0 -29 -18.5 -47t-50.5 -18z" />
    <glyph glyph-name="Amacron" unicode="&#x100;" horiz-adv-x="700" 
d="M25 0l271 700h110l269 -700h-115l-66 174h-293l-66 -174h-110zM294 418l-53 -140h214l-55 144q-3 7 -12 35t-20 62t-20 60q-8 -26 -18 -57t-19.5 -59t-16.5 -45zM184 787v75h331v-75h-331z" />
    <glyph glyph-name="amacron" unicode="&#x101;" horiz-adv-x="633" 
d="M274 -10q-65 0 -118.5 36t-85.5 98t-32 140q0 79 32.5 140.5t88 96.5t124.5 35q59 0 104.5 -25.5t69.5 -65.5v80h104v-525h-104v81q-27 -38 -76.5 -64.5t-106.5 -26.5zM301 85q47 0 83 23t56.5 63.5t20.5 92.5q0 51 -20.5 91t-56.5 63t-83 23q-46 0 -81.5 -23t-56 -63
t-20.5 -91q0 -52 20.5 -92.5t56 -63.5t81.5 -23zM175 642v75h284v-75h-284z" />
    <glyph glyph-name="Abreve" unicode="&#x102;" horiz-adv-x="700" 
d="M25 0l271 700h110l269 -700h-115l-66 174h-293l-66 -174h-110zM294 418l-53 -140h214l-55 144q-3 7 -12 35t-20 62t-20 60q-8 -26 -18 -57t-19.5 -59t-16.5 -45zM350 751q-41 0 -74.5 18.5t-56 49t-31.5 66.5l74 12q11 -25 34 -45t54 -20t54 20t34 45l74 -12
q-8 -36 -31 -66.5t-56 -49t-75 -18.5z" />
    <glyph glyph-name="abreve" unicode="&#x103;" horiz-adv-x="633" 
d="M274 -10q-65 0 -118.5 36t-85.5 98t-32 140q0 79 32.5 140.5t88 96.5t124.5 35q59 0 104.5 -25.5t69.5 -65.5v80h104v-525h-104v81q-27 -38 -76.5 -64.5t-106.5 -26.5zM301 85q47 0 83 23t56.5 63.5t20.5 92.5q0 51 -20.5 91t-56.5 63t-83 23q-46 0 -81.5 -23t-56 -63
t-20.5 -91q0 -52 20.5 -92.5t56 -63.5t81.5 -23zM317 589q-64 0 -106 41.5t-56 112.5l74 12q13 -39 35.5 -62t52.5 -23t52.5 23t35.5 62l74 -12q-14 -71 -56 -112.5t-106 -41.5z" />
    <glyph glyph-name="Aogonek" unicode="&#x104;" horiz-adv-x="700" 
d="M25 0l271 700h110l269 -700h-115l-66 174h-293l-66 -174h-110zM294 418l-53 -140h214l-55 144q-3 7 -12 35t-20 62t-20 60q-8 -26 -18 -57t-19.5 -59t-16.5 -45zM585 -200q-29 0 -54 14t-40 37.5t-15 51.5q0 50 41.5 89t113.5 59l44 -51q-44 -10 -76 -35t-32 -52
q0 -16 9.5 -26t24.5 -10q20 0 37 25l56 -40q-10 -25 -41.5 -43.5t-67.5 -18.5z" />
    <glyph glyph-name="aogonek" unicode="&#x105;" horiz-adv-x="633" 
d="M274 -10q-65 0 -118.5 36t-85.5 98t-32 140q0 79 32.5 140.5t88 96.5t124.5 35q59 0 104.5 -25.5t69.5 -65.5v80h104v-525h-104v81q-27 -38 -76.5 -64.5t-106.5 -26.5zM301 85q47 0 83 23t56.5 63.5t20.5 92.5q0 51 -20.5 91t-56.5 63t-83 23q-46 0 -81.5 -23t-56 -63
t-20.5 -91q0 -52 20.5 -92.5t56 -63.5t81.5 -23zM471 -200q-29 0 -54 14t-40 37.5t-15 51.5q0 50 43 83t123 55l33 -41q-44 -10 -76 -35t-32 -52q0 -16 9.5 -26t24.5 -10q20 0 37 25l56 -40q-10 -25 -38 -43.5t-71 -18.5z" />
    <glyph glyph-name="Cacute" unicode="&#x106;" horiz-adv-x="679" 
d="M382 -10q-97 0 -172.5 46t-118.5 127t-43 187q0 75 26.5 139.5t73.5 113.5t109 76t134 27q51 0 99.5 -15.5t88 -43t64.5 -62.5l-72 -75q-86 88 -180 88q-65 0 -118 -32t-84 -88t-31 -128q0 -77 30.5 -133t85 -87t126.5 -31q50 0 96 20t80 55l54 -88q-23 -27 -62.5 -49
t-88 -34.5t-97.5 -12.5zM322 755l-28 52l183 113l47 -90z" />
    <glyph glyph-name="cacute" unicode="&#x107;" horiz-adv-x="535" 
d="M295 -10q-73 0 -130.5 36t-91 98t-33.5 139t33.5 139t91 98t130.5 36q70 0 127.5 -28.5t87.5 -77.5l-57 -70q-24 35 -66.5 59t-81.5 24q-48 0 -85.5 -23.5t-59.5 -64.5t-22 -92t23 -91.5t61 -64.5t84 -24q81 0 147 80l57 -70q-32 -45 -91.5 -74t-123.5 -29zM225 606
l-34 51l143 125l65 -82z" />
    <glyph glyph-name="Ccircumflex" unicode="&#x108;" horiz-adv-x="679" 
d="M382 -10q-97 0 -172.5 46t-118.5 127t-43 187q0 75 26.5 139.5t73.5 113.5t109 76t134 27q51 0 99.5 -15.5t88 -43t64.5 -62.5l-72 -75q-86 88 -180 88q-65 0 -118 -32t-84 -88t-31 -128q0 -77 30.5 -133t85 -87t126.5 -31q50 0 96 20t80 55l54 -88q-23 -27 -62.5 -49
t-88 -34.5t-97.5 -12.5zM266 755l-37 35l124 101h73l124 -101l-37 -35l-123 58z" />
    <glyph glyph-name="ccircumflex" unicode="&#x109;" horiz-adv-x="535" 
d="M295 -10q-73 0 -130.5 36t-91 98t-33.5 139t33.5 139t91 98t130.5 36q70 0 127.5 -28.5t87.5 -77.5l-57 -70q-24 35 -66.5 59t-81.5 24q-48 0 -85.5 -23.5t-59.5 -64.5t-22 -92t23 -91.5t61 -64.5t84 -24q81 0 147 80l57 -70q-32 -45 -91.5 -74t-123.5 -29zM175 607
l-38 33l115 113h86l115 -113l-38 -33l-120 65z" />
    <glyph glyph-name="Cdotaccent" unicode="&#x10a;" horiz-adv-x="679" 
d="M382 -10q-97 0 -172.5 46t-118.5 127t-43 187q0 75 26.5 139.5t73.5 113.5t109 76t134 27q51 0 99.5 -15.5t88 -43t64.5 -62.5l-72 -75q-86 88 -180 88q-65 0 -118 -32t-84 -88t-31 -128q0 -77 30.5 -133t85 -87t126.5 -31q50 0 96 20t80 55l54 -88q-23 -27 -62.5 -49
t-88 -34.5t-97.5 -12.5zM390 759q-35 0 -52 18t-17 47q0 25 17 45t52 20t52 -18t17 -47q0 -25 -17 -45t-52 -20z" />
    <glyph glyph-name="cdotaccent" unicode="&#x10b;" horiz-adv-x="535" 
d="M295 -10q-73 0 -130.5 36t-91 98t-33.5 139t33.5 139t91 98t130.5 36q70 0 127.5 -28.5t87.5 -77.5l-57 -70q-24 35 -66.5 59t-81.5 24q-48 0 -85.5 -23.5t-59.5 -64.5t-22 -92t23 -91.5t61 -64.5t84 -24q81 0 147 80l57 -70q-32 -45 -91.5 -74t-123.5 -29zM295 641
q-33 0 -51 17t-18 48q0 29 18.5 47t50.5 18q33 0 51 -17t18 -48q0 -29 -18.5 -47t-50.5 -18z" />
    <glyph glyph-name="Ccaron" unicode="&#x10c;" horiz-adv-x="679" 
d="M382 -10q-97 0 -172.5 46t-118.5 127t-43 187q0 75 26.5 139.5t73.5 113.5t109 76t134 27q51 0 99.5 -15.5t88 -43t64.5 -62.5l-72 -75q-86 88 -180 88q-65 0 -118 -32t-84 -88t-31 -128q0 -77 30.5 -133t85 -87t126.5 -31q50 0 96 20t80 55l54 -88q-23 -27 -62.5 -49
t-88 -34.5t-97.5 -12.5zM347 757l-120 103l38 33l125 -56l125 56l38 -33l-120 -103h-86z" />
    <glyph glyph-name="ccaron" unicode="&#x10d;" horiz-adv-x="535" 
d="M295 -10q-73 0 -130.5 36t-91 98t-33.5 139t33.5 139t91 98t130.5 36q70 0 127.5 -28.5t87.5 -77.5l-57 -70q-24 35 -66.5 59t-81.5 24q-48 0 -85.5 -23.5t-59.5 -64.5t-22 -92t23 -91.5t61 -64.5t84 -24q81 0 147 80l57 -70q-32 -45 -91.5 -74t-123.5 -29zM252 607
l-105 113l38 33l110 -64l110 64l38 -33l-105 -113h-86z" />
    <glyph glyph-name="Dcaron" unicode="&#x10e;" horiz-adv-x="748" 
d="M98 0v700h274q100 0 173.5 -44t114 -123t40.5 -183q0 -105 -40 -183.5t-113.5 -122.5t-174.5 -44h-274zM367 596h-161v-492h161q106 0 164.5 65.5t58.5 180.5q0 114 -59 180t-164 66zM331 757l-120 103l38 33l125 -56l125 56l38 -33l-120 -103h-86z" />
    <glyph glyph-name="dcaron" unicode="&#x10f;" horiz-adv-x="653" 
d="M291 -10q-72 0 -128.5 35.5t-89.5 97t-33 140.5t32.5 140.5t88.5 97t127 35.5q52 0 98.5 -22t74.5 -54v280h103v-740h-103v72q-24 -34 -71 -58t-99 -24zM305 79q47 0 83 24t56.5 65.5t20.5 94.5t-20.5 94.5t-56.5 65.5t-83 24t-83 -24t-56.5 -65.5t-20.5 -94.5
t20.5 -94.5t56.5 -65.5t83 -24zM638 542l-24 42q21 5 37.5 21t16.5 31q0 6 -3.5 10t-15.5 7q-18 5 -24 14t-6 24q0 22 18 35.5t47 13.5q33 0 55.5 -21t22.5 -56q0 -38 -34 -70t-90 -51z" />
    <glyph glyph-name="Dcroat" unicode="&#x110;" horiz-adv-x="748" 
d="M98 0v305h-49v90h49v305h274q100 0 173.5 -44t114 -123t40.5 -183q0 -105 -40 -183.5t-113.5 -122.5t-174.5 -44h-274zM317 305h-111v-201h161q106 0 164.5 65.5t58.5 180.5q0 114 -59 180t-164 66h-161v-201h111v-90z" />
    <glyph glyph-name="dcroat" unicode="&#x111;" horiz-adv-x="634" 
d="M291 -10q-72 0 -128.5 35.5t-89.5 97t-33 140.5t32.5 140.5t88.5 97t127 35.5q52 0 98.5 -22t74.5 -54v129h-95v90h95v61h103v-61h70v-90h-70v-589h-103v72q-24 -34 -71 -58t-99 -24zM305 79q47 0 83 24t56.5 65.5t20.5 94.5t-20.5 94.5t-56.5 65.5t-83 24t-83 -24
t-56.5 -65.5t-20.5 -94.5t20.5 -94.5t56.5 -65.5t83 -24z" />
    <glyph glyph-name="Emacron" unicode="&#x112;" horiz-adv-x="614" 
d="M98 0v700h441v-104h-333v-185h278v-104h-278v-203h333v-104h-441zM161 787v75h331v-75h-331z" />
    <glyph glyph-name="emacron" unicode="&#x113;" horiz-adv-x="586" 
d="M317 -10q-81 0 -143.5 34.5t-98 94.5t-35.5 138q0 83 34.5 145.5t95 98t138.5 36.5q68 -1 122.5 -34t86 -90t29.5 -131l-1 -44h-402q9 -71 58.5 -112.5t125.5 -41.5q39 0 72.5 13t72.5 47l52 -73q-37 -36 -94 -58.5t-113 -22.5zM308 442q-135 0 -161 -122h294v7
q-3 33 -22 59t-48 41t-63 15zM166 642v75h284v-75h-284z" />
    <glyph glyph-name="Ebreve" unicode="&#x114;" horiz-adv-x="614" 
d="M98 0v700h441v-104h-333v-185h278v-104h-278v-203h333v-104h-441zM327 751q-41 0 -74.5 18.5t-56 49t-31.5 66.5l74 12q11 -25 34 -45t54 -20t54 20t34 45l74 -12q-8 -36 -31 -66.5t-56 -49t-75 -18.5z" />
    <glyph glyph-name="ebreve" unicode="&#x115;" horiz-adv-x="586" 
d="M317 -10q-81 0 -143.5 34.5t-98 94.5t-35.5 138q0 83 34.5 145.5t95 98t138.5 36.5q68 -1 122.5 -34t86 -90t29.5 -131l-1 -44h-402q9 -71 58.5 -112.5t125.5 -41.5q39 0 72.5 13t72.5 47l52 -73q-37 -36 -94 -58.5t-113 -22.5zM308 442q-135 0 -161 -122h294v7
q-3 33 -22 59t-48 41t-63 15zM308 589q-64 0 -106 41.5t-56 112.5l74 12q13 -39 35.5 -62t52.5 -23t52.5 23t35.5 62l74 -12q-14 -71 -56 -112.5t-106 -41.5z" />
    <glyph glyph-name="Edotaccent" unicode="&#x116;" horiz-adv-x="614" 
d="M98 0v700h441v-104h-333v-185h278v-104h-278v-203h333v-104h-441zM327 759q-35 0 -52 18t-17 47q0 25 17 45t52 20t52 -18t17 -47q0 -25 -17 -45t-52 -20z" />
    <glyph glyph-name="edotaccent" unicode="&#x117;" horiz-adv-x="586" 
d="M317 -10q-81 0 -143.5 34.5t-98 94.5t-35.5 138q0 83 34.5 145.5t95 98t138.5 36.5q68 -1 122.5 -34t86 -90t29.5 -131l-1 -44h-402q9 -71 58.5 -112.5t125.5 -41.5q39 0 72.5 13t72.5 47l52 -73q-37 -36 -94 -58.5t-113 -22.5zM308 442q-135 0 -161 -122h294v7
q-3 33 -22 59t-48 41t-63 15zM308 641q-33 0 -51 17t-18 48q0 29 18.5 47t50.5 18q33 0 51 -17t18 -48q0 -29 -18.5 -47t-50.5 -18z" />
    <glyph glyph-name="Eogonek" unicode="&#x118;" horiz-adv-x="614" 
d="M98 0v700h441v-104h-333v-185h278v-104h-278v-203h333v-104h-441zM419 -200q-29 0 -54 14t-40 37.5t-15 51.5q0 50 41.5 89t113.5 59l44 -51q-44 -10 -76 -35t-32 -52q0 -16 9.5 -26t24.5 -10q20 0 37 25l56 -40q-10 -25 -41.5 -43.5t-67.5 -18.5z" />
    <glyph glyph-name="eogonek" unicode="&#x119;" horiz-adv-x="586" 
d="M317 -10q-81 0 -143.5 34.5t-98 94.5t-35.5 138q0 83 34.5 145.5t95 98t138.5 36.5q68 -1 122.5 -34t86 -90t29.5 -131l-1 -44h-402q9 -71 58.5 -112.5t125.5 -41.5q39 0 72.5 13t72.5 47l52 -73q-27 -26 -66 -46q-44 -28 -66 -53.5t-22 -52.5q0 -19 11 -30.5t28 -11.5
q14 0 22.5 6.5t17.5 18.5l56 -40q-13 -25 -43.5 -43.5t-69.5 -18.5q-54 0 -83.5 29.5t-29.5 69.5q0 28 10 50t28 41v0zM308 442q-135 0 -161 -122h294v7q-3 33 -22 59t-48 41t-63 15z" />
    <glyph glyph-name="Ecaron" unicode="&#x11a;" horiz-adv-x="614" 
d="M98 0v700h441v-104h-333v-185h278v-104h-278v-203h333v-104h-441zM284 757l-120 103l38 33l125 -56l125 56l38 -33l-120 -103h-86z" />
    <glyph glyph-name="ecaron" unicode="&#x11b;" horiz-adv-x="586" 
d="M317 -10q-81 0 -143.5 34.5t-98 94.5t-35.5 138q0 83 34.5 145.5t95 98t138.5 36.5q68 -1 122.5 -34t86 -90t29.5 -131l-1 -44h-402q9 -71 58.5 -112.5t125.5 -41.5q39 0 72.5 13t72.5 47l52 -73q-37 -36 -94 -58.5t-113 -22.5zM308 442q-135 0 -161 -122h294v7
q-3 33 -22 59t-48 41t-63 15zM265 607l-105 113l38 33l110 -64l110 64l38 -33l-105 -113h-86z" />
    <glyph glyph-name="Gcircumflex" unicode="&#x11c;" horiz-adv-x="766" 
d="M411 -10q-76 0 -142 27.5t-116 76.5t-77.5 114.5t-27.5 141.5q0 75 27.5 140t77 113.5t115.5 75.5t142 27q53 0 103.5 -15t91.5 -42t67 -62l-70 -73q-91 87 -192 87q-71 0 -128 -33t-90.5 -90t-33.5 -128q0 -52 20 -98.5t55.5 -81.5t82 -55t98.5 -20q53 0 96.5 20
t70 54.5t26.5 76.5v6h-199v107h310q3 -17 4 -31.5t1 -28.5q0 -92 -41.5 -161.5t-112.5 -108.5t-158 -39zM279 755l-37 35l124 101h73l124 -101l-37 -35l-123 58z" />
    <glyph glyph-name="gcircumflex" unicode="&#x11d;" horiz-adv-x="649" 
d="M307 -230q-56 0 -111.5 17.5t-89.5 45.5l38 80q30 -23 74.5 -37t88.5 -14q167 0 167 158v63q-14 -25 -41.5 -46t-62 -34t-70.5 -13q-75 0 -133.5 35.5t-92.5 97t-34 140.5t33.5 140.5t92 97t131.5 35.5q55 0 103 -25t74 -57v71h103v-493q0 -125 -72 -193.5t-198 -68.5z
M311 85q49 0 87 23t59 63t21 92t-21.5 92.5t-59 63.5t-86.5 23q-48 0 -85.5 -23.5t-59 -64t-21.5 -91.5t21.5 -91.5t59 -63.5t85.5 -23zM205 607l-38 33l115 113h86l115 -113l-38 -33l-120 65z" />
    <glyph glyph-name="Gbreve" unicode="&#x11e;" horiz-adv-x="766" 
d="M411 -10q-76 0 -142 27.5t-116 76.5t-77.5 114.5t-27.5 141.5q0 75 27.5 140t77 113.5t115.5 75.5t142 27q53 0 103.5 -15t91.5 -42t67 -62l-70 -73q-91 87 -192 87q-71 0 -128 -33t-90.5 -90t-33.5 -128q0 -52 20 -98.5t55.5 -81.5t82 -55t98.5 -20q53 0 96.5 20
t70 54.5t26.5 76.5v6h-199v107h310q3 -17 4 -31.5t1 -28.5q0 -92 -41.5 -161.5t-112.5 -108.5t-158 -39zM403 751q-41 0 -74.5 18.5t-56 49t-31.5 66.5l74 12q11 -25 34 -45t54 -20t54 20t34 45l74 -12q-8 -36 -31 -66.5t-56 -49t-75 -18.5z" />
    <glyph glyph-name="gbreve" unicode="&#x11f;" horiz-adv-x="649" 
d="M307 -230q-56 0 -111.5 17.5t-89.5 45.5l38 80q30 -23 74.5 -37t88.5 -14q167 0 167 158v63q-14 -25 -41.5 -46t-62 -34t-70.5 -13q-75 0 -133.5 35.5t-92.5 97t-34 140.5t33.5 140.5t92 97t131.5 35.5q55 0 103 -25t74 -57v71h103v-493q0 -125 -72 -193.5t-198 -68.5z
M311 85q49 0 87 23t59 63t21 92t-21.5 92.5t-59 63.5t-86.5 23q-48 0 -85.5 -23.5t-59 -64t-21.5 -91.5t21.5 -91.5t59 -63.5t85.5 -23zM325 589q-64 0 -106 41.5t-56 112.5l74 12q13 -39 35.5 -62t52.5 -23t52.5 23t35.5 62l74 -12q-14 -71 -56 -112.5t-106 -41.5z" />
    <glyph glyph-name="Gdotaccent" unicode="&#x120;" horiz-adv-x="766" 
d="M411 -10q-76 0 -142 27.5t-116 76.5t-77.5 114.5t-27.5 141.5q0 75 27.5 140t77 113.5t115.5 75.5t142 27q53 0 103.5 -15t91.5 -42t67 -62l-70 -73q-91 87 -192 87q-71 0 -128 -33t-90.5 -90t-33.5 -128q0 -52 20 -98.5t55.5 -81.5t82 -55t98.5 -20q53 0 96.5 20
t70 54.5t26.5 76.5v6h-199v107h310q3 -17 4 -31.5t1 -28.5q0 -92 -41.5 -161.5t-112.5 -108.5t-158 -39zM403 759q-35 0 -52 18t-17 47q0 25 17 45t52 20t52 -18t17 -47q0 -25 -17 -45t-52 -20z" />
    <glyph glyph-name="gdotaccent" unicode="&#x121;" horiz-adv-x="649" 
d="M307 -230q-56 0 -111.5 17.5t-89.5 45.5l38 80q30 -23 74.5 -37t88.5 -14q167 0 167 158v63q-14 -25 -41.5 -46t-62 -34t-70.5 -13q-75 0 -133.5 35.5t-92.5 97t-34 140.5t33.5 140.5t92 97t131.5 35.5q55 0 103 -25t74 -57v71h103v-493q0 -125 -72 -193.5t-198 -68.5z
M311 85q49 0 87 23t59 63t21 92t-21.5 92.5t-59 63.5t-86.5 23q-48 0 -85.5 -23.5t-59 -64t-21.5 -91.5t21.5 -91.5t59 -63.5t85.5 -23zM325 641q-33 0 -51 17t-18 48q0 29 18.5 47t50.5 18q33 0 51 -17t18 -48q0 -29 -18.5 -47t-50.5 -18z" />
    <glyph glyph-name="uni0122" unicode="&#x122;" horiz-adv-x="766" 
d="M411 -10q-76 0 -142 27.5t-116 76.5t-77.5 114.5t-27.5 141.5q0 75 27.5 140t77 113.5t115.5 75.5t142 27q53 0 103.5 -15t91.5 -42t67 -62l-70 -73q-91 87 -192 87q-71 0 -128 -33t-90.5 -90t-33.5 -128q0 -52 20 -98.5t55.5 -81.5t82 -55t98.5 -20q53 0 96.5 20
t70 54.5t26.5 76.5v6h-199v107h310q3 -17 4 -31.5t1 -28.5q0 -92 -41.5 -161.5t-112.5 -108.5t-158 -39zM333 -243l-24 42q21 5 37.5 21t16.5 31q0 6 -3.5 10t-15.5 7q-18 5 -24 14t-6 24q0 22 18 35.5t47 13.5q33 0 55.5 -21t22.5 -56q0 -38 -34 -70t-90 -51z" />
    <glyph glyph-name="uni0123" unicode="&#x123;" horiz-adv-x="649" 
d="M307 -230q-56 0 -111.5 17.5t-89.5 45.5l38 80q30 -23 74.5 -37t88.5 -14q167 0 167 158v63q-14 -25 -41.5 -46t-62 -34t-70.5 -13q-75 0 -133.5 35.5t-92.5 97t-34 140.5t33.5 140.5t92 97t131.5 35.5q55 0 103 -25t74 -57v71h103v-493q0 -125 -72 -193.5t-198 -68.5z
M311 85q49 0 87 23t59 63t21 92t-21.5 92.5t-59 63.5t-86.5 23q-48 0 -85.5 -23.5t-59 -64t-21.5 -91.5t21.5 -91.5t59 -63.5t85.5 -23zM329 606q-27 0 -52.5 18.5t-25.5 58.5q0 26 14 46.5t34.5 35.5t41.5 25t34 14l24 -42q-19 -4 -36.5 -20t-17.5 -32q0 -10 6.5 -13
t14.5 -5q10 -3 19 -9.5t9 -27.5q0 -24 -19 -36.5t-46 -12.5z" />
    <glyph glyph-name="Hcircumflex" unicode="&#x124;" horiz-adv-x="761" 
d="M98 0v700h108v-299h349v299h108v-700h-108v297h-349v-297h-108zM257 755l-37 35l124 101h73l124 -101l-37 -35l-123 58z" />
    <glyph glyph-name="hcircumflex" unicode="&#x125;" horiz-adv-x="595" 
d="M72 0v740h103v-297q26 39 73.5 66t98.5 27q180 0 180 -216v-320h-103v313q0 135 -111 129q-39 0 -70.5 -16.5t-49.5 -44.5t-18 -63v-318h-103zM174 795l-37 35l124 101h73l124 -101l-37 -35l-123 58z" />
    <glyph glyph-name="Hbar" unicode="&#x126;" horiz-adv-x="857" 
d="M146 0v468h-89v104h89v128h108v-138h349v138h108v-128h89v-104h-89v-468h-108v297h-349v-297h-108zM254 401h349v77h-349v-77z" />
    <glyph glyph-name="hbar" unicode="&#x127;" horiz-adv-x="595" 
d="M72 0v593h-60v90h60v57h103v-57h105v-90h-105v-150q26 39 73.5 66t98.5 27q180 0 180 -216v-320h-103v313q0 135 -111 129q-39 0 -70.5 -16.5t-49.5 -44.5t-18 -63v-318h-103z" />
    <glyph glyph-name="Itilde" unicode="&#x128;" horiz-adv-x="478" 
d="M72 0v100h113v500h-113v100h334v-100h-113v-500h113v-100h-334zM313 768q-23 0 -46.5 7.5t-44.5 15.5q-17 7 -29 11t-22 4q-30 0 -30 -38h-77q0 54 35 83.5t79 29.5q21 0 41 -7t39 -15q14 -6 27.5 -10t22.5 -4q31 0 29 36h76q0 -44 -26.5 -78.5t-73.5 -34.5z" />
    <glyph glyph-name="itilde" unicode="&#x129;" horiz-adv-x="243" 
d="M72 0v525h103v-525h-103zM173 615q-20 0 -33.5 8t-28.5 20q-19 17 -28.5 23.5t-17.5 6.5q-29 0 -37 -58l-68 10q2 49 31.5 85t78.5 36q20 0 33.5 -8t28.5 -20q20 -16 29 -23t17 -7q29 0 37 58l68 -10q-2 -49 -31.5 -85t-78.5 -36z" />
    <glyph glyph-name="Imacron" unicode="&#x12a;" horiz-adv-x="478" 
d="M72 0v100h113v500h-113v100h334v-100h-113v-500h113v-100h-334zM73 787v75h331v-75h-331z" />
    <glyph glyph-name="imacron" unicode="&#x12b;" horiz-adv-x="243" 
d="M72 0v525h103v-525h-103zM-20 642v75h284v-75h-284z" />
    <glyph glyph-name="Ibreve" unicode="&#x12c;" horiz-adv-x="478" 
d="M72 0v100h113v500h-113v100h334v-100h-113v-500h113v-100h-334zM239 751q-41 0 -74.5 18.5t-56 49t-31.5 66.5l74 12q11 -25 34 -45t54 -20t54 20t34 45l74 -12q-8 -36 -31 -66.5t-56 -49t-75 -18.5z" />
    <glyph glyph-name="ibreve" unicode="&#x12d;" horiz-adv-x="243" 
d="M72 0v525h103v-525h-103zM122 589q-64 0 -106 41.5t-56 112.5l74 12q13 -39 35.5 -62t52.5 -23t52.5 23t35.5 62l74 -12q-14 -71 -56 -112.5t-106 -41.5z" />
    <glyph glyph-name="Iogonek" unicode="&#x12e;" horiz-adv-x="478" 
d="M72 0v100h113v500h-113v100h334v-100h-113v-500h113v-100h-334zM253 -200q-29 0 -54 14t-40 37.5t-15 51.5q0 50 41.5 89t113.5 59l44 -51q-44 -10 -76 -35t-32 -52q0 -16 9.5 -26t24.5 -10q20 0 37 25l56 -40q-10 -25 -41.5 -43.5t-67.5 -18.5z" />
    <glyph glyph-name="iogonek" unicode="&#x12f;" horiz-adv-x="243" 
d="M72 0v525h103v-525h-103zM122 641q-33 0 -51 17t-18 48q0 29 18.5 47t50.5 18q33 0 51 -17t18 -48q0 -29 -18.5 -47t-50.5 -18zM85 -200q-29 0 -54 14t-40 37.5t-15 51.5q0 50 43 83t123 55l33 -41q-44 -10 -76 -35t-32 -52q0 -16 9.5 -26t24.5 -10q20 0 37 25l56 -40
q-10 -25 -38 -43.5t-71 -18.5z" />
    <glyph glyph-name="Idotaccent" unicode="&#x130;" horiz-adv-x="478" 
d="M72 0v100h113v500h-113v100h334v-100h-113v-500h113v-100h-334zM239 759q-35 0 -52 18t-17 47q0 25 17 45t52 20t52 -18t17 -47q0 -25 -17 -45t-52 -20z" />
    <glyph glyph-name="dotlessi" unicode="&#x131;" horiz-adv-x="243" 
d="M72 0v525h103v-525h-103z" />
    <glyph glyph-name="IJ" unicode="&#x132;" horiz-adv-x="1120" 
d="M72 0v100h113v500h-113v100h334v-100h-113v-500h113v-100h-334zM734 -10q-68 0 -122.5 35t-83.5 92l68 71q29 -39 50.5 -59t42 -27t45.5 -7q54 0 87 36t33 92v377h-128v100h344v-100h-108v-387q0 -63 -29 -113.5t-80.5 -80t-118.5 -29.5z" />
    <glyph glyph-name="ij" unicode="&#x133;" horiz-adv-x="543" 
d="M141 641q-33 0 -51 17t-18 48q0 29 18.5 47t50.5 18q33 0 51 -17t18 -48q0 -29 -18.5 -47t-50.5 -18zM91 0v525h103v-525h-103zM418 641q-33 0 -51 17t-18 48q0 29 18.5 47t50.5 18q33 0 51 -17t18 -48q0 -29 -18.5 -47t-50.5 -18zM287 -197l-39 79q116 0 116 119v524
h103v-549q0 -77 -50 -125t-130 -48z" />
    <glyph glyph-name="Jcircumflex" unicode="&#x134;" horiz-adv-x="642" 
d="M256 -10q-68 0 -122.5 35t-83.5 92l68 71q29 -39 50.5 -59t42 -27t45.5 -7q54 0 87 36t33 92v377h-128v100h344v-100h-108v-387q0 -63 -29 -113.5t-80.5 -80t-118.5 -29.5zM302 755l-37 35l124 101h73l124 -101l-37 -35l-123 58z" />
    <glyph glyph-name="jcircumflex" unicode="&#x135;" horiz-adv-x="263" 
d="M8 -197l-39 79q116 0 116 119v524h103v-549q0 -51 -23 -90t-63.5 -61t-93.5 -22zM18 607l-38 33l115 113h86l115 -113l-38 -33l-120 65z" />
    <glyph glyph-name="uni0136" unicode="&#x136;" horiz-adv-x="732" 
d="M98 0v700h108v-343l343 343h142l-302 -293l308 -407h-135l-249 333l-107 -104v-229h-108zM316 -243l-24 42q21 5 37.5 21t16.5 31q0 6 -3.5 10t-15.5 7q-18 5 -24 14t-6 24q0 22 18 35.5t47 13.5q33 0 55.5 -21t22.5 -56q0 -38 -34 -70t-90 -51z" />
    <glyph glyph-name="uni0137" unicode="&#x137;" horiz-adv-x="570" 
d="M74 0v740h103v-450l237 235h139l-246 -231l253 -294h-132l-194 226l-57 -54v-172h-103zM235 -242l-24 42q21 5 37.5 21t16.5 31q0 6 -3.5 10t-15.5 7q-18 5 -24 14t-6 24q0 22 18 35.5t47 13.5q33 0 55.5 -21t22.5 -56q0 -38 -34 -70t-90 -51z" />
    <glyph glyph-name="kgreenlandic" unicode="&#x138;" horiz-adv-x="556" 
d="M74 0v525h97v-254l237 254h121l-225 -228l230 -298l-123 1l-168 236l-72 -73v-163h-97z" />
    <glyph glyph-name="Lacute" unicode="&#x139;" horiz-adv-x="599" 
d="M98 0v700h108v-596h328v-104h-436zM85 755l-28 52l183 113l47 -90z" />
    <glyph glyph-name="lacute" unicode="&#x13a;" horiz-adv-x="251" 
d="M74 0v740h103v-740h-103zM58 795l-28 52l183 113l47 -90z" />
    <glyph glyph-name="uni013B" unicode="&#x13b;" horiz-adv-x="599" 
d="M98 0v700h108v-596h328v-104h-436zM250 -243l-24 42q21 5 37.5 21t16.5 31q0 6 -3.5 10t-15.5 7q-18 5 -24 14t-6 24q0 22 18 35.5t47 13.5q33 0 55.5 -21t22.5 -56q0 -38 -34 -70t-90 -51z" />
    <glyph glyph-name="uni013C" unicode="&#x13c;" horiz-adv-x="251" 
d="M74 0v740h103v-740h-103zM76 -242l-24 42q21 5 37.5 21t16.5 31q0 6 -3.5 10t-15.5 7q-18 5 -24 14t-6 24q0 22 18 35.5t47 13.5q33 0 55.5 -21t22.5 -56q0 -38 -34 -70t-90 -51z" />
    <glyph glyph-name="Lcaron" unicode="&#x13d;" horiz-adv-x="599" 
d="M98 0v700h108v-596h328v-104h-436zM337 502l-24 42q21 5 37.5 21t16.5 31q0 6 -3.5 10t-15.5 7q-18 5 -24 14t-6 24q0 22 18 35.5t47 13.5q33 0 55.5 -21t22.5 -56q0 -38 -34 -70t-90 -51z" />
    <glyph glyph-name="lcaron" unicode="&#x13e;" horiz-adv-x="271" 
d="M74 0v740h103v-740h-103zM256 542l-24 42q21 5 37.5 21t16.5 31q0 6 -3.5 10t-15.5 7q-18 5 -24 14t-6 24q0 22 18 35.5t47 13.5q33 0 55.5 -21t22.5 -56q0 -38 -34 -70t-90 -51z" />
    <glyph glyph-name="Ldot" unicode="&#x13f;" horiz-adv-x="599" 
d="M98 0v700h108v-596h328v-104h-436zM450 299q-33 0 -51 19.5t-18 55.5q0 33 19 54t50 21q33 0 51 -19.5t18 -55.5q0 -33 -19 -54t-50 -21z" />
    <glyph glyph-name="ldot" unicode="&#x140;" horiz-adv-x="351" 
d="M74 0v740h103v-740h-103zM304 299q-33 0 -51 19.5t-18 55.5q0 33 19 54t50 21q33 0 51 -19.5t18 -55.5q0 -33 -19 -54t-50 -21z" />
    <glyph glyph-name="Lslash" unicode="&#x141;" horiz-adv-x="638" 
d="M137 0v285l-68 -29l-29 72l97 44v328h108v-280l86 39l32 -77l-118 -51v-227h328v-104h-436z" />
    <glyph glyph-name="lslash" unicode="&#x142;" horiz-adv-x="253" 
d="M72 0v311l-41 -19l-34 77l75 33v338h103v-292l45 20l36 -74l-81 -37v-357h-103z" />
    <glyph glyph-name="Nacute" unicode="&#x143;" horiz-adv-x="793" 
d="M98 0v700h97l407 -545q-8 61 -11.5 141t-3.5 174v230h108v-700h-99l-407 534q7 -87 11 -134.5t5 -71t1 -37.5v-291h-108zM329 755l-28 52l183 113l47 -90z" />
    <glyph glyph-name="nacute" unicode="&#x144;" horiz-adv-x="595" 
d="M72 0v525h103v-82q26 39 73.5 66t98.5 27q180 0 180 -216v-320h-103v313q0 135 -111 129q-39 0 -70.5 -16.5t-49.5 -44.5t-18 -63v-318h-103zM258 606l-34 51l143 125l65 -82z" />
    <glyph glyph-name="uni0145" unicode="&#x145;" horiz-adv-x="793" 
d="M98 0v700h97l407 -545q-8 61 -11.5 141t-3.5 174v230h108v-700h-99l-407 534q7 -87 11 -134.5t5 -71t1 -37.5v-291h-108zM347 -243l-24 42q21 5 37.5 21t16.5 31q0 6 -3.5 10t-15.5 7q-18 5 -24 14t-6 24q0 22 18 35.5t47 13.5q33 0 55.5 -21t22.5 -56q0 -38 -34 -70
t-90 -51z" />
    <glyph glyph-name="uni0146" unicode="&#x146;" horiz-adv-x="595" 
d="M72 0v525h103v-82q26 39 73.5 66t98.5 27q180 0 180 -216v-320h-103v313q0 135 -111 129q-39 0 -70.5 -16.5t-49.5 -44.5t-18 -63v-318h-103zM248 -242l-24 42q21 5 37.5 21t16.5 31q0 6 -3.5 10t-15.5 7q-18 5 -24 14t-6 24q0 22 18 35.5t47 13.5q33 0 55.5 -21
t22.5 -56q0 -38 -34 -70t-90 -51z" />
    <glyph glyph-name="Ncaron" unicode="&#x147;" horiz-adv-x="793" 
d="M98 0v700h97l407 -545q-8 61 -11.5 141t-3.5 174v230h108v-700h-99l-407 534q7 -87 11 -134.5t5 -71t1 -37.5v-291h-108zM354 757l-120 103l38 33l125 -56l125 56l38 -33l-120 -103h-86z" />
    <glyph glyph-name="ncaron" unicode="&#x148;" horiz-adv-x="595" 
d="M72 0v525h103v-82q26 39 73.5 66t98.5 27q180 0 180 -216v-320h-103v313q0 135 -111 129q-39 0 -70.5 -16.5t-49.5 -44.5t-18 -63v-318h-103zM285 607l-105 113l38 33l110 -64l110 64l38 -33l-105 -113h-86z" />
    <glyph glyph-name="napostrophe" unicode="&#x149;" horiz-adv-x="636" 
d="M-56 442l23 258h118l-81 -258h-60zM113 0v525h103v-82q26 39 73.5 66t98.5 27q180 0 180 -216v-320h-103v313q0 135 -111 129q-39 0 -70.5 -16.5t-49.5 -44.5t-18 -63v-318h-103z" />
    <glyph glyph-name="Eng" unicode="&#x14a;" horiz-adv-x="793" 
d="M510 -197l-39 79q116 0 116 119v11l-398 521q7 -75 12 -141.5t5 -100.5v-291h-108v700h97l407 -545q-8 61 -11.5 141t-3.5 174v230h108v-724q0 -78 -51 -125.5t-134 -47.5z" />
    <glyph glyph-name="eng" unicode="&#x14b;" horiz-adv-x="595" 
d="M347 -197l-39 79q114 0 116 118v313q0 135 -111 129q-39 0 -70.5 -16.5t-49.5 -44.5t-18 -63v-318h-103v525h103v-82q26 39 73.5 66t98.5 27q180 0 180 -216v-344q0 -51 -23 -90t-63.5 -61t-93.5 -22z" />
    <glyph glyph-name="Omacron" unicode="&#x14c;" horiz-adv-x="782" 
d="M391 -10q-74 0 -136.5 27t-109 75.5t-72 114t-25.5 143.5t25.5 143.5t72 114t109 75.5t136.5 27t136.5 -27t109 -76t72 -114.5t25.5 -142.5t-25.5 -142.5t-72 -114.5t-109 -76t-136.5 -27zM391 95q67 0 120 33t83 91t30 131t-30 131t-83 91t-120 33q-68 0 -120.5 -33
t-82.5 -90.5t-30 -131.5t30 -131.5t82.5 -90.5t120.5 -33zM225 787v75h331v-75h-331z" />
    <glyph glyph-name="omacron" unicode="&#x14d;" horiz-adv-x="615" 
d="M308 -10q-77 0 -137.5 35.5t-95.5 97t-35 140.5t35 140.5t95.5 97t137.5 35.5q76 0 136.5 -35.5t95.5 -97t35 -140.5t-35 -140.5t-95.5 -97t-136.5 -35.5zM308 84q47 0 84 23.5t58 64t20 91.5q1 52 -20 92.5t-58 63.5t-84 23t-84.5 -23.5t-58.5 -64t-20 -91.5
q-1 -51 20 -91.5t58.5 -64t84.5 -23.5zM166 642v75h284v-75h-284z" />
    <glyph glyph-name="Obreve" unicode="&#x14e;" horiz-adv-x="782" 
d="M391 -10q-74 0 -136.5 27t-109 75.5t-72 114t-25.5 143.5t25.5 143.5t72 114t109 75.5t136.5 27t136.5 -27t109 -76t72 -114.5t25.5 -142.5t-25.5 -142.5t-72 -114.5t-109 -76t-136.5 -27zM391 95q67 0 120 33t83 91t30 131t-30 131t-83 91t-120 33q-68 0 -120.5 -33
t-82.5 -90.5t-30 -131.5t30 -131.5t82.5 -90.5t120.5 -33zM391 751q-41 0 -74.5 18.5t-56 49t-31.5 66.5l74 12q11 -25 34 -45t54 -20t54 20t34 45l74 -12q-8 -36 -31 -66.5t-56 -49t-75 -18.5z" />
    <glyph glyph-name="obreve" unicode="&#x14f;" horiz-adv-x="615" 
d="M308 -10q-77 0 -137.5 35.5t-95.5 97t-35 140.5t35 140.5t95.5 97t137.5 35.5q76 0 136.5 -35.5t95.5 -97t35 -140.5t-35 -140.5t-95.5 -97t-136.5 -35.5zM308 84q47 0 84 23.5t58 64t20 91.5q1 52 -20 92.5t-58 63.5t-84 23t-84.5 -23.5t-58.5 -64t-20 -91.5
q-1 -51 20 -91.5t58.5 -64t84.5 -23.5zM308 589q-64 0 -106 41.5t-56 112.5l74 12q13 -39 35.5 -62t52.5 -23t52.5 23t35.5 62l74 -12q-14 -71 -56 -112.5t-106 -41.5z" />
    <glyph glyph-name="Ohungarumlaut" unicode="&#x150;" horiz-adv-x="782" 
d="M391 -10q-74 0 -136.5 27t-109 75.5t-72 114t-25.5 143.5t25.5 143.5t72 114t109 75.5t136.5 27t136.5 -27t109 -76t72 -114.5t25.5 -142.5t-25.5 -142.5t-72 -114.5t-109 -76t-136.5 -27zM391 95q67 0 120 33t83 91t30 131t-30 131t-83 91t-120 33q-68 0 -120.5 -33
t-82.5 -90.5t-30 -131.5t30 -131.5t82.5 -90.5t120.5 -33zM282 750l-38 48l131 137l72 -76zM481 750l-38 48l131 137l72 -76z" />
    <glyph glyph-name="ohungarumlaut" unicode="&#x151;" horiz-adv-x="615" 
d="M308 -10q-77 0 -137.5 35.5t-95.5 97t-35 140.5t35 140.5t95.5 97t137.5 35.5q76 0 136.5 -35.5t95.5 -97t35 -140.5t-35 -140.5t-95.5 -97t-136.5 -35.5zM308 84q47 0 84 23.5t58 64t20 91.5q1 52 -20 92.5t-58 63.5t-84 23t-84.5 -23.5t-58.5 -64t-20 -91.5
q-1 -51 20 -91.5t58.5 -64t84.5 -23.5zM337 606l-34 51l143 125l65 -82zM138 606l-34 51l143 125l65 -82z" />
    <glyph glyph-name="OE" unicode="&#x152;" horiz-adv-x="1027" 
d="M375 0q-100 0 -173.5 44t-113.5 122.5t-40 183.5q0 104 43 183t121 123t183 44h557v-104h-333v-185h278v-104h-278v-203h333v-104h-577zM158 350q0 -115 57.5 -180.5t162.5 -65.5h133v492h-113q-114 0 -177 -66t-63 -180z" />
    <glyph glyph-name="oe" unicode="&#x153;" horiz-adv-x="1017" 
d="M308 -10q-77 0 -137.5 35.5t-95.5 97t-35 140.5t35 140.5t95.5 97t137.5 35.5q68 0 123.5 -29t92.5 -78q38 50 91 78.5t118 28.5q71 0 126.5 -33t87.5 -90t30 -131l-1 -44h-400q7 -67 52.5 -110.5t129.5 -43.5q39 0 72.5 13t72.5 47l52 -73q-37 -35 -94 -58t-113 -23
q-73 0 -131.5 28t-94.5 77q-36 -49 -91.5 -77t-122.5 -28zM729 442q-59 0 -98 -32t-52 -90h293q-1 37 -20.5 64.5t-52 42.5t-70.5 15zM308 84q47 0 84 23.5t58 64t20 91.5q1 52 -20 92.5t-58 63.5t-84 23t-84.5 -23.5t-58.5 -64t-20 -91.5q-1 -51 20 -91.5t58.5 -64
t84.5 -23.5z" />
    <glyph glyph-name="Racute" unicode="&#x154;" horiz-adv-x="695" 
d="M98 0v700h298q60 0 110.5 -29.5t80.5 -80t30 -113.5q0 -64 -38 -118t-97 -79l163 -281l-131 1l-148 263h-160v-263h-108zM206 367h200q44 0 72.5 32t28.5 79q0 52 -36.5 85t-92.5 33h-172v-229zM250 755l-28 52l183 113l47 -90z" />
    <glyph glyph-name="racute" unicode="&#x155;" horiz-adv-x="403" 
d="M72 0v525h104v-99q23 47 67 78.5t93 31.5q17 0 32.5 -3t24.5 -7l-27 -112q-12 5 -26.5 8.5t-28.5 3.5q-36 0 -66.5 -18t-49.5 -49t-19 -69v-290h-104zM172 606l-34 51l143 125l65 -82z" />
    <glyph glyph-name="uni0156" unicode="&#x156;" horiz-adv-x="695" 
d="M98 0v700h298q60 0 110.5 -29.5t80.5 -80t30 -113.5q0 -64 -38 -118t-97 -79l163 -281l-131 1l-148 263h-160v-263h-108zM206 367h200q44 0 72.5 32t28.5 79q0 52 -36.5 85t-92.5 33h-172v-229zM298 -243l-24 42q21 5 37.5 21t16.5 31q0 6 -3.5 10t-15.5 7q-18 5 -24 14
t-6 24q0 22 18 35.5t47 13.5q33 0 55.5 -21t22.5 -56q0 -38 -34 -70t-90 -51z" />
    <glyph glyph-name="uni0157" unicode="&#x157;" horiz-adv-x="403" 
d="M72 0v525h104v-99q23 47 67 78.5t93 31.5q17 0 32.5 -3t24.5 -7l-27 -112q-12 5 -26.5 8.5t-28.5 3.5q-36 0 -66.5 -18t-49.5 -49t-19 -69v-290h-104zM74 -242l-24 42q21 5 37.5 21t16.5 31q0 6 -3.5 10t-15.5 7q-18 5 -24 14t-6 24q0 22 18 35.5t47 13.5q33 0 55.5 -21
t22.5 -56q0 -38 -34 -70t-90 -51z" />
    <glyph glyph-name="Rcaron" unicode="&#x158;" horiz-adv-x="695" 
d="M98 0v700h298q60 0 110.5 -29.5t80.5 -80t30 -113.5q0 -64 -38 -118t-97 -79l163 -281l-131 1l-148 263h-160v-263h-108zM206 367h200q44 0 72.5 32t28.5 79q0 52 -36.5 85t-92.5 33h-172v-229zM275 757l-120 103l38 33l125 -56l125 56l38 -33l-120 -103h-86z" />
    <glyph glyph-name="rcaron" unicode="&#x159;" horiz-adv-x="403" 
d="M72 0v525h104v-99q23 47 67 78.5t93 31.5q17 0 32.5 -3t24.5 -7l-27 -112q-12 5 -26.5 8.5t-28.5 3.5q-36 0 -66.5 -18t-49.5 -49t-19 -69v-290h-104zM199 607l-105 113l38 33l110 -64l110 64l38 -33l-105 -113h-86z" />
    <glyph glyph-name="Sacute" unicode="&#x15a;" horiz-adv-x="624" 
d="M314 -10q-170 0 -264 136l74 85q49 -70 94 -97t107 -27q57 0 96.5 26t39.5 67q0 46 -39 75.5t-123 45.5q-214 42 -214 213q0 57 32 101t86.5 69.5t122.5 25.5q165 0 237 -123l-76 -75q-30 49 -71.5 75t-92.5 26q-58 0 -94 -26.5t-36 -69.5t32.5 -69.5t111.5 -42.5
q110 -23 171 -74t61 -123q0 -100 -68.5 -159t-186.5 -59zM264 755l-28 52l183 113l47 -90z" />
    <glyph glyph-name="sacute" unicode="&#x15b;" horiz-adv-x="479" 
d="M247 -10q-66 0 -119 23t-88 68l70 60q30 -35 65.5 -50.5t80.5 -15.5q37 0 60.5 18t23.5 49q0 26 -19 42q-19 15 -87 33q-58 15 -95 34t-57 43q-29 36 -29 91q0 44 25 78t67.5 53.5t95.5 19.5q56 0 108.5 -22.5t84.5 -61.5l-59 -65q-29 29 -64.5 46.5t-64.5 17.5
q-43 0 -66.5 -16t-23.5 -47q1 -27 22 -44t89 -34q50 -13 82.5 -28.5t51.5 -35.5q20 -19 28 -44t8 -56q0 -45 -25.5 -80.5t-68.5 -55.5t-96 -20zM170 606l-34 51l143 125l65 -82z" />
    <glyph glyph-name="Scircumflex" unicode="&#x15c;" horiz-adv-x="624" 
d="M314 -10q-170 0 -264 136l74 85q49 -70 94 -97t107 -27q57 0 96.5 26t39.5 67q0 46 -39 75.5t-123 45.5q-214 42 -214 213q0 57 32 101t86.5 69.5t122.5 25.5q165 0 237 -123l-76 -75q-30 49 -71.5 75t-92.5 26q-58 0 -94 -26.5t-36 -69.5t32.5 -69.5t111.5 -42.5
q110 -23 171 -74t61 -123q0 -100 -68.5 -159t-186.5 -59zM208 755l-37 35l124 101h73l124 -101l-37 -35l-123 58z" />
    <glyph glyph-name="scircumflex" unicode="&#x15d;" horiz-adv-x="479" 
d="M247 -10q-66 0 -119 23t-88 68l70 60q30 -35 65.5 -50.5t80.5 -15.5q37 0 60.5 18t23.5 49q0 26 -19 42q-19 15 -87 33q-58 15 -95 34t-57 43q-29 36 -29 91q0 44 25 78t67.5 53.5t95.5 19.5q56 0 108.5 -22.5t84.5 -61.5l-59 -65q-29 29 -64.5 46.5t-64.5 17.5
q-43 0 -66.5 -16t-23.5 -47q1 -27 22 -44t89 -34q50 -13 82.5 -28.5t51.5 -35.5q20 -19 28 -44t8 -56q0 -45 -25.5 -80.5t-68.5 -55.5t-96 -20zM120 607l-38 33l115 113h86l115 -113l-38 -33l-120 65z" />
    <glyph glyph-name="Scedilla" unicode="&#x15e;" horiz-adv-x="624" 
d="M314 -10q-170 0 -264 136l74 85q49 -70 94 -97t107 -27q57 0 96.5 26t39.5 67q0 46 -39 75.5t-123 45.5q-214 42 -214 213q0 57 32 101t86.5 69.5t122.5 25.5q165 0 237 -123l-76 -75q-30 49 -71.5 75t-92.5 26q-58 0 -94 -26.5t-36 -69.5t32.5 -69.5t111.5 -42.5
q110 -23 171 -74t61 -123q0 -100 -68.5 -159t-186.5 -59zM240 -244l-7 53q24 0 50 8t44 20.5t18 24.5q0 14 -17 22t-38 12t-35 4l-13 10l72 114h59l-42 -70q99 -21 99 -93q0 -34 -29.5 -58t-73 -36t-87.5 -11z" />
    <glyph glyph-name="scedilla" unicode="&#x15f;" horiz-adv-x="479" 
d="M247 -10q-66 0 -119 23t-88 68l70 60q30 -35 65.5 -50.5t80.5 -15.5q37 0 60.5 18t23.5 49q0 26 -19 42q-19 15 -87 33q-58 15 -95 34t-57 43q-29 36 -29 91q0 44 25 78t67.5 53.5t95.5 19.5q56 0 108.5 -22.5t84.5 -61.5l-59 -65q-29 29 -64.5 46.5t-64.5 17.5
q-43 0 -66.5 -16t-23.5 -47q1 -27 22 -44t89 -34q50 -13 82.5 -28.5t51.5 -35.5q20 -19 28 -44t8 -56q0 -45 -25.5 -80.5t-68.5 -55.5t-96 -20zM157 -244l-7 53q24 0 50 8t44 20.5t18 24.5q0 14 -17 22t-38 12t-35 4l-13 10l72 114h59l-43 -70q100 -21 100 -93
q0 -34 -29.5 -58t-73.5 -36t-87 -11z" />
    <glyph glyph-name="Scaron" unicode="&#x160;" horiz-adv-x="624" 
d="M314 -10q-170 0 -264 136l74 85q49 -70 94 -97t107 -27q57 0 96.5 26t39.5 67q0 46 -39 75.5t-123 45.5q-214 42 -214 213q0 57 32 101t86.5 69.5t122.5 25.5q165 0 237 -123l-76 -75q-30 49 -71.5 75t-92.5 26q-58 0 -94 -26.5t-36 -69.5t32.5 -69.5t111.5 -42.5
q110 -23 171 -74t61 -123q0 -100 -68.5 -159t-186.5 -59zM289 757l-120 103l38 33l125 -56l125 56l38 -33l-120 -103h-86z" />
    <glyph glyph-name="scaron" unicode="&#x161;" horiz-adv-x="479" 
d="M247 -10q-66 0 -119 23t-88 68l70 60q30 -35 65.5 -50.5t80.5 -15.5q37 0 60.5 18t23.5 49q0 26 -19 42q-19 15 -87 33q-58 15 -95 34t-57 43q-29 36 -29 91q0 44 25 78t67.5 53.5t95.5 19.5q56 0 108.5 -22.5t84.5 -61.5l-59 -65q-29 29 -64.5 46.5t-64.5 17.5
q-43 0 -66.5 -16t-23.5 -47q1 -27 22 -44t89 -34q50 -13 82.5 -28.5t51.5 -35.5q20 -19 28 -44t8 -56q0 -45 -25.5 -80.5t-68.5 -55.5t-96 -20zM197 607l-105 113l38 33l110 -64l110 64l38 -33l-105 -113h-86z" />
    <glyph glyph-name="uni0162" unicode="&#x162;" horiz-adv-x="576" 
d="M231 0v596h-196v104h506v-104h-202v-596h-108zM196 -244l-7 53q24 0 50 8t44 20.5t18 24.5q0 14 -17 22t-38 12t-35 4l-13 10l72 114h59l-42 -70q99 -21 99 -93q0 -34 -29.5 -58t-73 -36t-87.5 -11z" />
    <glyph glyph-name="uni0163" unicode="&#x163;" horiz-adv-x="384" 
d="M137 0v425h-109v100h109v134h103v-134h122v-100h-122v-425h-103zM100 -244l-7 53q24 0 50 8t44 20.5t18 24.5q0 14 -17 22t-38 12t-35 4l-13 10l72 114h59l-43 -70q100 -21 100 -93q0 -34 -29.5 -58t-73.5 -36t-87 -11z" />
    <glyph glyph-name="Tcaron" unicode="&#x164;" horiz-adv-x="576" 
d="M231 0v596h-196v104h506v-104h-202v-596h-108zM245 757l-120 103l38 33l125 -56l125 56l38 -33l-120 -103h-86z" />
    <glyph glyph-name="tcaron" unicode="&#x165;" horiz-adv-x="384" 
d="M137 0v425h-109v100h109v134h103v-134h122v-100h-122v-425h-103zM313 589l-24 42q21 5 37.5 21t16.5 31q0 6 -3.5 10t-15.5 7q-18 5 -24 14t-6 24q0 22 18 35.5t47 13.5q33 0 55.5 -21t22.5 -56q0 -38 -34 -70t-90 -51z" />
    <glyph glyph-name="Tbar" unicode="&#x166;" horiz-adv-x="576" 
d="M231 0v307h-77v90h77v199h-196v104h506v-104h-202v-199h83v-90h-83v-307h-108z" />
    <glyph glyph-name="tbar" unicode="&#x167;" horiz-adv-x="384" 
d="M137 0v218h-79v90h79v117h-109v100h109v134h103v-134h122v-100h-122v-117h86v-90h-86v-218h-103z" />
    <glyph glyph-name="Utilde" unicode="&#x168;" horiz-adv-x="740" 
d="M370 -6q-81 0 -145 35.5t-100.5 98t-36.5 141.5v432h108v-423q0 -51 24 -91.5t63.5 -64.5t86.5 -24q50 0 90.5 24t64.5 64.5t24 91.5v423h103v-432q0 -79 -36.5 -141.5t-100.5 -98t-145 -35.5zM444 768q-23 0 -46.5 7.5t-44.5 15.5q-17 7 -29 11t-22 4q-30 0 -30 -38h-77
q0 54 35 83.5t79 29.5q21 0 41 -7t39 -15q14 -6 27.5 -10t22.5 -4q31 0 29 36h76q0 -44 -26.5 -78.5t-73.5 -34.5z" />
    <glyph glyph-name="utilde" unicode="&#x169;" horiz-adv-x="605" 
d="M256 -10q-84 0 -134 57t-50 154v324h103v-296q0 -69 32.5 -109t90.5 -40q57 0 94.5 36t37.5 93v316h103v-525h-103v84q-26 -42 -72.5 -68t-101.5 -26zM354 615q-20 0 -33.5 8t-28.5 20q-19 17 -28.5 23.5t-17.5 6.5q-29 0 -37 -58l-68 10q2 49 31.5 85t78.5 36
q20 0 33.5 -8t28.5 -20q20 -16 29 -23t17 -7q29 0 37 58l68 -10q-2 -49 -31.5 -85t-78.5 -36z" />
    <glyph glyph-name="Umacron" unicode="&#x16a;" horiz-adv-x="740" 
d="M370 -6q-81 0 -145 35.5t-100.5 98t-36.5 141.5v432h108v-423q0 -51 24 -91.5t63.5 -64.5t86.5 -24q50 0 90.5 24t64.5 64.5t24 91.5v423h103v-432q0 -79 -36.5 -141.5t-100.5 -98t-145 -35.5zM204 787v75h331v-75h-331z" />
    <glyph glyph-name="umacron" unicode="&#x16b;" horiz-adv-x="605" 
d="M256 -10q-84 0 -134 57t-50 154v324h103v-296q0 -69 32.5 -109t90.5 -40q57 0 94.5 36t37.5 93v316h103v-525h-103v84q-26 -42 -72.5 -68t-101.5 -26zM161 642v75h284v-75h-284z" />
    <glyph glyph-name="Ubreve" unicode="&#x16c;" horiz-adv-x="740" 
d="M370 -6q-81 0 -145 35.5t-100.5 98t-36.5 141.5v432h108v-423q0 -51 24 -91.5t63.5 -64.5t86.5 -24q50 0 90.5 24t64.5 64.5t24 91.5v423h103v-432q0 -79 -36.5 -141.5t-100.5 -98t-145 -35.5zM370 751q-41 0 -74.5 18.5t-56 49t-31.5 66.5l74 12q11 -25 34 -45t54 -20
t54 20t34 45l74 -12q-8 -36 -31 -66.5t-56 -49t-75 -18.5z" />
    <glyph glyph-name="ubreve" unicode="&#x16d;" horiz-adv-x="605" 
d="M256 -10q-84 0 -134 57t-50 154v324h103v-296q0 -69 32.5 -109t90.5 -40q57 0 94.5 36t37.5 93v316h103v-525h-103v84q-26 -42 -72.5 -68t-101.5 -26zM303 589q-64 0 -106 41.5t-56 112.5l74 12q13 -39 35.5 -62t52.5 -23t52.5 23t35.5 62l74 -12q-14 -71 -56 -112.5
t-106 -41.5z" />
    <glyph glyph-name="Uring" unicode="&#x16e;" horiz-adv-x="740" 
d="M370 -6q-81 0 -145 35.5t-100.5 98t-36.5 141.5v432h108v-423q0 -51 24 -91.5t63.5 -64.5t86.5 -24q50 0 90.5 24t64.5 64.5t24 91.5v423h103v-432q0 -79 -36.5 -141.5t-100.5 -98t-145 -35.5zM369 679q-28 0 -53 14.5t-40.5 38.5t-15.5 52q0 30 15.5 54t40.5 38t53 14
q29 0 54 -14t40.5 -38t15.5 -54q0 -28 -15.5 -52t-40.5 -38.5t-54 -14.5zM369 738q21 0 35.5 13.5t14.5 32.5q0 23 -15 35t-35 12t-34.5 -13t-14.5 -34q0 -19 14.5 -32.5t34.5 -13.5z" />
    <glyph glyph-name="uring" unicode="&#x16f;" horiz-adv-x="605" 
d="M256 -10q-84 0 -134 57t-50 154v324h103v-296q0 -69 32.5 -109t90.5 -40q57 0 94.5 36t37.5 93v316h103v-525h-103v84q-26 -42 -72.5 -68t-101.5 -26zM302 604q-28 0 -53 14.5t-40.5 38.5t-15.5 52q0 29 15 53t40 38.5t54 14.5q30 0 55 -14.5t40 -38.5t15 -53
q0 -28 -15 -52t-40 -38.5t-55 -14.5zM302 663q21 0 35.5 13.5t14.5 32.5q0 21 -14.5 34t-35.5 13t-35 -13.5t-14 -33.5q0 -19 14.5 -32.5t34.5 -13.5z" />
    <glyph glyph-name="Uhungarumlaut" unicode="&#x170;" horiz-adv-x="740" 
d="M370 -6q-81 0 -145 35.5t-100.5 98t-36.5 141.5v432h108v-423q0 -51 24 -91.5t63.5 -64.5t86.5 -24q50 0 90.5 24t64.5 64.5t24 91.5v423h103v-432q0 -79 -36.5 -141.5t-100.5 -98t-145 -35.5zM261 750l-38 48l131 137l72 -76zM460 750l-38 48l131 137l72 -76z" />
    <glyph glyph-name="uhungarumlaut" unicode="&#x171;" horiz-adv-x="605" 
d="M256 -10q-84 0 -134 57t-50 154v324h103v-296q0 -69 32.5 -109t90.5 -40q57 0 94.5 36t37.5 93v316h103v-525h-103v84q-26 -42 -72.5 -68t-101.5 -26zM332 606l-34 51l143 125l65 -82zM133 606l-34 51l143 125l65 -82z" />
    <glyph glyph-name="Uogonek" unicode="&#x172;" horiz-adv-x="740" 
d="M434 -200q-43 0 -76 26.5t-33 76.5q0 26 10.5 48.5t27.5 42.5q-79 2 -141.5 38t-98 97.5t-35.5 139.5v432h108v-423q0 -51 24 -91.5t63.5 -64.5t86.5 -24q50 0 90.5 24t64.5 64.5t24 91.5v423h103v-432q0 -74 -32.5 -133.5t-87.5 -95.5v0v0q-11 -7 -22 -13
q-94 -58 -94 -111q0 -39 34 -39q20 0 37 25l56 -40q-10 -25 -41.5 -43.5t-67.5 -18.5z" />
    <glyph glyph-name="uogonek" unicode="&#x173;" horiz-adv-x="605" 
d="M256 -10q-84 0 -134 57t-50 154v324h103v-296q0 -69 32.5 -109t90.5 -40q57 0 94.5 36t37.5 93v316h103v-525h-103v84q-26 -42 -72.5 -68t-101.5 -26zM443 -200q-29 0 -54 14t-40 37.5t-15 51.5q0 50 43 83t123 55l33 -41q-44 -10 -76 -35t-32 -52q0 -16 9.5 -26
t24.5 -10q20 0 37 25l56 -40q-10 -25 -38 -43.5t-71 -18.5z" />
    <glyph glyph-name="Wcircumflex" unicode="&#x174;" horiz-adv-x="996" 
d="M247 0l-223 700h115l135 -438q6 -18 11.5 -43t10.5 -49q12 43 18 62t11 31l126 316h97l122 -316q9 -23 16 -44.5t13 -43.5q2 12 4 21.5t6.5 25t13.5 43.5l133 435h116l-223 -700h-75l-180 425l-174 -425h-73zM374 755l-37 35l124 101h73l124 -101l-37 -35l-123 58z" />
    <glyph glyph-name="wcircumflex" unicode="&#x175;" horiz-adv-x="800" 
d="M201 0l-179 525l104 1l118 -362l126 278h62l125 -274l117 357h104l-177 -525h-71l-134 305l-125 -305h-70zM280 607l-38 33l115 113h86l115 -113l-38 -33l-120 65z" />
    <glyph glyph-name="Ycircumflex" unicode="&#x176;" horiz-adv-x="660" 
d="M286 0v310l-276 390h130l202 -290l184 290h124l-256 -388v-312h-108zM206 755l-37 35l124 101h73l124 -101l-37 -35l-123 58z" />
    <glyph glyph-name="ycircumflex" unicode="&#x177;" horiz-adv-x="581" 
d="M160 -230l89 205l-244 550h120l164 -386q5 -11 13 -35l15 42l137 379h122l-216 -525l-89 -230h-111zM171 607l-38 33l115 113h86l115 -113l-38 -33l-120 65z" />
    <glyph glyph-name="Ydieresis" unicode="&#x178;" horiz-adv-x="660" 
d="M286 0v310l-276 390h130l202 -290l184 290h124l-256 -388v-312h-108zM433 759q-35 0 -52 18t-17 47q0 25 17 45t52 20t52 -18t17 -47q0 -25 -17 -45t-52 -20zM227 759q-35 0 -52 18t-17 47q0 25 17 45t52 20t52 -18t17 -47q0 -25 -17 -45t-52 -20z" />
    <glyph glyph-name="Zacute" unicode="&#x179;" horiz-adv-x="659" 
d="M60 0v79l386 517h-360v104h507v-78l-384 -518h395v-104h-544zM262 755l-28 52l183 113l47 -90z" />
    <glyph glyph-name="zacute" unicode="&#x17a;" horiz-adv-x="484" 
d="M50 0v86l262 350h-262v89h383v-84l-263 -352h269v-89h-389zM172 606l-34 51l143 125l65 -82z" />
    <glyph glyph-name="Zdotaccent" unicode="&#x17b;" horiz-adv-x="659" 
d="M60 0v79l386 517h-360v104h507v-78l-384 -518h395v-104h-544zM330 759q-35 0 -52 18t-17 47q0 25 17 45t52 20t52 -18t17 -47q0 -25 -17 -45t-52 -20z" />
    <glyph glyph-name="zdotaccent" unicode="&#x17c;" horiz-adv-x="484" 
d="M50 0v86l262 350h-262v89h383v-84l-263 -352h269v-89h-389zM242 641q-33 0 -51 17t-18 48q0 29 18.5 47t50.5 18q33 0 51 -17t18 -48q0 -29 -18.5 -47t-50.5 -18z" />
    <glyph glyph-name="Zcaron" unicode="&#x17d;" horiz-adv-x="659" 
d="M60 0v79l386 517h-360v104h507v-78l-384 -518h395v-104h-544zM287 757l-120 103l38 33l125 -56l125 56l38 -33l-120 -103h-86z" />
    <glyph glyph-name="zcaron" unicode="&#x17e;" horiz-adv-x="484" 
d="M50 0v86l262 350h-262v89h383v-84l-263 -352h269v-89h-389zM199 607l-105 113l38 33l110 -64l110 64l38 -33l-105 -113h-86z" />
    <glyph glyph-name="uni018F" unicode="&#x18f;" horiz-adv-x="780" 
d="M390 -10q-68 0 -128.5 24t-107 68t-75 103t-31.5 128v80h579q-12 102 -76.5 161t-163.5 59q-63 0 -112 -19t-91 -58l-68 70q55 54 119.5 79t151.5 25q71 0 133.5 -28t110 -77.5t74.5 -114.5t27 -140t-26.5 -140t-74 -114.5t-109 -77.5t-132.5 -28zM390 87q61 0 110 26
t81.5 73t43.5 110h-473q10 -60 44.5 -107t85 -74.5t108.5 -27.5z" />
    <glyph glyph-name="florin" unicode="&#x192;" horiz-adv-x="519" 
d="M96 -31q-26 0 -51 9t-41 23l28 68q28 -15 58 -15q50 0 65 75l41 233h-125v83h140l16 93q28 154 171 154q67 0 118 -35l-30 -64q-41 15 -69 15q-78 0 -93 -85l-14 -79h130v-83h-144l-43 -242q-28 -150 -157 -150z" />
    <glyph glyph-name="uni019D" unicode="&#x19d;" horiz-adv-x="777" 
d="M5 -197l-39 79q116 0 116 119v699h97l407 -545q-8 61 -11.5 141t-3.5 174v230h108v-700h-99l-407 533q7 -75 12 -141.5t5 -100.5v-315q0 -78 -51 -125.5t-134 -47.5z" />
    <glyph glyph-name="Ohorn" unicode="&#x1a0;" horiz-adv-x="782" 
d="M391 -10q-74 0 -136.5 27t-109 75.5t-72 114t-25.5 143.5t25.5 143.5t72 114t109 75.5t136.5 27q25 0 44.5 -2.5t35.5 -6.5q26 -6 48 -6q89 0 89 119h92q0 -66 -23 -113t-73 -64q60 -49 95 -123t35 -164q0 -77 -25.5 -142.5t-72 -114.5t-109 -76t-136.5 -27zM391 95
q67 0 120 33t83 91t30 131t-30 131t-83 91t-120 33q-68 0 -120.5 -33t-82.5 -90.5t-30 -131.5t30 -131.5t82.5 -90.5t120.5 -33z" />
    <glyph glyph-name="ohorn" unicode="&#x1a1;" horiz-adv-x="615" 
d="M308 -10q-77 0 -137.5 35.5t-95.5 97t-35 140.5t35 140.5t95.5 97t137.5 35.5q22 0 40.5 -3t32.5 -6q9 -2 16.5 -3.5t13.5 -1.5q78 0 78 117h82q0 -60 -20 -104.5t-66 -63.5q42 -37 66 -90t24 -118q0 -79 -35 -140.5t-95.5 -97t-136.5 -35.5zM308 84q47 0 84 23.5t58 64
t20 91.5q1 52 -20 92.5t-58 63.5t-84 23t-84.5 -23.5t-58.5 -64t-20 -91.5q-1 -51 20 -91.5t58.5 -64t84.5 -23.5z" />
    <glyph glyph-name="Uhorn" unicode="&#x1af;" horiz-adv-x="740" 
d="M370 -6q-81 0 -145 35.5t-100.5 98t-36.5 141.5v432h108v-423q0 -51 24 -91.5t63.5 -64.5t86.5 -24q50 0 90.5 24t64.5 64.5t24 91.5v423h38q47 0 66.5 30.5t19.5 82.5h92q0 -71 -29 -119t-84 -67v-359q0 -79 -36.5 -141.5t-100.5 -98t-145 -35.5z" />
    <glyph glyph-name="uhorn" unicode="&#x1b0;" horiz-adv-x="605" 
d="M256 -10q-84 0 -134 57t-50 154v324h103v-296q0 -69 32.5 -109t90.5 -40q57 0 94.5 36t37.5 93v316q98 0 98 114h82q0 -51 -18 -92.5t-59 -64.5v-482h-103v84q-26 -41 -72.5 -67.5t-101.5 -26.5z" />
    <glyph glyph-name="uni01C4" unicode="&#x1c4;" horiz-adv-x="1362" 
d="M98 0v700h274q100 0 173.5 -44t114 -123t40.5 -183q0 -105 -40 -183.5t-113.5 -122.5t-174.5 -44h-274zM367 596h-161v-492h161q106 0 164.5 65.5t58.5 180.5q0 114 -59 180t-164 66zM763 0v79l386 517h-360v104h507v-78l-384 -518h395v-104h-544zM990 757l-120 103
l38 33l125 -56l125 56l38 -33l-120 -103h-86z" />
    <glyph glyph-name="uni01C5" unicode="&#x1c5;" horiz-adv-x="1231" 
d="M98 0v700h274q100 0 173.5 -44t114 -123t40.5 -183q0 -105 -40 -183.5t-113.5 -122.5t-174.5 -44h-274zM367 596h-161v-492h161q106 0 164.5 65.5t58.5 180.5q0 114 -59 180t-164 66zM797 0v86l262 350h-262v89h383v-84l-263 -352h269v-89h-389zM946 607l-105 113l38 33
l110 -64l110 64l38 -33l-105 -113h-86z" />
    <glyph glyph-name="uni01C6" unicode="&#x1c6;" horiz-adv-x="1118" 
d="M291 -10q-72 0 -128.5 35.5t-89.5 97t-33 140.5t32.5 140.5t88.5 97t127 35.5q52 0 98.5 -22t74.5 -54v280h103v-740h-103v72q-24 -34 -71 -58t-99 -24zM305 79q47 0 83 24t56.5 65.5t20.5 94.5t-20.5 94.5t-56.5 65.5t-83 24t-83 -24t-56.5 -65.5t-20.5 -94.5
t20.5 -94.5t56.5 -65.5t83 -24zM684 0v86l262 350h-262v89h383v-84l-263 -352h269v-89h-389zM833 607l-105 113l38 33l110 -64l110 64l38 -33l-105 -113h-86z" />
    <glyph glyph-name="uni01C7" unicode="&#x1c7;" horiz-adv-x="1241" 
d="M98 0v700h108v-596h328v-104h-436zM855 -10q-68 0 -122.5 35t-83.5 92l68 71q29 -39 50.5 -59t42 -27t45.5 -7q54 0 87 36t33 92v377h-128v100h344v-100h-108v-387q0 -63 -29 -113.5t-80.5 -80t-118.5 -29.5z" />
    <glyph glyph-name="uni01C8" unicode="&#x1c8;" horiz-adv-x="864" 
d="M98 0v700h108v-596h328v-104h-436zM739 641q-33 0 -51 17t-18 48q0 29 18.5 47t50.5 18q33 0 51 -17t18 -48q0 -29 -18.5 -47t-50.5 -18zM608 -197l-39 79q116 0 116 119v524h103v-549q0 -77 -50 -125t-130 -48z" />
    <glyph glyph-name="uni01C9" unicode="&#x1c9;" horiz-adv-x="502" 
d="M74 0v740h103v-740h-103zM377 641q-33 0 -51 17t-18 48q0 29 18.5 47t50.5 18q33 0 51 -17t18 -48q0 -29 -18.5 -47t-50.5 -18zM246 -197l-39 79q116 0 116 119v524h103v-549q0 -77 -50 -125t-130 -48z" />
    <glyph glyph-name="uni01CA" unicode="&#x1ca;" horiz-adv-x="1435" 
d="M98 0v700h97l407 -545q-8 61 -11.5 141t-3.5 174v230h108v-700h-99l-407 534q7 -87 11 -134.5t5 -71t1 -37.5v-291h-108zM1049 -10q-68 0 -122.5 35t-83.5 92l68 71q29 -39 50.5 -59t42 -27t45.5 -7q54 0 87 36t33 92v377h-128v100h344v-100h-108v-387q0 -63 -29 -113.5
t-80.5 -80t-118.5 -29.5z" />
    <glyph glyph-name="uni01CB" unicode="&#x1cb;" horiz-adv-x="1058" 
d="M98 0v700h97l407 -545q-8 61 -11.5 141t-3.5 174v230h108v-700h-99l-407 534q7 -87 11 -134.5t5 -71t1 -37.5v-291h-108zM933 641q-33 0 -51 17t-18 48q0 29 18.5 47t50.5 18q33 0 51 -17t18 -48q0 -29 -18.5 -47t-50.5 -18zM802 -197l-39 79q116 0 116 119v524h103v-549
q0 -77 -50 -125t-130 -48z" />
    <glyph glyph-name="uni01CC" unicode="&#x1cc;" horiz-adv-x="860" 
d="M72 0v525h103v-82q26 39 73.5 66t98.5 27q180 0 180 -216v-320h-103v313q0 135 -111 129q-39 0 -70.5 -16.5t-49.5 -44.5t-18 -63v-318h-103zM735 641q-33 0 -51 17t-18 48q0 29 18.5 47t50.5 18q33 0 51 -17t18 -48q0 -29 -18.5 -47t-50.5 -18zM604 -197l-39 79
q116 0 116 119v524h103v-549q0 -77 -50 -125t-130 -48z" />
    <glyph glyph-name="uni01CD" unicode="&#x1cd;" horiz-adv-x="700" 
d="M25 0l271 700h110l269 -700h-115l-66 174h-293l-66 -174h-110zM294 418l-53 -140h214l-55 144q-3 7 -12 35t-20 62t-20 60q-8 -26 -18 -57t-19.5 -59t-16.5 -45zM307 757l-120 103l38 33l125 -56l125 56l38 -33l-120 -103h-86z" />
    <glyph glyph-name="uni01CE" unicode="&#x1ce;" horiz-adv-x="633" 
d="M274 -10q-65 0 -118.5 36t-85.5 98t-32 140q0 79 32.5 140.5t88 96.5t124.5 35q59 0 104.5 -25.5t69.5 -65.5v80h104v-525h-104v81q-27 -38 -76.5 -64.5t-106.5 -26.5zM301 85q47 0 83 23t56.5 63.5t20.5 92.5q0 51 -20.5 91t-56.5 63t-83 23q-46 0 -81.5 -23t-56 -63
t-20.5 -91q0 -52 20.5 -92.5t56 -63.5t81.5 -23zM274 607l-105 113l38 33l110 -64l110 64l38 -33l-105 -113h-86z" />
    <glyph glyph-name="uni01CF" unicode="&#x1cf;" horiz-adv-x="478" 
d="M72 0v100h113v500h-113v100h334v-100h-113v-500h113v-100h-334zM196 757l-120 103l38 33l125 -56l125 56l38 -33l-120 -103h-86z" />
    <glyph glyph-name="uni01D0" unicode="&#x1d0;" horiz-adv-x="243" 
d="M72 0v525h103v-525h-103zM79 607l-105 113l38 33l110 -64l110 64l38 -33l-105 -113h-86z" />
    <glyph glyph-name="uni01D1" unicode="&#x1d1;" horiz-adv-x="782" 
d="M391 -10q-74 0 -136.5 27t-109 75.5t-72 114t-25.5 143.5t25.5 143.5t72 114t109 75.5t136.5 27t136.5 -27t109 -76t72 -114.5t25.5 -142.5t-25.5 -142.5t-72 -114.5t-109 -76t-136.5 -27zM391 95q67 0 120 33t83 91t30 131t-30 131t-83 91t-120 33q-68 0 -120.5 -33
t-82.5 -90.5t-30 -131.5t30 -131.5t82.5 -90.5t120.5 -33zM348 757l-120 103l38 33l125 -56l125 56l38 -33l-120 -103h-86z" />
    <glyph glyph-name="uni01D2" unicode="&#x1d2;" horiz-adv-x="615" 
d="M308 -10q-77 0 -137.5 35.5t-95.5 97t-35 140.5t35 140.5t95.5 97t137.5 35.5q76 0 136.5 -35.5t95.5 -97t35 -140.5t-35 -140.5t-95.5 -97t-136.5 -35.5zM308 84q47 0 84 23.5t58 64t20 91.5q1 52 -20 92.5t-58 63.5t-84 23t-84.5 -23.5t-58.5 -64t-20 -91.5
q-1 -51 20 -91.5t58.5 -64t84.5 -23.5zM265 607l-105 113l38 33l110 -64l110 64l38 -33l-105 -113h-86z" />
    <glyph glyph-name="uni01D3" unicode="&#x1d3;" horiz-adv-x="740" 
d="M370 -6q-81 0 -145 35.5t-100.5 98t-36.5 141.5v432h108v-423q0 -51 24 -91.5t63.5 -64.5t86.5 -24q50 0 90.5 24t64.5 64.5t24 91.5v423h103v-432q0 -79 -36.5 -141.5t-100.5 -98t-145 -35.5zM327 757l-120 103l38 33l125 -56l125 56l38 -33l-120 -103h-86z" />
    <glyph glyph-name="uni01D4" unicode="&#x1d4;" horiz-adv-x="605" 
d="M256 -10q-84 0 -134 57t-50 154v324h103v-296q0 -69 32.5 -109t90.5 -40q57 0 94.5 36t37.5 93v316h103v-525h-103v84q-26 -42 -72.5 -68t-101.5 -26zM260 607l-105 113l38 33l110 -64l110 64l38 -33l-105 -113h-86z" />
    <glyph glyph-name="Gcaron" unicode="&#x1e6;" horiz-adv-x="766" 
d="M411 -10q-76 0 -142 27.5t-116 76.5t-77.5 114.5t-27.5 141.5q0 75 27.5 140t77 113.5t115.5 75.5t142 27q53 0 103.5 -15t91.5 -42t67 -62l-70 -73q-91 87 -192 87q-71 0 -128 -33t-90.5 -90t-33.5 -128q0 -52 20 -98.5t55.5 -81.5t82 -55t98.5 -20q53 0 96.5 20
t70 54.5t26.5 76.5v6h-199v107h310q3 -17 4 -31.5t1 -28.5q0 -92 -41.5 -161.5t-112.5 -108.5t-158 -39zM360 757l-120 103l38 33l125 -56l125 56l38 -33l-120 -103h-86z" />
    <glyph glyph-name="gcaron" unicode="&#x1e7;" horiz-adv-x="649" 
d="M307 -230q-56 0 -111.5 17.5t-89.5 45.5l38 80q30 -23 74.5 -37t88.5 -14q167 0 167 158v63q-14 -25 -41.5 -46t-62 -34t-70.5 -13q-75 0 -133.5 35.5t-92.5 97t-34 140.5t33.5 140.5t92 97t131.5 35.5q55 0 103 -25t74 -57v71h103v-493q0 -125 -72 -193.5t-198 -68.5z
M311 85q49 0 87 23t59 63t21 92t-21.5 92.5t-59 63.5t-86.5 23q-48 0 -85.5 -23.5t-59 -64t-21.5 -91.5t21.5 -91.5t59 -63.5t85.5 -23zM282 607l-105 113l38 33l110 -64l110 64l38 -33l-105 -113h-86z" />
    <glyph glyph-name="uni01EA" unicode="&#x1ea;" horiz-adv-x="782" 
d="M391 -10q-74 0 -136.5 27t-109 75.5t-72 114t-25.5 143.5t25.5 143.5t72 114t109 75.5t136.5 27t136.5 -27t109 -76t72 -114.5t25.5 -142.5q0 -110 -51.5 -196t-137.5 -129q-91 -56 -91 -109q0 -39 34 -39q20 0 37 25l56 -40q-10 -25 -41.5 -43.5t-67.5 -18.5
q-43 0 -76 26.5t-33 76.5q0 25 9.5 46.5t25.5 40.5h-7zM391 95q67 0 120 33t83 91t30 131t-30 131t-83 91t-120 33q-68 0 -120.5 -33t-82.5 -90.5t-30 -131.5t30 -131.5t82.5 -90.5t120.5 -33z" />
    <glyph glyph-name="uni01EB" unicode="&#x1eb;" horiz-adv-x="615" 
d="M378 -200q-50 0 -78 30t-28 71q0 27 9.5 49t26.5 40q-77 0 -137.5 35.5t-95.5 97t-35 140.5t35 140.5t95.5 97t137.5 35.5q76 0 136.5 -35.5t95.5 -97t35 -140.5q0 -81 -37.5 -144t-99.5 -97q-35 -25 -55 -48.5t-20 -54.5q0 -17 8.5 -29.5t25.5 -12.5q21 0 38 25l56 -40
q-13 -25 -43.5 -43.5t-69.5 -18.5zM308 84q47 0 84 23.5t58 64t20 91.5q1 52 -20 92.5t-58 63.5t-84 23t-84.5 -23.5t-58.5 -64t-20 -91.5q-1 -51 20 -91.5t58.5 -64t84.5 -23.5z" />
    <glyph glyph-name="uni01F1" unicode="&#x1f1;" horiz-adv-x="1362" 
d="M98 0v700h274q100 0 173.5 -44t114 -123t40.5 -183q0 -105 -40 -183.5t-113.5 -122.5t-174.5 -44h-274zM367 596h-161v-492h161q106 0 164.5 65.5t58.5 180.5q0 114 -59 180t-164 66zM763 0v79l386 517h-360v104h507v-78l-384 -518h395v-104h-544z" />
    <glyph glyph-name="uni01F2" unicode="&#x1f2;" horiz-adv-x="1231" 
d="M98 0v700h274q100 0 173.5 -44t114 -123t40.5 -183q0 -105 -40 -183.5t-113.5 -122.5t-174.5 -44h-274zM367 596h-161v-492h161q106 0 164.5 65.5t58.5 180.5q0 114 -59 180t-164 66zM797 0v86l262 350h-262v89h383v-84l-263 -352h269v-89h-389z" />
    <glyph glyph-name="Aringacute" unicode="&#x1fa;" horiz-adv-x="700" 
d="M25 0l271 700h110l269 -700h-115l-66 174h-293l-66 -174h-110zM294 418l-53 -140h214l-55 144q-3 7 -12 35t-20 62t-20 60q-8 -26 -18 -57t-19.5 -59t-16.5 -45zM349 679q-28 0 -53 14.5t-40.5 38.5t-15.5 52q0 30 15.5 54t40.5 38t53 14q29 0 54 -14t40.5 -38t15.5 -54
q0 -28 -15.5 -52t-40.5 -38.5t-54 -14.5zM349 738q21 0 35.5 13.5t14.5 32.5q0 23 -15 35t-35 12t-34.5 -13t-14.5 -34q0 -19 14.5 -32.5t34.5 -13.5zM282 915l-28 52l183 113l47 -90z" />
    <glyph glyph-name="aringacute" unicode="&#x1fb;" horiz-adv-x="633" 
d="M274 -10q-65 0 -118.5 36t-85.5 98t-32 140q0 79 32.5 140.5t88 96.5t124.5 35q59 0 104.5 -25.5t69.5 -65.5v80h104v-525h-104v81q-27 -38 -76.5 -64.5t-106.5 -26.5zM301 85q47 0 83 23t56.5 63.5t20.5 92.5q0 51 -20.5 91t-56.5 63t-83 23q-46 0 -81.5 -23t-56 -63
t-20.5 -91q0 -52 20.5 -92.5t56 -63.5t81.5 -23zM316 604q-28 0 -53 14.5t-40.5 38.5t-15.5 52q0 29 15 53t40 38.5t54 14.5q30 0 55 -14.5t40 -38.5t15 -53q0 -28 -15 -52t-40 -38.5t-55 -14.5zM316 663q21 0 35.5 13.5t14.5 32.5q0 21 -14.5 34t-35.5 13t-35 -13.5
t-14 -33.5q0 -19 14.5 -32.5t34.5 -13.5zM247 839l-34 51l143 125l65 -82z" />
    <glyph glyph-name="AEacute" unicode="&#x1fc;" horiz-adv-x="969" 
d="M5 0l488 700h401v-93h-328v-205h283v-94h-283v-215h328v-93h-429v153h-246l-105 -153h-109zM465 245v268l-184 -268h184zM577 755l-28 52l183 113l47 -90z" />
    <glyph glyph-name="aeacute" unicode="&#x1fd;" horiz-adv-x="899" 
d="M216 -10q-51 0 -91 20t-63.5 55.5t-23.5 83.5q0 84 60 127.5t176 42.5h99v37q0 37 -33.5 61t-77.5 24q-87 0 -144 -73l-67 67q43 49 97 75t116 26q66 0 113 -19.5t70 -56.5q33 36 77.5 56t96.5 20q68 -1 122 -34t85 -90.5t31 -130.5l-1 -44h-390q6 -45 32 -79.5t65.5 -54
t88.5 -19.5q39 0 72.5 13t72.5 47l50 -75q-36 -35 -93 -57t-112 -22q-73 0 -130 28t-93 77q-35 -47 -90 -76t-115 -29zM621 441q-127 0 -150 -122h283v7q-3 33 -22 59t-48 41t-63 15zM220 78q54 0 99.5 27t65.5 67q-9 31 -11 65h-113q-61 0 -93.5 -22.5t-32.5 -63.5
q0 -33 24 -53t61 -20zM380 606l-34 51l143 125l65 -82z" />
    <glyph glyph-name="Oslashacute" unicode="&#x1fe;" horiz-adv-x="770" 
d="M123 -33l-63 53l71 87q-40 47 -62 109t-22 134q0 78 25.5 143.5t72 114t109 75.5t136.5 27q53 0 101 -14.5t88 -40.5l70 86l68 -47l-76 -93q43 -48 67.5 -112t24.5 -139q0 -77 -25.5 -142.5t-72 -114.5t-109 -76t-136.5 -27q-56 0 -106.5 16t-91.5 45zM157 350
q0 -45 11.5 -85t33.5 -72l308 378q-53 34 -120 34q-68 0 -120.5 -33t-82.5 -90.5t-30 -131.5zM390 95q67 0 120 33t83 91t30 131q0 48 -13.5 90.5t-38.5 74.5l-311 -381q57 -39 130 -39zM317 755l-28 52l183 113l47 -90z" />
    <glyph glyph-name="oslashacute" unicode="&#x1ff;" horiz-adv-x="615" 
d="M107 -35l-66 48l61 71q-30 35 -46 80.5t-16 98.5q0 79 35 140.5t95.5 97t137.5 35.5q40 0 76.5 -10.5t67.5 -29.5l42 49l67 -49l-47 -55q29 -35 45 -80.5t16 -97.5q0 -79 -35 -140.5t-95.5 -97t-136.5 -35.5q-41 0 -77.5 10.5t-67.5 29.5zM145 263q-1 -55 24 -99l219 257
q-36 21 -80 21q-47 0 -84.5 -23.5t-58.5 -64t-20 -91.5zM308 84q47 0 84 23.5t58 64t20 91.5q1 55 -24 99l-219 -257q37 -21 81 -21zM238 606l-34 51l143 125l65 -82z" />
    <glyph glyph-name="uni0200" unicode="&#x200;" horiz-adv-x="700" 
d="M25 0l271 700h110l269 -700h-115l-66 174h-293l-66 -174h-110zM294 418l-53 -140h214l-55 144q-3 7 -12 35t-20 62t-20 60q-8 -26 -18 -57t-19.5 -59t-16.5 -45zM461 750l-165 109l72 76l131 -137zM262 750l-165 109l72 76l131 -137z" />
    <glyph glyph-name="uni0201" unicode="&#x201;" horiz-adv-x="633" 
d="M274 -10q-65 0 -118.5 36t-85.5 98t-32 140q0 79 32.5 140.5t88 96.5t124.5 35q59 0 104.5 -25.5t69.5 -65.5v80h104v-525h-104v81q-27 -38 -76.5 -64.5t-106.5 -26.5zM301 85q47 0 83 23t56.5 63.5t20.5 92.5q0 51 -20.5 91t-56.5 63t-83 23q-46 0 -81.5 -23t-56 -63
t-20.5 -91q0 -52 20.5 -92.5t56 -63.5t81.5 -23zM420 606l-174 94l65 82l143 -125zM221 606l-174 94l65 82l143 -125z" />
    <glyph glyph-name="uni0202" unicode="&#x202;" horiz-adv-x="700" 
d="M25 0l271 700h110l269 -700h-115l-66 174h-293l-66 -174h-110zM294 418l-53 -140h214l-55 144q-3 7 -12 35t-20 62t-20 60q-8 -26 -18 -57t-19.5 -59t-16.5 -45zM262 751l-74 12q9 36 31.5 66.5t56 49t74.5 18.5q42 0 75 -18.5t56 -49t31 -66.5l-74 -12q-11 25 -34 45
t-54 20t-54 -20t-34 -45z" />
    <glyph glyph-name="uni0203" unicode="&#x203;" horiz-adv-x="633" 
d="M274 -10q-65 0 -118.5 36t-85.5 98t-32 140q0 79 32.5 140.5t88 96.5t124.5 35q59 0 104.5 -25.5t69.5 -65.5v80h104v-525h-104v81q-27 -38 -76.5 -64.5t-106.5 -26.5zM301 85q47 0 83 23t56.5 63.5t20.5 92.5q0 51 -20.5 91t-56.5 63t-83 23q-46 0 -81.5 -23t-56 -63
t-20.5 -91q0 -52 20.5 -92.5t56 -63.5t81.5 -23zM229 599l-74 12q14 71 56 112.5t106 41.5t106 -41.5t56 -112.5l-74 -12q-13 39 -35.5 62t-52.5 23t-52.5 -23t-35.5 -62z" />
    <glyph glyph-name="uni0204" unicode="&#x204;" horiz-adv-x="614" 
d="M98 0v700h441v-104h-333v-185h278v-104h-278v-203h333v-104h-441zM438 750l-165 109l72 76l131 -137zM239 750l-165 109l72 76l131 -137z" />
    <glyph glyph-name="uni0205" unicode="&#x205;" horiz-adv-x="586" 
d="M317 -10q-81 0 -143.5 34.5t-98 94.5t-35.5 138q0 83 34.5 145.5t95 98t138.5 36.5q68 -1 122.5 -34t86 -90t29.5 -131l-1 -44h-402q9 -71 58.5 -112.5t125.5 -41.5q39 0 72.5 13t72.5 47l52 -73q-37 -36 -94 -58.5t-113 -22.5zM308 442q-135 0 -161 -122h294v7
q-3 33 -22 59t-48 41t-63 15zM411 606l-174 94l65 82l143 -125zM212 606l-174 94l65 82l143 -125z" />
    <glyph glyph-name="uni0206" unicode="&#x206;" horiz-adv-x="614" 
d="M98 0v700h441v-104h-333v-185h278v-104h-278v-203h333v-104h-441zM239 751l-74 12q9 36 31.5 66.5t56 49t74.5 18.5q42 0 75 -18.5t56 -49t31 -66.5l-74 -12q-11 25 -34 45t-54 20t-54 -20t-34 -45z" />
    <glyph glyph-name="uni0207" unicode="&#x207;" horiz-adv-x="586" 
d="M317 -10q-81 0 -143.5 34.5t-98 94.5t-35.5 138q0 83 34.5 145.5t95 98t138.5 36.5q68 -1 122.5 -34t86 -90t29.5 -131l-1 -44h-402q9 -71 58.5 -112.5t125.5 -41.5q39 0 72.5 13t72.5 47l52 -73q-37 -36 -94 -58.5t-113 -22.5zM308 442q-135 0 -161 -122h294v7
q-3 33 -22 59t-48 41t-63 15zM220 599l-74 12q14 71 56 112.5t106 41.5t106 -41.5t56 -112.5l-74 -12q-13 39 -35.5 62t-52.5 23t-52.5 -23t-35.5 -62z" />
    <glyph glyph-name="uni0208" unicode="&#x208;" horiz-adv-x="478" 
d="M72 0v100h113v500h-113v100h334v-100h-113v-500h113v-100h-334zM350 750l-165 109l72 76l131 -137zM151 750l-165 109l72 76l131 -137z" />
    <glyph glyph-name="uni0209" unicode="&#x209;" horiz-adv-x="243" 
d="M72 0v525h103v-525h-103zM225 606l-174 94l65 82l143 -125zM26 606l-174 94l65 82l143 -125z" />
    <glyph glyph-name="uni020A" unicode="&#x20a;" horiz-adv-x="478" 
d="M72 0v100h113v500h-113v100h334v-100h-113v-500h113v-100h-334zM151 751l-74 12q9 36 31.5 66.5t56 49t74.5 18.5q42 0 75 -18.5t56 -49t31 -66.5l-74 -12q-11 25 -34 45t-54 20t-54 -20t-34 -45z" />
    <glyph glyph-name="uni020B" unicode="&#x20b;" horiz-adv-x="243" 
d="M72 0v525h103v-525h-103zM34 599l-74 12q14 71 56 112.5t106 41.5t106 -41.5t56 -112.5l-74 -12q-13 39 -35.5 62t-52.5 23t-52.5 -23t-35.5 -62z" />
    <glyph glyph-name="uni020C" unicode="&#x20c;" horiz-adv-x="782" 
d="M391 -10q-74 0 -136.5 27t-109 75.5t-72 114t-25.5 143.5t25.5 143.5t72 114t109 75.5t136.5 27t136.5 -27t109 -76t72 -114.5t25.5 -142.5t-25.5 -142.5t-72 -114.5t-109 -76t-136.5 -27zM391 95q67 0 120 33t83 91t30 131t-30 131t-83 91t-120 33q-68 0 -120.5 -33
t-82.5 -90.5t-30 -131.5t30 -131.5t82.5 -90.5t120.5 -33zM502 750l-165 109l72 76l131 -137zM303 750l-165 109l72 76l131 -137z" />
    <glyph glyph-name="uni020D" unicode="&#x20d;" horiz-adv-x="615" 
d="M308 -10q-77 0 -137.5 35.5t-95.5 97t-35 140.5t35 140.5t95.5 97t137.5 35.5q76 0 136.5 -35.5t95.5 -97t35 -140.5t-35 -140.5t-95.5 -97t-136.5 -35.5zM308 84q47 0 84 23.5t58 64t20 91.5q1 52 -20 92.5t-58 63.5t-84 23t-84.5 -23.5t-58.5 -64t-20 -91.5
q-1 -51 20 -91.5t58.5 -64t84.5 -23.5zM411 606l-174 94l65 82l143 -125zM212 606l-174 94l65 82l143 -125z" />
    <glyph glyph-name="uni020E" unicode="&#x20e;" horiz-adv-x="782" 
d="M391 -10q-74 0 -136.5 27t-109 75.5t-72 114t-25.5 143.5t25.5 143.5t72 114t109 75.5t136.5 27t136.5 -27t109 -76t72 -114.5t25.5 -142.5t-25.5 -142.5t-72 -114.5t-109 -76t-136.5 -27zM391 95q67 0 120 33t83 91t30 131t-30 131t-83 91t-120 33q-68 0 -120.5 -33
t-82.5 -90.5t-30 -131.5t30 -131.5t82.5 -90.5t120.5 -33zM303 751l-74 12q9 36 31.5 66.5t56 49t74.5 18.5q42 0 75 -18.5t56 -49t31 -66.5l-74 -12q-11 25 -34 45t-54 20t-54 -20t-34 -45z" />
    <glyph glyph-name="uni020F" unicode="&#x20f;" horiz-adv-x="615" 
d="M308 -10q-77 0 -137.5 35.5t-95.5 97t-35 140.5t35 140.5t95.5 97t137.5 35.5q76 0 136.5 -35.5t95.5 -97t35 -140.5t-35 -140.5t-95.5 -97t-136.5 -35.5zM308 84q47 0 84 23.5t58 64t20 91.5q1 52 -20 92.5t-58 63.5t-84 23t-84.5 -23.5t-58.5 -64t-20 -91.5
q-1 -51 20 -91.5t58.5 -64t84.5 -23.5zM220 599l-74 12q14 71 56 112.5t106 41.5t106 -41.5t56 -112.5l-74 -12q-13 39 -35.5 62t-52.5 23t-52.5 -23t-35.5 -62z" />
    <glyph glyph-name="uni0210" unicode="&#x210;" horiz-adv-x="695" 
d="M98 0v700h298q60 0 110.5 -29.5t80.5 -80t30 -113.5q0 -64 -38 -118t-97 -79l163 -281l-131 1l-148 263h-160v-263h-108zM206 367h200q44 0 72.5 32t28.5 79q0 52 -36.5 85t-92.5 33h-172v-229zM429 750l-165 109l72 76l131 -137zM230 750l-165 109l72 76l131 -137z" />
    <glyph glyph-name="uni0211" unicode="&#x211;" horiz-adv-x="403" 
d="M72 0v525h104v-99q23 47 67 78.5t93 31.5q17 0 32.5 -3t24.5 -7l-27 -112q-12 5 -26.5 8.5t-28.5 3.5q-36 0 -66.5 -18t-49.5 -49t-19 -69v-290h-104zM345 606l-174 94l65 82l143 -125zM146 606l-174 94l65 82l143 -125z" />
    <glyph glyph-name="uni0212" unicode="&#x212;" horiz-adv-x="695" 
d="M98 0v700h298q60 0 110.5 -29.5t80.5 -80t30 -113.5q0 -64 -38 -118t-97 -79l163 -281l-131 1l-148 263h-160v-263h-108zM206 367h200q44 0 72.5 32t28.5 79q0 52 -36.5 85t-92.5 33h-172v-229zM230 751l-74 12q9 36 31.5 66.5t56 49t74.5 18.5q42 0 75 -18.5t56 -49
t31 -66.5l-74 -12q-11 25 -34 45t-54 20t-54 -20t-34 -45z" />
    <glyph glyph-name="uni0213" unicode="&#x213;" horiz-adv-x="403" 
d="M72 0v525h104v-99q23 47 67 78.5t93 31.5q17 0 32.5 -3t24.5 -7l-27 -112q-12 5 -26.5 8.5t-28.5 3.5q-36 0 -66.5 -18t-49.5 -49t-19 -69v-290h-104zM154 599l-74 12q14 71 56 112.5t106 41.5t106 -41.5t56 -112.5l-74 -12q-13 39 -35.5 62t-52.5 23t-52.5 -23
t-35.5 -62z" />
    <glyph glyph-name="uni0214" unicode="&#x214;" horiz-adv-x="740" 
d="M370 -6q-81 0 -145 35.5t-100.5 98t-36.5 141.5v432h108v-423q0 -51 24 -91.5t63.5 -64.5t86.5 -24q50 0 90.5 24t64.5 64.5t24 91.5v423h103v-432q0 -79 -36.5 -141.5t-100.5 -98t-145 -35.5zM481 750l-165 109l72 76l131 -137zM282 750l-165 109l72 76l131 -137z" />
    <glyph glyph-name="uni0215" unicode="&#x215;" horiz-adv-x="605" 
d="M256 -10q-84 0 -134 57t-50 154v324h103v-296q0 -69 32.5 -109t90.5 -40q57 0 94.5 36t37.5 93v316h103v-525h-103v84q-26 -42 -72.5 -68t-101.5 -26zM406 606l-174 94l65 82l143 -125zM207 606l-174 94l65 82l143 -125z" />
    <glyph glyph-name="uni0216" unicode="&#x216;" horiz-adv-x="740" 
d="M370 -6q-81 0 -145 35.5t-100.5 98t-36.5 141.5v432h108v-423q0 -51 24 -91.5t63.5 -64.5t86.5 -24q50 0 90.5 24t64.5 64.5t24 91.5v423h103v-432q0 -79 -36.5 -141.5t-100.5 -98t-145 -35.5zM282 751l-74 12q9 36 31.5 66.5t56 49t74.5 18.5q42 0 75 -18.5t56 -49
t31 -66.5l-74 -12q-11 25 -34 45t-54 20t-54 -20t-34 -45z" />
    <glyph glyph-name="uni0217" unicode="&#x217;" horiz-adv-x="605" 
d="M256 -10q-84 0 -134 57t-50 154v324h103v-296q0 -69 32.5 -109t90.5 -40q57 0 94.5 36t37.5 93v316h103v-525h-103v84q-26 -42 -72.5 -68t-101.5 -26zM215 599l-74 12q14 71 56 112.5t106 41.5t106 -41.5t56 -112.5l-74 -12q-13 39 -35.5 62t-52.5 23t-52.5 -23
t-35.5 -62z" />
    <glyph glyph-name="uni0218" unicode="&#x218;" horiz-adv-x="624" 
d="M314 -10q-170 0 -264 136l74 85q49 -70 94 -97t107 -27q57 0 96.5 26t39.5 67q0 46 -39 75.5t-123 45.5q-214 42 -214 213q0 57 32 101t86.5 69.5t122.5 25.5q165 0 237 -123l-76 -75q-30 49 -71.5 75t-92.5 26q-58 0 -94 -26.5t-36 -69.5t32.5 -69.5t111.5 -42.5
q110 -23 171 -74t61 -123q0 -100 -68.5 -159t-186.5 -59zM282 -243l-24 42q21 5 37.5 21t16.5 31q0 6 -3.5 10t-15.5 7q-18 5 -24 14t-6 24q0 22 18 35.5t47 13.5q33 0 55.5 -21t22.5 -56q0 -38 -34 -70t-90 -51z" />
    <glyph glyph-name="uni0219" unicode="&#x219;" horiz-adv-x="479" 
d="M247 -10q-66 0 -119 23t-88 68l70 60q30 -35 65.5 -50.5t80.5 -15.5q37 0 60.5 18t23.5 49q0 26 -19 42q-19 15 -87 33q-58 15 -95 34t-57 43q-29 36 -29 91q0 44 25 78t67.5 53.5t95.5 19.5q56 0 108.5 -22.5t84.5 -61.5l-59 -65q-29 29 -64.5 46.5t-64.5 17.5
q-43 0 -66.5 -16t-23.5 -47q1 -27 22 -44t89 -34q50 -13 82.5 -28.5t51.5 -35.5q20 -19 28 -44t8 -56q0 -45 -25.5 -80.5t-68.5 -55.5t-96 -20zM199 -242l-24 42q21 5 37.5 21t16.5 31q0 6 -3.5 10t-15.5 7q-18 5 -24 14t-6 24q0 22 18 35.5t47 13.5q33 0 55.5 -21t22.5 -56
q0 -38 -34 -70t-90 -51z" />
    <glyph glyph-name="uni021A" unicode="&#x21a;" horiz-adv-x="576" 
d="M231 0v596h-196v104h506v-104h-202v-596h-108zM238 -243l-24 42q21 5 37.5 21t16.5 31q0 6 -3.5 10t-15.5 7q-18 5 -24 14t-6 24q0 22 18 35.5t47 13.5q33 0 55.5 -21t22.5 -56q0 -38 -34 -70t-90 -51z" />
    <glyph glyph-name="uni021B" unicode="&#x21b;" horiz-adv-x="384" 
d="M137 0v425h-109v100h109v134h103v-134h122v-100h-122v-425h-103zM142 -242l-24 42q21 5 37.5 21t16.5 31q0 6 -3.5 10t-15.5 7q-18 5 -24 14t-6 24q0 22 18 35.5t47 13.5q33 0 55.5 -21t22.5 -56q0 -38 -34 -70t-90 -51z" />
    <glyph glyph-name="uni022A" unicode="&#x22a;" horiz-adv-x="782" 
d="M391 -10q-74 0 -136.5 27t-109 75.5t-72 114t-25.5 143.5t25.5 143.5t72 114t109 75.5t136.5 27t136.5 -27t109 -76t72 -114.5t25.5 -142.5t-25.5 -142.5t-72 -114.5t-109 -76t-136.5 -27zM391 95q67 0 120 33t83 91t30 131t-30 131t-83 91t-120 33q-68 0 -120.5 -33
t-82.5 -90.5t-30 -131.5t30 -131.5t82.5 -90.5t120.5 -33zM494 759q-35 0 -52 18t-17 47q0 25 17 45t52 20t52 -18t17 -47q0 -25 -17 -45t-52 -20zM288 759q-35 0 -52 18t-17 47q0 25 17 45t52 20t52 -18t17 -47q0 -25 -17 -45t-52 -20zM225 937v75h331v-75h-331z" />
    <glyph glyph-name="uni022B" unicode="&#x22b;" horiz-adv-x="615" 
d="M308 -10q-77 0 -137.5 35.5t-95.5 97t-35 140.5t35 140.5t95.5 97t137.5 35.5q76 0 136.5 -35.5t95.5 -97t35 -140.5t-35 -140.5t-95.5 -97t-136.5 -35.5zM308 84q47 0 84 23.5t58 64t20 91.5q1 52 -20 92.5t-58 63.5t-84 23t-84.5 -23.5t-58.5 -64t-20 -91.5
q-1 -51 20 -91.5t58.5 -64t84.5 -23.5zM408 642q-33 0 -51 17t-18 48q0 29 18.5 47t50.5 18q33 0 51 -17t18 -48q0 -29 -18.5 -47t-50.5 -18zM208 642q-33 0 -51 17t-18 48q0 29 18.5 47t50.5 18q33 0 51 -17t18 -48q0 -29 -18.5 -47t-50.5 -18zM166 827v75h284v-75h-284z
" />
    <glyph glyph-name="uni022C" unicode="&#x22c;" horiz-adv-x="782" 
d="M391 -10q-74 0 -136.5 27t-109 75.5t-72 114t-25.5 143.5t25.5 143.5t72 114t109 75.5t136.5 27t136.5 -27t109 -76t72 -114.5t25.5 -142.5t-25.5 -142.5t-72 -114.5t-109 -76t-136.5 -27zM391 95q67 0 120 33t83 91t30 131t-30 131t-83 91t-120 33q-68 0 -120.5 -33
t-82.5 -90.5t-30 -131.5t30 -131.5t82.5 -90.5t120.5 -33zM465 768q-23 0 -46.5 7.5t-44.5 15.5q-17 7 -29 11t-22 4q-30 0 -30 -38h-77q0 54 35 83.5t79 29.5q21 0 41 -7t39 -15q14 -6 27.5 -10t22.5 -4q31 0 29 36h76q0 -44 -26.5 -78.5t-73.5 -34.5zM225 937v75h331v-75
h-331z" />
    <glyph glyph-name="uni022D" unicode="&#x22d;" horiz-adv-x="615" 
d="M308 -10q-77 0 -137.5 35.5t-95.5 97t-35 140.5t35 140.5t95.5 97t137.5 35.5q76 0 136.5 -35.5t95.5 -97t35 -140.5t-35 -140.5t-95.5 -97t-136.5 -35.5zM308 84q47 0 84 23.5t58 64t20 91.5q1 52 -20 92.5t-58 63.5t-84 23t-84.5 -23.5t-58.5 -64t-20 -91.5
q-1 -51 20 -91.5t58.5 -64t84.5 -23.5zM359 615q-20 0 -33.5 8t-28.5 20q-19 17 -28.5 23.5t-17.5 6.5q-29 0 -37 -58l-68 10q2 49 31.5 85t78.5 36q20 0 33.5 -8t28.5 -20q20 -16 29 -23t17 -7q29 0 37 58l68 -10q-2 -49 -31.5 -85t-78.5 -36zM166 827v75h284v-75h-284z
" />
    <glyph glyph-name="uni0230" unicode="&#x230;" horiz-adv-x="782" 
d="M391 -10q-74 0 -136.5 27t-109 75.5t-72 114t-25.5 143.5t25.5 143.5t72 114t109 75.5t136.5 27t136.5 -27t109 -76t72 -114.5t25.5 -142.5t-25.5 -142.5t-72 -114.5t-109 -76t-136.5 -27zM391 95q67 0 120 33t83 91t30 131t-30 131t-83 91t-120 33q-68 0 -120.5 -33
t-82.5 -90.5t-30 -131.5t30 -131.5t82.5 -90.5t120.5 -33zM391 759q-35 0 -52 18t-17 47q0 25 17 45t52 20t52 -18t17 -47q0 -25 -17 -45t-52 -20zM225 937v75h331v-75h-331z" />
    <glyph glyph-name="uni0231" unicode="&#x231;" horiz-adv-x="615" 
d="M308 -10q-77 0 -137.5 35.5t-95.5 97t-35 140.5t35 140.5t95.5 97t137.5 35.5q76 0 136.5 -35.5t95.5 -97t35 -140.5t-35 -140.5t-95.5 -97t-136.5 -35.5zM308 84q47 0 84 23.5t58 64t20 91.5q1 52 -20 92.5t-58 63.5t-84 23t-84.5 -23.5t-58.5 -64t-20 -91.5
q-1 -51 20 -91.5t58.5 -64t84.5 -23.5zM308 641q-33 0 -51 17t-18 48q0 29 18.5 47t50.5 18q33 0 51 -17t18 -48q0 -29 -18.5 -47t-50.5 -18zM166 827v75h284v-75h-284z" />
    <glyph glyph-name="uni0232" unicode="&#x232;" horiz-adv-x="660" 
d="M286 0v310l-276 390h130l202 -290l184 290h124l-256 -388v-312h-108zM164 787v75h331v-75h-331z" />
    <glyph glyph-name="uni0233" unicode="&#x233;" horiz-adv-x="581" 
d="M160 -230l89 205l-244 550h120l164 -386q5 -11 13 -35l15 42l137 379h122l-216 -525l-89 -230h-111zM149 642v75h284v-75h-284z" />
    <glyph glyph-name="uni0237" unicode="&#x237;" horiz-adv-x="263" 
d="M8 -197l-39 79q116 0 116 119v524h103v-549q0 -51 -23 -90t-63.5 -61t-93.5 -22z" />
    <glyph glyph-name="uni0259" unicode="&#x259;" horiz-adv-x="586" 
d="M278 -12q-68 1 -122 34t-85 90.5t-31 130.5l1 44h402q-9 71 -58.5 112.5t-125.5 41.5q-39 0 -72.5 -13t-72.5 -47l-52 73q37 35 94.5 58t112.5 23q82 0 144 -34t97.5 -94.5t35.5 -138.5q0 -82 -34.5 -145t-95 -98.5t-138.5 -36.5zM145 198q5 -49 43.5 -82t89.5 -33
q135 0 161 122h-294v-7z" />
    <glyph glyph-name="uni0272" unicode="&#x272;" horiz-adv-x="609" 
d="M9 -197l-39 79q116 0 116 119v524h103v-82q26 40 73.5 66.5t98.5 26.5q180 0 180 -216v-320h-103v313q0 135 -111 129q-39 0 -70.5 -16.5t-49.5 -44.5t-18 -63v-342q0 -77 -50 -125t-130 -48z" />
    <glyph glyph-name="uni02BB" unicode="&#x2bb;" horiz-adv-x="241" 
d="M139 480q-42 0 -70.5 31.5t-28.5 81.5q0 35 19 67.5t51.5 58t72.5 37.5l38 -46q-39 -18 -64 -41t-25 -40q0 -13 11 -23t20 -18q22 -18 29.5 -30t7.5 -25q0 -24 -17 -38.5t-44 -14.5z" />
    <glyph glyph-name="uni02BC" unicode="&#x2bc;" horiz-adv-x="205" 
d="M37 442l23 258h118l-81 -258h-60z" />
    <glyph glyph-name="uni02BE" unicode="&#x2be;" horiz-adv-x="221" 
d="M62 530v61q20 0 33.5 12.5t13.5 31.5q0 20 -13 32t-34 12l1 62q44 -1 76 -32t32 -74q0 -28 -15.5 -52t-40 -38.5t-53.5 -14.5z" />
    <glyph glyph-name="uni02BF" unicode="&#x2bf;" horiz-adv-x="221" 
d="M142 530q-27 0 -52.5 14.5t-41.5 38t-16 52.5q0 43 32 74t76 32l2 -62q-21 0 -34.5 -11.5t-13.5 -32.5q0 -19 13.5 -31.5t34.5 -12.5v-61z" />
    <glyph glyph-name="circumflex" unicode="&#x2c6;" horiz-adv-x="500" 
d="M130 607l-38 33l115 113h86l115 -113l-38 -33l-120 65z" />
    <glyph glyph-name="caron" unicode="&#x2c7;" horiz-adv-x="500" 
d="M207 607l-105 113l38 33l110 -64l110 64l38 -33l-105 -113h-86z" />
    <glyph glyph-name="uni02C8" unicode="&#x2c8;" horiz-adv-x="231" 
d="M67 368v344h97v-344h-97z" />
    <glyph glyph-name="uni02CC" unicode="&#x2cc;" horiz-adv-x="231" 
d="M67 -147v344h97v-344h-97z" />
    <glyph glyph-name="breve" unicode="&#x2d8;" horiz-adv-x="402" 
d="M250 589q-64 0 -106 41.5t-56 112.5l74 12q13 -39 35.5 -62t52.5 -23t52.5 23t35.5 62l74 -12q-14 -71 -56 -112.5t-106 -41.5z" />
    <glyph glyph-name="dotaccent" unicode="&#x2d9;" horiz-adv-x="500" 
d="M250 641q-33 0 -51 17t-18 48q0 29 18.5 47t50.5 18q33 0 51 -17t18 -48q0 -29 -18.5 -47t-50.5 -18z" />
    <glyph glyph-name="ring" unicode="&#x2da;" horiz-adv-x="500" 
d="M250 604q-28 0 -53 14.5t-40.5 38.5t-15.5 52q0 29 15 53t40 38.5t54 14.5q30 0 55 -14.5t40 -38.5t15 -53q0 -28 -15 -52t-40 -38.5t-55 -14.5zM250 663q21 0 35.5 13.5t14.5 32.5q0 21 -14.5 34t-35.5 13t-35 -13.5t-14 -33.5q0 -19 14.5 -32.5t34.5 -13.5z" />
    <glyph glyph-name="ogonek" unicode="&#x2db;" horiz-adv-x="500" 
d="M250 -200q-29 0 -54 14t-40 37.5t-15 51.5q0 50 43 83t123 55l33 -41q-44 -10 -76 -35t-32 -52q0 -16 9.5 -26t24.5 -10q20 0 37 25l56 -40q-10 -25 -38 -43.5t-71 -18.5z" />
    <glyph glyph-name="tilde" unicode="&#x2dc;" horiz-adv-x="500" 
d="M302 615q-20 0 -33.5 8t-28.5 20q-19 17 -28.5 23.5t-17.5 6.5q-29 0 -37 -58l-68 10q2 49 31.5 85t78.5 36q20 0 33.5 -8t28.5 -20q20 -16 29 -23t17 -7q29 0 37 58l68 -10q-2 -49 -31.5 -85t-78.5 -36z" />
    <glyph glyph-name="hungarumlaut" unicode="&#x2dd;" horiz-adv-x="500" 
d="M280 606l-34 51l143 125l65 -82zM81 606l-34 51l143 125l65 -82z" />
    <glyph glyph-name="gravecomb" unicode="&#x300;" 
d="M320 606l-174 94l65 82l143 -125z" />
    <glyph glyph-name="acutecomb" unicode="&#x301;" 
d="M180 606l-34 51l143 125l65 -82z" />
    <glyph glyph-name="uni0302" unicode="&#x302;" 
d="M130 607l-38 33l115 113h86l115 -113l-38 -33l-120 65z" />
    <glyph glyph-name="tildecomb" unicode="&#x303;" 
d="M302 615q-20 0 -33.5 8t-28.5 20q-19 17 -28.5 23.5t-17.5 6.5q-29 0 -37 -58l-68 10q2 49 31.5 85t78.5 36q20 0 33.5 -8t28.5 -20q20 -16 29 -23t17 -7q29 0 37 58l68 -10q-2 -49 -31.5 -85t-78.5 -36z" />
    <glyph glyph-name="uni0304" unicode="&#x304;" 
d="M108 642v75h284v-75h-284z" />
    <glyph glyph-name="uni0306" unicode="&#x306;" 
d="M250 589q-64 0 -106 41.5t-56 112.5l74 12q13 -39 35.5 -62t52.5 -23t52.5 23t35.5 62l74 -12q-14 -71 -56 -112.5t-106 -41.5z" />
    <glyph glyph-name="uni0307" unicode="&#x307;" 
d="M250 641q-33 0 -51 17t-18 48q0 29 18.5 47t50.5 18q33 0 51 -17t18 -48q0 -29 -18.5 -47t-50.5 -18z" />
    <glyph glyph-name="uni0308" unicode="&#x308;" 
d="M350 642q-33 0 -51 17t-18 48q0 29 18.5 47t50.5 18q33 0 51 -17t18 -48q0 -29 -18.5 -47t-50.5 -18zM150 642q-33 0 -51 17t-18 48q0 29 18.5 47t50.5 18q33 0 51 -17t18 -48q0 -29 -18.5 -47t-50.5 -18z" />
    <glyph glyph-name="hookabovecomb" unicode="&#x309;" 
d="M228 593q-15 20 -15 38q0 9 5.5 20t21.5 22q30 20 30 30q0 9 -8.5 13t-21.5 4q-35 0 -71 -18l-16 63q21 12 45 18t44 6q53 0 79.5 -22.5t26.5 -54.5q0 -25 -11.5 -39.5t-25.5 -21.5q-18 -9 -26.5 -15.5t-8.5 -16.5q0 -7 3 -13z" />
    <glyph glyph-name="uni030A" unicode="&#x30a;" 
d="M250 604q-28 0 -53 14.5t-40.5 38.5t-15.5 52q0 29 15 53t40 38.5t54 14.5q30 0 55 -14.5t40 -38.5t15 -53q0 -28 -15 -52t-40 -38.5t-55 -14.5zM250 663q21 0 35.5 13.5t14.5 32.5q0 21 -14.5 34t-35.5 13t-35 -13.5t-14 -33.5q0 -19 14.5 -32.5t34.5 -13.5z" />
    <glyph glyph-name="uni030B" unicode="&#x30b;" 
d="M280 606l-34 51l143 125l65 -82zM81 606l-34 51l143 125l65 -82z" />
    <glyph glyph-name="uni030C" unicode="&#x30c;" 
d="M207 607l-105 113l38 33l110 -64l110 64l38 -33l-105 -113h-86z" />
    <glyph glyph-name="uni030F" unicode="&#x30f;" 
d="M420 606l-174 94l65 82l143 -125zM221 606l-174 94l65 82l143 -125z" />
    <glyph glyph-name="uni0311" unicode="&#x311;" 
d="M162 599l-74 12q14 71 56 112.5t106 41.5t106 -41.5t56 -112.5l-74 -12q-13 39 -35.5 62t-52.5 23t-52.5 -23t-35.5 -62z" />
    <glyph glyph-name="uni0312" unicode="&#x312;" 
d="M254 606q-27 0 -52.5 18.5t-25.5 58.5q0 26 14 46.5t34.5 35.5t41.5 25t34 14l24 -42q-19 -4 -36.5 -20t-17.5 -32q0 -10 6.5 -13t14.5 -5q10 -3 19 -9.5t9 -27.5q0 -24 -19 -36.5t-46 -12.5z" />
    <glyph glyph-name="uni031B" unicode="&#x31b;" 
d="M160 437v65q98 0 98 114h82q0 -51 -17.5 -91.5t-57 -64t-105.5 -23.5z" />
    <glyph glyph-name="dotbelowcomb" unicode="&#x323;" 
d="M250 -206q-33 0 -51 17t-18 48q0 29 18.5 47t50.5 18q33 0 51 -17t18 -48q0 -29 -18.5 -47t-50.5 -18z" />
    <glyph glyph-name="uni0324" unicode="&#x324;" 
d="M350 -206q-33 0 -51 17t-18 48q0 29 18.5 47t50.5 18q33 0 51 -17t18 -48q0 -29 -18.5 -47t-50.5 -18zM150 -206q-33 0 -51 17t-18 48q0 29 18.5 47t50.5 18q33 0 51 -17t18 -48q0 -29 -18.5 -47t-50.5 -18z" />
    <glyph glyph-name="uni0326" unicode="&#x326;" 
d="M200 -242l-24 42q21 5 37.5 21t16.5 31q0 6 -3.5 10t-15.5 7q-18 5 -24 14t-6 24q0 22 18 35.5t47 13.5q33 0 55.5 -21t22.5 -56q0 -38 -34 -70t-90 -51z" />
    <glyph glyph-name="uni0327" unicode="&#x327;" 
d="M159 -244l-7 53q24 0 50 8t44 20.5t18 24.5q0 14 -17 22t-38 12t-35 4l-13 10l72 114h59l-43 -70q100 -21 100 -93q0 -34 -29.5 -58t-73.5 -36t-87 -11z" />
    <glyph glyph-name="uni0328" unicode="&#x328;" 
d="M250 -200q-29 0 -54 14t-40 37.5t-15 51.5q0 50 43 83t123 55l33 -41q-44 -10 -76 -35t-32 -52q0 -16 9.5 -26t24.5 -10q20 0 37 25l56 -40q-10 -25 -38 -43.5t-71 -18.5z" />
    <glyph glyph-name="uni032E" unicode="&#x32e;" 
d="M250 -234q-61 0 -104.5 41.5t-57.5 112.5l74 12q13 -39 37 -62t51 -23t51 23t37 62l74 -12q-14 -71 -57.5 -112.5t-104.5 -41.5z" />
    <glyph glyph-name="uni0331" unicode="&#x331;" 
d="M110 -178v74h281v-74h-281z" />
    <glyph glyph-name="uni0335" unicode="&#x335;" 
d="M116 251v90h268v-90h-268z" />
    <glyph glyph-name="uni0394" unicode="&#x394;" horiz-adv-x="711" 
d="M14 0l341 717l346 -717h-687zM148 83h414l-207 430z" />
    <glyph glyph-name="uni03A9" unicode="&#x3a9;" horiz-adv-x="675" 
d="M39 0v97h116q-60 71 -95 151t-35 156q0 88 41 157t112 109t160 40t159.5 -40t111.5 -109.5t41 -157.5q0 -75 -35 -155.5t-95 -150.5h116v-97h-250v56q78 97 93 118q36 50 55 103.5t19 125.5q0 60 -28 107.5t-77 75t-110 27.5q-62 0 -110.5 -27t-76.5 -74.5t-28 -108.5
t14 -108.5t39 -88t58 -81.5q42 -53 53 -69v-56h-248z" />
    <glyph glyph-name="uni03BC" unicode="&#x3bc;" horiz-adv-x="586" 
d="M80 -157v682h97v-303q0 -142 107 -142q38 0 68.5 19t48.5 51.5t18 71.5v303h97v-525h-97v82q-21 -46 -62 -69t-88 -23q-27 0 -53 12.5t-39 32.5v-192h-97z" />
    <glyph glyph-name="pi" unicode="&#x3c0;" horiz-adv-x="614" 
d="M114 0v425h-74v101h534v-101h-74v-425h-91v425h-204v-425h-91z" />
    <glyph glyph-name="uni1E08" unicode="&#x1e08;" horiz-adv-x="679" 
d="M382 -10q-97 0 -172.5 46t-118.5 127t-43 187q0 75 26.5 139.5t73.5 113.5t109 76t134 27q51 0 99.5 -15.5t88 -43t64.5 -62.5l-72 -75q-86 88 -180 88q-65 0 -118 -32t-84 -88t-31 -128q0 -77 30.5 -133t85 -87t126.5 -31q50 0 96 20t80 55l54 -88q-23 -27 -62.5 -49
t-88 -34.5t-97.5 -12.5zM284 -244l-7 53q24 0 50 8t44 20.5t18 24.5q0 14 -17 22t-38 12t-35 4l-13 10l72 114h59l-42 -70q99 -21 99 -93q0 -34 -29.5 -58t-73 -36t-87.5 -11zM322 755l-28 52l183 113l47 -90z" />
    <glyph glyph-name="uni1E09" unicode="&#x1e09;" horiz-adv-x="535" 
d="M295 -10q-73 0 -130.5 36t-91 98t-33.5 139t33.5 139t91 98t130.5 36q70 0 127.5 -28.5t87.5 -77.5l-57 -70q-24 35 -66.5 59t-81.5 24q-48 0 -85.5 -23.5t-59.5 -64.5t-22 -92t23 -91.5t61 -64.5t84 -24q81 0 147 80l57 -70q-32 -45 -91.5 -74t-123.5 -29zM204 -244
l-7 53q24 0 50 8t44 20.5t18 24.5q0 14 -17 22t-38 12t-35 4l-13 10l72 114h59l-43 -70q100 -21 100 -93q0 -34 -29.5 -58t-73.5 -36t-87 -11zM225 606l-34 51l143 125l65 -82z" />
    <glyph glyph-name="uni1E0C" unicode="&#x1e0c;" horiz-adv-x="748" 
d="M98 0v700h274q100 0 173.5 -44t114 -123t40.5 -183q0 -105 -40 -183.5t-113.5 -122.5t-174.5 -44h-274zM367 596h-161v-492h161q106 0 164.5 65.5t58.5 180.5q0 114 -59 180t-164 66zM374 -206q-33 0 -51 17t-18 48q0 29 18.5 47t50.5 18q33 0 51 -17t18 -48
q0 -29 -18.5 -47t-50.5 -18z" />
    <glyph glyph-name="uni1E0D" unicode="&#x1e0d;" horiz-adv-x="634" 
d="M291 -10q-72 0 -128.5 35.5t-89.5 97t-33 140.5t32.5 140.5t88.5 97t127 35.5q52 0 98.5 -22t74.5 -54v280h103v-740h-103v72q-24 -34 -71 -58t-99 -24zM305 79q47 0 83 24t56.5 65.5t20.5 94.5t-20.5 94.5t-56.5 65.5t-83 24t-83 -24t-56.5 -65.5t-20.5 -94.5
t20.5 -94.5t56.5 -65.5t83 -24zM317 -206q-33 0 -51 17t-18 48q0 29 18.5 47t50.5 18q33 0 51 -17t18 -48q0 -29 -18.5 -47t-50.5 -18z" />
    <glyph glyph-name="uni1E0E" unicode="&#x1e0e;" horiz-adv-x="748" 
d="M98 0v700h274q100 0 173.5 -44t114 -123t40.5 -183q0 -105 -40 -183.5t-113.5 -122.5t-174.5 -44h-274zM367 596h-161v-492h161q106 0 164.5 65.5t58.5 180.5q0 114 -59 180t-164 66zM233 -178v74h281v-74h-281z" />
    <glyph glyph-name="uni1E0F" unicode="&#x1e0f;" horiz-adv-x="634" 
d="M291 -10q-72 0 -128.5 35.5t-89.5 97t-33 140.5t32.5 140.5t88.5 97t127 35.5q52 0 98.5 -22t74.5 -54v280h103v-740h-103v72q-24 -34 -71 -58t-99 -24zM305 79q47 0 83 24t56.5 65.5t20.5 94.5t-20.5 94.5t-56.5 65.5t-83 24t-83 -24t-56.5 -65.5t-20.5 -94.5
t20.5 -94.5t56.5 -65.5t83 -24zM176 -178v74h281v-74h-281z" />
    <glyph glyph-name="uni1E14" unicode="&#x1e14;" horiz-adv-x="614" 
d="M98 0v700h441v-104h-333v-185h278v-104h-278v-203h333v-104h-441zM161 787v75h331v-75h-331zM403 905l-202 75l49 90l183 -113z" />
    <glyph glyph-name="uni1E15" unicode="&#x1e15;" horiz-adv-x="586" 
d="M317 -10q-81 0 -143.5 34.5t-98 94.5t-35.5 138q0 83 34.5 145.5t95 98t138.5 36.5q68 -1 122.5 -34t86 -90t29.5 -131l-1 -44h-402q9 -71 58.5 -112.5t125.5 -41.5q39 0 72.5 13t72.5 47l52 -73q-37 -36 -94 -58.5t-113 -22.5zM308 442q-135 0 -161 -122h294v7
q-3 33 -22 59t-48 41t-63 15zM323 747l-117 120l77 57l92 -141zM166 632v75h284v-75h-284z" />
    <glyph glyph-name="uni1E16" unicode="&#x1e16;" horiz-adv-x="614" 
d="M98 0v700h441v-104h-333v-185h278v-104h-278v-203h333v-104h-441zM161 787v75h331v-75h-331zM259 905l-28 52l183 113l47 -90z" />
    <glyph glyph-name="uni1E17" unicode="&#x1e17;" horiz-adv-x="586" 
d="M317 -10q-81 0 -143.5 34.5t-98 94.5t-35.5 138q0 83 34.5 145.5t95 98t138.5 36.5q68 -1 122.5 -34t86 -90t29.5 -131l-1 -44h-402q9 -71 58.5 -112.5t125.5 -41.5q39 0 72.5 13t72.5 47l52 -73q-37 -36 -94 -58.5t-113 -22.5zM308 442q-135 0 -161 -122h294v7
q-3 33 -22 59t-48 41t-63 15zM308 747l-52 36l92 141l77 -57zM166 632v75h284v-75h-284z" />
    <glyph glyph-name="uni1E1C" unicode="&#x1e1c;" horiz-adv-x="614" 
d="M98 0v700h441v-104h-333v-185h278v-104h-278v-203h333v-104h-441zM215 -244l-7 53q24 0 50 8t44 20.5t18 24.5q0 14 -17 22t-38 12t-35 4l-13 10l72 114h59l-42 -70q99 -21 99 -93q0 -34 -29.5 -58t-73 -36t-87.5 -11zM327 751q-41 0 -74.5 18.5t-56 49t-31.5 66.5l74 12
q11 -25 34 -45t54 -20t54 20t34 45l74 -12q-8 -36 -31 -66.5t-56 -49t-75 -18.5z" />
    <glyph glyph-name="uni1E1D" unicode="&#x1e1d;" horiz-adv-x="586" 
d="M317 -10q-81 0 -143.5 34.5t-98 94.5t-35.5 138q0 83 34.5 145.5t95 98t138.5 36.5q68 -1 122.5 -34t86 -90t29.5 -131l-1 -44h-402q9 -71 58.5 -112.5t125.5 -41.5q39 0 72.5 13t72.5 47l52 -73q-37 -36 -94 -58.5t-113 -22.5zM308 442q-135 0 -161 -122h294v7
q-3 33 -22 59t-48 41t-63 15zM225 -244l-7 53q24 0 50 8t44 20.5t18 24.5q0 14 -17 22t-38 12t-35 4l-13 10l72 114h59l-43 -70q100 -21 100 -93q0 -34 -29.5 -58t-73.5 -36t-87 -11zM308 589q-64 0 -106 41.5t-56 112.5l74 12q13 -39 35.5 -62t52.5 -23t52.5 23t35.5 62
l74 -12q-14 -71 -56 -112.5t-106 -41.5z" />
    <glyph glyph-name="uni1E20" unicode="&#x1e20;" horiz-adv-x="766" 
d="M411 -10q-76 0 -142 27.5t-116 76.5t-77.5 114.5t-27.5 141.5q0 75 27.5 140t77 113.5t115.5 75.5t142 27q53 0 103.5 -15t91.5 -42t67 -62l-70 -73q-91 87 -192 87q-71 0 -128 -33t-90.5 -90t-33.5 -128q0 -52 20 -98.5t55.5 -81.5t82 -55t98.5 -20q53 0 96.5 20
t70 54.5t26.5 76.5v6h-199v107h310q3 -17 4 -31.5t1 -28.5q0 -92 -41.5 -161.5t-112.5 -108.5t-158 -39zM237 787v75h331v-75h-331z" />
    <glyph glyph-name="uni1E21" unicode="&#x1e21;" horiz-adv-x="649" 
d="M307 -230q-56 0 -111.5 17.5t-89.5 45.5l38 80q30 -23 74.5 -37t88.5 -14q167 0 167 158v63q-14 -25 -41.5 -46t-62 -34t-70.5 -13q-75 0 -133.5 35.5t-92.5 97t-34 140.5t33.5 140.5t92 97t131.5 35.5q55 0 103 -25t74 -57v71h103v-493q0 -125 -72 -193.5t-198 -68.5z
M311 85q49 0 87 23t59 63t21 92t-21.5 92.5t-59 63.5t-86.5 23q-48 0 -85.5 -23.5t-59 -64t-21.5 -91.5t21.5 -91.5t59 -63.5t85.5 -23zM183 642v75h284v-75h-284z" />
    <glyph glyph-name="uni1E24" unicode="&#x1e24;" horiz-adv-x="761" 
d="M98 0v700h108v-299h349v299h108v-700h-108v297h-349v-297h-108zM381 -206q-33 0 -51 17t-18 48q0 29 18.5 47t50.5 18q33 0 51 -17t18 -48q0 -29 -18.5 -47t-50.5 -18z" />
    <glyph glyph-name="uni1E25" unicode="&#x1e25;" horiz-adv-x="595" 
d="M72 0v740h103v-297q26 39 73.5 66t98.5 27q180 0 180 -216v-320h-103v313q0 135 -111 129q-39 0 -70.5 -16.5t-49.5 -44.5t-18 -63v-318h-103zM298 -206q-33 0 -51 17t-18 48q0 29 18.5 47t50.5 18q33 0 51 -17t18 -48q0 -29 -18.5 -47t-50.5 -18z" />
    <glyph glyph-name="uni1E2A" unicode="&#x1e2a;" horiz-adv-x="761" 
d="M98 0v700h108v-299h349v299h108v-700h-108v297h-349v-297h-108zM381 -234q-61 0 -104.5 41.5t-57.5 112.5l74 12q13 -39 37 -62t51 -23t51 23t37 62l74 -12q-14 -71 -57.5 -112.5t-104.5 -41.5z" />
    <glyph glyph-name="uni1E2B" unicode="&#x1e2b;" horiz-adv-x="595" 
d="M72 0v740h103v-297q26 39 73.5 66t98.5 27q180 0 180 -216v-320h-103v313q0 135 -111 129q-39 0 -70.5 -16.5t-49.5 -44.5t-18 -63v-318h-103zM298 -234q-61 0 -104.5 41.5t-57.5 112.5l74 12q13 -39 37 -62t51 -23t51 23t37 62l74 -12q-14 -71 -57.5 -112.5
t-104.5 -41.5z" />
    <glyph glyph-name="uni1E2E" unicode="&#x1e2e;" horiz-adv-x="478" 
d="M72 0v100h113v500h-113v100h334v-100h-113v-500h113v-100h-334zM171 915l-28 52l183 113l47 -90zM136 759q-35 0 -52 18t-17 47q0 25 17 45t52 20t52 -18t17 -47q0 -25 -17 -45t-52 -20zM342 759q-35 0 -52 18t-17 47q0 25 17 45t52 20t52 -18t17 -47q0 -25 -17 -45
t-52 -20z" />
    <glyph glyph-name="uni1E2F" unicode="&#x1e2f;" horiz-adv-x="243" 
d="M72 0v525h103v-525h-103zM131 781l-52 36l82 146l87 -62zM23 635q-33 0 -51 17t-18 48q0 29 18.5 47t50.5 18q33 0 51 -17t18 -48q0 -29 -18.5 -47t-50.5 -18zM223 635q-33 0 -51 17t-18 48q0 29 18.5 47t50.5 18q33 0 51 -17t18 -48q0 -29 -18.5 -47t-50.5 -18z" />
    <glyph glyph-name="uni1E36" unicode="&#x1e36;" horiz-adv-x="599" 
d="M98 0v700h108v-596h328v-104h-436zM300 -206q-33 0 -51 17t-18 48q0 29 18.5 47t50.5 18q33 0 51 -17t18 -48q0 -29 -18.5 -47t-50.5 -18z" />
    <glyph glyph-name="uni1E37" unicode="&#x1e37;" horiz-adv-x="251" 
d="M74 0v740h103v-740h-103zM126 -206q-33 0 -51 17t-18 48q0 29 18.5 47t50.5 18q33 0 51 -17t18 -48q0 -29 -18.5 -47t-50.5 -18z" />
    <glyph glyph-name="uni1E3A" unicode="&#x1e3a;" horiz-adv-x="599" 
d="M98 0v700h108v-596h328v-104h-436zM159 -178v74h281v-74h-281z" />
    <glyph glyph-name="uni1E3B" unicode="&#x1e3b;" horiz-adv-x="251" 
d="M74 0v740h103v-740h-103zM-15 -178v74h281v-74h-281z" />
    <glyph glyph-name="uni1E42" unicode="&#x1e42;" horiz-adv-x="864" 
d="M98 0v700h106l229 -373l233 373h100v-700h-108v287q0 67 2.5 123t7.5 109l-205 -318h-66l-201 317q5 -50 7.5 -105.5t2.5 -125.5v-287h-108zM432 -206q-33 0 -51 17t-18 48q0 29 18.5 47t50.5 18q33 0 51 -17t18 -48q0 -29 -18.5 -47t-50.5 -18z" />
    <glyph glyph-name="uni1E43" unicode="&#x1e43;" horiz-adv-x="921" 
d="M70 0v525h104v-83q25 38 70 65t95 27q123 0 160 -110q15 30 44.5 55t65 40t71.5 15q175 0 175 -219v-315h-104v309q0 67 -25.5 98.5t-79.5 31.5q-57 0 -95 -36t-38 -89v-314h-104v311q0 62 -26.5 95t-76.5 33q-37 0 -67 -16.5t-47.5 -44t-17.5 -62.5v-316h-104zM461 -206
q-33 0 -51 17t-18 48q0 29 18.5 47t50.5 18q33 0 51 -17t18 -48q0 -29 -18.5 -47t-50.5 -18z" />
    <glyph glyph-name="uni1E44" unicode="&#x1e44;" horiz-adv-x="793" 
d="M98 0v700h97l407 -545q-8 61 -11.5 141t-3.5 174v230h108v-700h-99l-407 534q7 -87 11 -134.5t5 -71t1 -37.5v-291h-108zM397 759q-35 0 -52 18t-17 47q0 25 17 45t52 20t52 -18t17 -47q0 -25 -17 -45t-52 -20z" />
    <glyph glyph-name="uni1E45" unicode="&#x1e45;" horiz-adv-x="595" 
d="M72 0v525h103v-82q26 39 73.5 66t98.5 27q180 0 180 -216v-320h-103v313q0 135 -111 129q-39 0 -70.5 -16.5t-49.5 -44.5t-18 -63v-318h-103zM328 641q-33 0 -51 17t-18 48q0 29 18.5 47t50.5 18q33 0 51 -17t18 -48q0 -29 -18.5 -47t-50.5 -18z" />
    <glyph glyph-name="uni1E46" unicode="&#x1e46;" horiz-adv-x="793" 
d="M98 0v700h97l407 -545q-8 61 -11.5 141t-3.5 174v230h108v-700h-99l-407 534q7 -87 11 -134.5t5 -71t1 -37.5v-291h-108zM397 -206q-33 0 -51 17t-18 48q0 29 18.5 47t50.5 18q33 0 51 -17t18 -48q0 -29 -18.5 -47t-50.5 -18z" />
    <glyph glyph-name="uni1E47" unicode="&#x1e47;" horiz-adv-x="595" 
d="M72 0v525h103v-82q26 39 73.5 66t98.5 27q180 0 180 -216v-320h-103v313q0 135 -111 129q-39 0 -70.5 -16.5t-49.5 -44.5t-18 -63v-318h-103zM298 -206q-33 0 -51 17t-18 48q0 29 18.5 47t50.5 18q33 0 51 -17t18 -48q0 -29 -18.5 -47t-50.5 -18z" />
    <glyph glyph-name="uni1E48" unicode="&#x1e48;" horiz-adv-x="793" 
d="M98 0v700h97l407 -545q-8 61 -11.5 141t-3.5 174v230h108v-700h-99l-407 534q7 -87 11 -134.5t5 -71t1 -37.5v-291h-108zM256 -178v74h281v-74h-281z" />
    <glyph glyph-name="uni1E49" unicode="&#x1e49;" horiz-adv-x="595" 
d="M72 0v525h103v-82q26 39 73.5 66t98.5 27q180 0 180 -216v-320h-103v313q0 135 -111 129q-39 0 -70.5 -16.5t-49.5 -44.5t-18 -63v-318h-103zM157 -178v74h281v-74h-281z" />
    <glyph glyph-name="uni1E4C" unicode="&#x1e4c;" horiz-adv-x="782" 
d="M391 -10q-74 0 -136.5 27t-109 75.5t-72 114t-25.5 143.5t25.5 143.5t72 114t109 75.5t136.5 27t136.5 -27t109 -76t72 -114.5t25.5 -142.5t-25.5 -142.5t-72 -114.5t-109 -76t-136.5 -27zM391 95q67 0 120 33t83 91t30 131t-30 131t-83 91t-120 33q-68 0 -120.5 -33
t-82.5 -90.5t-30 -131.5t30 -131.5t82.5 -90.5t120.5 -33zM465 768q-23 0 -46.5 7.5t-44.5 15.5q-17 7 -29 11t-22 4q-30 0 -30 -38h-77q0 54 35 83.5t79 29.5q21 0 41 -7t39 -15q14 -6 27.5 -10t22.5 -4q31 0 29 36h76q0 -44 -26.5 -78.5t-73.5 -34.5zM323 905l-28 52
l183 113l47 -90z" />
    <glyph glyph-name="uni1E4D" unicode="&#x1e4d;" horiz-adv-x="615" 
d="M308 -10q-77 0 -137.5 35.5t-95.5 97t-35 140.5t35 140.5t95.5 97t137.5 35.5q76 0 136.5 -35.5t95.5 -97t35 -140.5t-35 -140.5t-95.5 -97t-136.5 -35.5zM308 84q47 0 84 23.5t58 64t20 91.5q1 52 -20 92.5t-58 63.5t-84 23t-84.5 -23.5t-58.5 -64t-20 -91.5
q-1 -51 20 -91.5t58.5 -64t84.5 -23.5zM319 767l-52 36l92 141l77 -57zM359 615q-20 0 -33.5 8t-28.5 20q-19 17 -28.5 23.5t-17.5 6.5q-29 0 -37 -58l-68 10q2 49 31.5 85t78.5 36q20 0 33.5 -8t28.5 -20q20 -16 29 -23t17 -7q29 0 37 58l68 -10q-2 -49 -31.5 -85
t-78.5 -36z" />
    <glyph glyph-name="uni1E4E" unicode="&#x1e4e;" horiz-adv-x="782" 
d="M391 -10q-74 0 -136.5 27t-109 75.5t-72 114t-25.5 143.5t25.5 143.5t72 114t109 75.5t136.5 27t136.5 -27t109 -76t72 -114.5t25.5 -142.5t-25.5 -142.5t-72 -114.5t-109 -76t-136.5 -27zM391 95q67 0 120 33t83 91t30 131t-30 131t-83 91t-120 33q-68 0 -120.5 -33
t-82.5 -90.5t-30 -131.5t30 -131.5t82.5 -90.5t120.5 -33zM465 768q-23 0 -46.5 7.5t-44.5 15.5q-17 7 -29 11t-22 4q-30 0 -30 -38h-77q0 54 35 83.5t79 29.5q21 0 41 -7t39 -15q14 -6 27.5 -10t22.5 -4q31 0 29 36h76q0 -44 -26.5 -78.5t-73.5 -34.5zM494 909
q-35 0 -52 18t-17 47q0 25 17 45t52 20t52 -18t17 -47q0 -25 -17 -45t-52 -20zM288 909q-35 0 -52 18t-17 47q0 25 17 45t52 20t52 -18t17 -47q0 -25 -17 -45t-52 -20z" />
    <glyph glyph-name="uni1E4F" unicode="&#x1e4f;" horiz-adv-x="615" 
d="M308 -10q-77 0 -137.5 35.5t-95.5 97t-35 140.5t35 140.5t95.5 97t137.5 35.5q76 0 136.5 -35.5t95.5 -97t35 -140.5t-35 -140.5t-95.5 -97t-136.5 -35.5zM308 84q47 0 84 23.5t58 64t20 91.5q1 52 -20 92.5t-58 63.5t-84 23t-84.5 -23.5t-58.5 -64t-20 -91.5
q-1 -51 20 -91.5t58.5 -64t84.5 -23.5zM407 797q-33 0 -51 17t-18 48q0 29 18.5 47t50.5 18q33 0 51 -17t18 -48q0 -29 -18.5 -47t-50.5 -18zM207 797q-33 0 -51 17t-18 48q0 29 18.5 47t50.5 18q33 0 51 -17t18 -48q0 -29 -18.5 -47t-50.5 -18zM358 615q-20 0 -33.5 8
t-28.5 20q-19 17 -28.5 23.5t-17.5 6.5q-29 0 -37 -58l-68 10q2 49 31.5 85t78.5 36q20 0 33.5 -8t28.5 -20q20 -16 29 -23t17 -7q29 0 37 58l68 -10q-2 -49 -31.5 -85t-78.5 -36z" />
    <glyph glyph-name="uni1E50" unicode="&#x1e50;" horiz-adv-x="782" 
d="M391 -10q-74 0 -136.5 27t-109 75.5t-72 114t-25.5 143.5t25.5 143.5t72 114t109 75.5t136.5 27t136.5 -27t109 -76t72 -114.5t25.5 -142.5t-25.5 -142.5t-72 -114.5t-109 -76t-136.5 -27zM391 95q67 0 120 33t83 91t30 131t-30 131t-83 91t-120 33q-68 0 -120.5 -33
t-82.5 -90.5t-30 -131.5t30 -131.5t82.5 -90.5t120.5 -33zM225 787v75h331v-75h-331zM467 905l-202 75l49 90l183 -113z" />
    <glyph glyph-name="uni1E51" unicode="&#x1e51;" horiz-adv-x="615" 
d="M308 -10q-77 0 -137.5 35.5t-95.5 97t-35 140.5t35 140.5t95.5 97t137.5 35.5q76 0 136.5 -35.5t95.5 -97t35 -140.5t-35 -140.5t-95.5 -97t-136.5 -35.5zM308 84q47 0 84 23.5t58 64t20 91.5q1 52 -20 92.5t-58 63.5t-84 23t-84.5 -23.5t-58.5 -64t-20 -91.5
q-1 -51 20 -91.5t58.5 -64t84.5 -23.5zM323 747l-117 120l77 57l92 -141zM166 632v75h284v-75h-284z" />
    <glyph glyph-name="uni1E52" unicode="&#x1e52;" horiz-adv-x="782" 
d="M391 -10q-74 0 -136.5 27t-109 75.5t-72 114t-25.5 143.5t25.5 143.5t72 114t109 75.5t136.5 27t136.5 -27t109 -76t72 -114.5t25.5 -142.5t-25.5 -142.5t-72 -114.5t-109 -76t-136.5 -27zM391 95q67 0 120 33t83 91t30 131t-30 131t-83 91t-120 33q-68 0 -120.5 -33
t-82.5 -90.5t-30 -131.5t30 -131.5t82.5 -90.5t120.5 -33zM225 787v75h331v-75h-331zM323 905l-28 52l183 113l47 -90z" />
    <glyph glyph-name="uni1E53" unicode="&#x1e53;" horiz-adv-x="615" 
d="M308 -10q-77 0 -137.5 35.5t-95.5 97t-35 140.5t35 140.5t95.5 97t137.5 35.5q76 0 136.5 -35.5t95.5 -97t35 -140.5t-35 -140.5t-95.5 -97t-136.5 -35.5zM308 84q47 0 84 23.5t58 64t20 91.5q1 52 -20 92.5t-58 63.5t-84 23t-84.5 -23.5t-58.5 -64t-20 -91.5
q-1 -51 20 -91.5t58.5 -64t84.5 -23.5zM308 747l-52 36l92 141l77 -57zM166 632v75h284v-75h-284z" />
    <glyph glyph-name="uni1E5A" unicode="&#x1e5a;" horiz-adv-x="695" 
d="M98 0v700h298q60 0 110.5 -29.5t80.5 -80t30 -113.5q0 -64 -38 -118t-97 -79l163 -281l-131 1l-148 263h-160v-263h-108zM206 367h200q44 0 72.5 32t28.5 79q0 52 -36.5 85t-92.5 33h-172v-229zM348 -206q-33 0 -51 17t-18 48q0 29 18.5 47t50.5 18q33 0 51 -17t18 -48
q0 -29 -18.5 -47t-50.5 -18z" />
    <glyph glyph-name="uni1E5B" unicode="&#x1e5b;" horiz-adv-x="403" 
d="M72 0v525h104v-99q23 47 67 78.5t93 31.5q17 0 32.5 -3t24.5 -7l-27 -112q-12 5 -26.5 8.5t-28.5 3.5q-36 0 -66.5 -18t-49.5 -49t-19 -69v-290h-104zM124 -206q-33 0 -51 17t-18 48q0 29 18.5 47t50.5 18q33 0 51 -17t18 -48q0 -29 -18.5 -47t-50.5 -18z" />
    <glyph glyph-name="uni1E5E" unicode="&#x1e5e;" horiz-adv-x="695" 
d="M98 0v700h298q60 0 110.5 -29.5t80.5 -80t30 -113.5q0 -64 -38 -118t-97 -79l163 -281l-131 1l-148 263h-160v-263h-108zM206 367h200q44 0 72.5 32t28.5 79q0 52 -36.5 85t-92.5 33h-172v-229zM207 -178v74h281v-74h-281z" />
    <glyph glyph-name="uni1E5F" unicode="&#x1e5f;" horiz-adv-x="403" 
d="M72 0v525h104v-99q23 47 67 78.5t93 31.5q17 0 32.5 -3t24.5 -7l-27 -112q-12 5 -26.5 8.5t-28.5 3.5q-36 0 -66.5 -18t-49.5 -49t-19 -69v-290h-104zM-17 -178v74h281v-74h-281z" />
    <glyph glyph-name="uni1E60" unicode="&#x1e60;" horiz-adv-x="624" 
d="M314 -10q-170 0 -264 136l74 85q49 -70 94 -97t107 -27q57 0 96.5 26t39.5 67q0 46 -39 75.5t-123 45.5q-214 42 -214 213q0 57 32 101t86.5 69.5t122.5 25.5q165 0 237 -123l-76 -75q-30 49 -71.5 75t-92.5 26q-58 0 -94 -26.5t-36 -69.5t32.5 -69.5t111.5 -42.5
q110 -23 171 -74t61 -123q0 -100 -68.5 -159t-186.5 -59zM332 759q-35 0 -52 18t-17 47q0 25 17 45t52 20t52 -18t17 -47q0 -25 -17 -45t-52 -20z" />
    <glyph glyph-name="uni1E61" unicode="&#x1e61;" horiz-adv-x="479" 
d="M247 -10q-66 0 -119 23t-88 68l70 60q30 -35 65.5 -50.5t80.5 -15.5q37 0 60.5 18t23.5 49q0 26 -19 42q-19 15 -87 33q-58 15 -95 34t-57 43q-29 36 -29 91q0 44 25 78t67.5 53.5t95.5 19.5q56 0 108.5 -22.5t84.5 -61.5l-59 -65q-29 29 -64.5 46.5t-64.5 17.5
q-43 0 -66.5 -16t-23.5 -47q1 -27 22 -44t89 -34q50 -13 82.5 -28.5t51.5 -35.5q20 -19 28 -44t8 -56q0 -45 -25.5 -80.5t-68.5 -55.5t-96 -20zM240 641q-33 0 -51 17t-18 48q0 29 18.5 47t50.5 18q33 0 51 -17t18 -48q0 -29 -18.5 -47t-50.5 -18z" />
    <glyph glyph-name="uni1E62" unicode="&#x1e62;" horiz-adv-x="624" 
d="M314 -10q-170 0 -264 136l74 85q49 -70 94 -97t107 -27q57 0 96.5 26t39.5 67q0 46 -39 75.5t-123 45.5q-214 42 -214 213q0 57 32 101t86.5 69.5t122.5 25.5q165 0 237 -123l-76 -75q-30 49 -71.5 75t-92.5 26q-58 0 -94 -26.5t-36 -69.5t32.5 -69.5t111.5 -42.5
q110 -23 171 -74t61 -123q0 -100 -68.5 -159t-186.5 -59zM332 -206q-33 0 -51 17t-18 48q0 29 18.5 47t50.5 18q33 0 51 -17t18 -48q0 -29 -18.5 -47t-50.5 -18z" />
    <glyph glyph-name="uni1E63" unicode="&#x1e63;" horiz-adv-x="479" 
d="M247 -10q-66 0 -119 23t-88 68l70 60q30 -35 65.5 -50.5t80.5 -15.5q37 0 60.5 18t23.5 49q0 26 -19 42q-19 15 -87 33q-58 15 -95 34t-57 43q-29 36 -29 91q0 44 25 78t67.5 53.5t95.5 19.5q56 0 108.5 -22.5t84.5 -61.5l-59 -65q-29 29 -64.5 46.5t-64.5 17.5
q-43 0 -66.5 -16t-23.5 -47q1 -27 22 -44t89 -34q50 -13 82.5 -28.5t51.5 -35.5q20 -19 28 -44t8 -56q0 -45 -25.5 -80.5t-68.5 -55.5t-96 -20zM249 -206q-33 0 -51 17t-18 48q0 29 18.5 47t50.5 18q33 0 51 -17t18 -48q0 -29 -18.5 -47t-50.5 -18z" />
    <glyph glyph-name="uni1E64" unicode="&#x1e64;" horiz-adv-x="624" 
d="M314 -10q-170 0 -264 136l74 85q49 -70 94 -97t107 -27q57 0 96.5 26t39.5 67q0 46 -39 75.5t-123 45.5q-214 42 -214 213q0 57 32 101t86.5 69.5t122.5 25.5q165 0 237 -123l-76 -75q-30 49 -71.5 75t-92.5 26q-58 0 -94 -26.5t-36 -69.5t32.5 -69.5t111.5 -42.5
q110 -23 171 -74t61 -123q0 -100 -68.5 -159t-186.5 -59zM401 751l-52 36l92 141l77 -57zM247 759q-33 0 -51 17t-18 48q0 29 18.5 47t50.5 18q33 0 51 -17t18 -48q0 -29 -18.5 -47t-50.5 -18z" />
    <glyph glyph-name="uni1E65" unicode="&#x1e65;" horiz-adv-x="479" 
d="M247 -10q-66 0 -119 23t-88 68l70 60q30 -35 65.5 -50.5t80.5 -15.5q37 0 60.5 18t23.5 49q0 26 -19 42q-19 15 -87 33q-58 15 -95 34t-57 43q-29 36 -29 91q0 44 25 78t67.5 53.5t95.5 19.5q56 0 108.5 -22.5t84.5 -61.5l-59 -65q-29 29 -64.5 46.5t-64.5 17.5
q-43 0 -66.5 -16t-23.5 -47q1 -27 22 -44t89 -34q50 -13 82.5 -28.5t51.5 -35.5q20 -19 28 -44t8 -56q0 -45 -25.5 -80.5t-68.5 -55.5t-96 -20zM309 627l-52 36l92 141l77 -57zM155 635q-33 0 -51 17t-18 48q0 29 18.5 47t50.5 18q33 0 51 -17t18 -48q0 -29 -18.5 -47
t-50.5 -18z" />
    <glyph glyph-name="uni1E66" unicode="&#x1e66;" horiz-adv-x="624" 
d="M314 -10q-170 0 -264 136l74 85q49 -70 94 -97t107 -27q57 0 96.5 26t39.5 67q0 46 -39 75.5t-123 45.5q-214 42 -214 213q0 57 32 101t86.5 69.5t122.5 25.5q165 0 237 -123l-76 -75q-30 49 -71.5 75t-92.5 26q-58 0 -94 -26.5t-36 -69.5t32.5 -69.5t111.5 -42.5
q110 -23 171 -74t61 -123q0 -100 -68.5 -159t-186.5 -59zM289 757l-120 103l38 33l125 -56l125 56l38 -33l-120 -103h-86zM332 909q-35 0 -52 18t-17 47q0 25 17 45t52 20t52 -18t17 -47q0 -25 -17 -45t-52 -20z" />
    <glyph glyph-name="uni1E67" unicode="&#x1e67;" horiz-adv-x="479" 
d="M247 -10q-66 0 -119 23t-88 68l70 60q30 -35 65.5 -50.5t80.5 -15.5q37 0 60.5 18t23.5 49q0 26 -19 42q-19 15 -87 33q-58 15 -95 34t-57 43q-29 36 -29 91q0 44 25 78t67.5 53.5t95.5 19.5q56 0 108.5 -22.5t84.5 -61.5l-59 -65q-29 29 -64.5 46.5t-64.5 17.5
q-43 0 -66.5 -16t-23.5 -47q1 -27 22 -44t89 -34q50 -13 82.5 -28.5t51.5 -35.5q20 -19 28 -44t8 -56q0 -45 -25.5 -80.5t-68.5 -55.5t-96 -20zM240 770q-33 0 -51 17t-18 48q0 29 18.5 47t50.5 18q33 0 51 -17t18 -48q0 -29 -18.5 -47t-50.5 -18zM197 607l-105 113l38 33
l110 -64l110 64l38 -33l-105 -113h-86z" />
    <glyph glyph-name="uni1E68" unicode="&#x1e68;" horiz-adv-x="624" 
d="M314 -10q-170 0 -264 136l74 85q49 -70 94 -97t107 -27q57 0 96.5 26t39.5 67q0 46 -39 75.5t-123 45.5q-214 42 -214 213q0 57 32 101t86.5 69.5t122.5 25.5q165 0 237 -123l-76 -75q-30 49 -71.5 75t-92.5 26q-58 0 -94 -26.5t-36 -69.5t32.5 -69.5t111.5 -42.5
q110 -23 171 -74t61 -123q0 -100 -68.5 -159t-186.5 -59zM332 -206q-33 0 -51 17t-18 48q0 29 18.5 47t50.5 18q33 0 51 -17t18 -48q0 -29 -18.5 -47t-50.5 -18zM332 759q-35 0 -52 18t-17 47q0 25 17 45t52 20t52 -18t17 -47q0 -25 -17 -45t-52 -20z" />
    <glyph glyph-name="uni1E69" unicode="&#x1e69;" horiz-adv-x="479" 
d="M247 -10q-66 0 -119 23t-88 68l70 60q30 -35 65.5 -50.5t80.5 -15.5q37 0 60.5 18t23.5 49q0 26 -19 42q-19 15 -87 33q-58 15 -95 34t-57 43q-29 36 -29 91q0 44 25 78t67.5 53.5t95.5 19.5q56 0 108.5 -22.5t84.5 -61.5l-59 -65q-29 29 -64.5 46.5t-64.5 17.5
q-43 0 -66.5 -16t-23.5 -47q1 -27 22 -44t89 -34q50 -13 82.5 -28.5t51.5 -35.5q20 -19 28 -44t8 -56q0 -45 -25.5 -80.5t-68.5 -55.5t-96 -20zM249 -206q-33 0 -51 17t-18 48q0 29 18.5 47t50.5 18q33 0 51 -17t18 -48q0 -29 -18.5 -47t-50.5 -18zM240 641q-33 0 -51 17
t-18 48q0 29 18.5 47t50.5 18q33 0 51 -17t18 -48q0 -29 -18.5 -47t-50.5 -18z" />
    <glyph glyph-name="uni1E6C" unicode="&#x1e6c;" horiz-adv-x="576" 
d="M231 0v596h-196v104h506v-104h-202v-596h-108zM288 -206q-33 0 -51 17t-18 48q0 29 18.5 47t50.5 18q33 0 51 -17t18 -48q0 -29 -18.5 -47t-50.5 -18z" />
    <glyph glyph-name="uni1E6D" unicode="&#x1e6d;" horiz-adv-x="384" 
d="M137 0v425h-109v100h109v134h103v-134h122v-100h-122v-425h-103zM192 -206q-33 0 -51 17t-18 48q0 29 18.5 47t50.5 18q33 0 51 -17t18 -48q0 -29 -18.5 -47t-50.5 -18z" />
    <glyph glyph-name="uni1E6E" unicode="&#x1e6e;" horiz-adv-x="576" 
d="M231 0v596h-196v104h506v-104h-202v-596h-108zM147 -178v74h281v-74h-281z" />
    <glyph glyph-name="uni1E6F" unicode="&#x1e6f;" horiz-adv-x="384" 
d="M137 0v425h-109v100h109v134h103v-134h122v-100h-122v-425h-103zM51 -178v74h281v-74h-281z" />
    <glyph glyph-name="uni1E78" unicode="&#x1e78;" horiz-adv-x="740" 
d="M370 -6q-81 0 -145 35.5t-100.5 98t-36.5 141.5v432h108v-423q0 -51 24 -91.5t63.5 -64.5t86.5 -24q50 0 90.5 24t64.5 64.5t24 91.5v423h103v-432q0 -79 -36.5 -141.5t-100.5 -98t-145 -35.5zM444 768q-23 0 -46.5 7.5t-44.5 15.5q-17 7 -29 11t-22 4q-30 0 -30 -38h-77
q0 54 35 83.5t79 29.5q21 0 41 -7t39 -15q14 -6 27.5 -10t22.5 -4q31 0 29 36h76q0 -44 -26.5 -78.5t-73.5 -34.5zM302 905l-28 52l183 113l47 -90z" />
    <glyph glyph-name="uni1E79" unicode="&#x1e79;" horiz-adv-x="605" 
d="M256 -10q-84 0 -134 57t-50 154v324h103v-296q0 -69 32.5 -109t90.5 -40q57 0 94.5 36t37.5 93v316h103v-525h-103v84q-26 -42 -72.5 -68t-101.5 -26zM314 767l-52 36l92 141l77 -57zM354 615q-20 0 -33.5 8t-28.5 20q-19 17 -28.5 23.5t-17.5 6.5q-29 0 -37 -58l-68 10
q2 49 31.5 85t78.5 36q20 0 33.5 -8t28.5 -20q20 -16 29 -23t17 -7q29 0 37 58l68 -10q-2 -49 -31.5 -85t-78.5 -36z" />
    <glyph glyph-name="uni1E7A" unicode="&#x1e7a;" horiz-adv-x="740" 
d="M370 -6q-81 0 -145 35.5t-100.5 98t-36.5 141.5v432h108v-423q0 -51 24 -91.5t63.5 -64.5t86.5 -24q50 0 90.5 24t64.5 64.5t24 91.5v423h103v-432q0 -79 -36.5 -141.5t-100.5 -98t-145 -35.5zM204 787v75h331v-75h-331zM473 909q-35 0 -52 18t-17 47q0 25 17 45t52 20
t52 -18t17 -47q0 -25 -17 -45t-52 -20zM267 909q-35 0 -52 18t-17 47q0 25 17 45t52 20t52 -18t17 -47q0 -25 -17 -45t-52 -20z" />
    <glyph glyph-name="uni1E7B" unicode="&#x1e7b;" horiz-adv-x="605" 
d="M256 -10q-84 0 -134 57t-50 154v324h103v-296q0 -69 32.5 -109t90.5 -40q57 0 94.5 36t37.5 93v316h103v-525h-103v84q-26 -42 -72.5 -68t-101.5 -26zM161 642v75h284v-75h-284zM403 777q-33 0 -51 17t-18 48q0 29 18.5 47t50.5 18q33 0 51 -17t18 -48q0 -29 -18.5 -47
t-50.5 -18zM203 777q-33 0 -51 17t-18 48q0 29 18.5 47t50.5 18q33 0 51 -17t18 -48q0 -29 -18.5 -47t-50.5 -18z" />
    <glyph glyph-name="Wgrave" unicode="&#x1e80;" horiz-adv-x="996" 
d="M247 0l-223 700h115l135 -438q6 -18 11.5 -43t10.5 -49q12 43 18 62t11 31l126 316h97l122 -316q9 -23 16 -44.5t13 -43.5q2 12 4 21.5t6.5 25t13.5 43.5l133 435h116l-223 -700h-75l-180 425l-174 -425h-73zM574 755l-202 75l49 90l183 -113z" />
    <glyph glyph-name="wgrave" unicode="&#x1e81;" horiz-adv-x="800" 
d="M201 0l-179 525l104 1l118 -362l126 278h62l125 -274l117 357h104l-177 -525h-71l-134 305l-125 -305h-70zM450 606l-174 94l65 82l143 -125z" />
    <glyph glyph-name="Wacute" unicode="&#x1e82;" horiz-adv-x="996" 
d="M247 0l-223 700h115l135 -438q6 -18 11.5 -43t10.5 -49q12 43 18 62t11 31l126 316h97l122 -316q9 -23 16 -44.5t13 -43.5q2 12 4 21.5t6.5 25t13.5 43.5l133 435h116l-223 -700h-75l-180 425l-174 -425h-73zM430 755l-28 52l183 113l47 -90z" />
    <glyph glyph-name="wacute" unicode="&#x1e83;" horiz-adv-x="800" 
d="M201 0l-179 525l104 1l118 -362l126 278h62l125 -274l117 357h104l-177 -525h-71l-134 305l-125 -305h-70zM330 606l-34 51l143 125l65 -82z" />
    <glyph glyph-name="Wdieresis" unicode="&#x1e84;" horiz-adv-x="996" 
d="M247 0l-223 700h115l135 -438q6 -18 11.5 -43t10.5 -49q12 43 18 62t11 31l126 316h97l122 -316q9 -23 16 -44.5t13 -43.5q2 12 4 21.5t6.5 25t13.5 43.5l133 435h116l-223 -700h-75l-180 425l-174 -425h-73zM601 759q-35 0 -52 18t-17 47q0 25 17 45t52 20t52 -18
t17 -47q0 -25 -17 -45t-52 -20zM395 759q-35 0 -52 18t-17 47q0 25 17 45t52 20t52 -18t17 -47q0 -25 -17 -45t-52 -20z" />
    <glyph glyph-name="wdieresis" unicode="&#x1e85;" horiz-adv-x="800" 
d="M201 0l-179 525l104 1l118 -362l126 278h62l125 -274l117 357h104l-177 -525h-71l-134 305l-125 -305h-70zM500 642q-33 0 -51 17t-18 48q0 29 18.5 47t50.5 18q33 0 51 -17t18 -48q0 -29 -18.5 -47t-50.5 -18zM300 642q-33 0 -51 17t-18 48q0 29 18.5 47t50.5 18
q33 0 51 -17t18 -48q0 -29 -18.5 -47t-50.5 -18z" />
    <glyph glyph-name="uni1E8E" unicode="&#x1e8e;" horiz-adv-x="660" 
d="M286 0v310l-276 390h130l202 -290l184 290h124l-256 -388v-312h-108zM330 759q-35 0 -52 18t-17 47q0 25 17 45t52 20t52 -18t17 -47q0 -25 -17 -45t-52 -20z" />
    <glyph glyph-name="uni1E8F" unicode="&#x1e8f;" horiz-adv-x="581" 
d="M160 -230l89 205l-244 550h120l164 -386q5 -11 13 -35l15 42l137 379h122l-216 -525l-89 -230h-111zM291 641q-33 0 -51 17t-18 48q0 29 18.5 47t50.5 18q33 0 51 -17t18 -48q0 -29 -18.5 -47t-50.5 -18z" />
    <glyph glyph-name="uni1E92" unicode="&#x1e92;" horiz-adv-x="659" 
d="M60 0v79l386 517h-360v104h507v-78l-384 -518h395v-104h-544zM330 -206q-33 0 -51 17t-18 48q0 29 18.5 47t50.5 18q33 0 51 -17t18 -48q0 -29 -18.5 -47t-50.5 -18z" />
    <glyph glyph-name="uni1E93" unicode="&#x1e93;" horiz-adv-x="484" 
d="M50 0v86l262 350h-262v89h383v-84l-263 -352h269v-89h-389zM242 -206q-33 0 -51 17t-18 48q0 29 18.5 47t50.5 18q33 0 51 -17t18 -48q0 -29 -18.5 -47t-50.5 -18z" />
    <glyph glyph-name="uni1E97" unicode="&#x1e97;" horiz-adv-x="384" 
d="M137 0v425h-109v100h109v134h103v-134h122v-100h-122v-425h-103zM292 729q-33 0 -51 17t-18 48q0 29 18.5 47t50.5 18q33 0 51 -17t18 -48q0 -29 -18.5 -47t-50.5 -18zM92 729q-33 0 -51 17t-18 48q0 29 18.5 47t50.5 18q33 0 51 -17t18 -48q0 -29 -18.5 -47t-50.5 -18z
" />
    <glyph glyph-name="uni1E9E" unicode="&#x1e9e;" horiz-adv-x="762" 
d="M490 -10q-58 0 -111.5 23t-83.5 62l67 80q25 -30 60 -49t67 -19q52 0 82.5 22.5t30.5 61.5q0 24 -12.5 40.5t-41.5 34.5t-79 45q-72 39 -101.5 76t-29.5 93q0 62 36 105.5t97 63.5q-29 3 -54 3q-63 1 -110 -33.5t-72.5 -100t-26.5 -155.5l-2 -342h-108l1 349
q1 113 39 197.5t107 131.5t162 47q127 0 229 -44l5 -73q-94 -15 -145 -47.5t-51 -75.5q0 -30 25 -54.5t75 -47.5q53 -24 89 -48.5t54.5 -59.5t18.5 -92q0 -53 -30 -97t-79 -70.5t-108 -26.5z" />
    <glyph glyph-name="uni1EA0" unicode="&#x1ea0;" horiz-adv-x="700" 
d="M25 0l271 700h110l269 -700h-115l-66 174h-293l-66 -174h-110zM294 418l-53 -140h214l-55 144q-3 7 -12 35t-20 62t-20 60q-8 -26 -18 -57t-19.5 -59t-16.5 -45zM350 -206q-33 0 -51 17t-18 48q0 29 18.5 47t50.5 18q33 0 51 -17t18 -48q0 -29 -18.5 -47t-50.5 -18z" />
    <glyph glyph-name="uni1EA1" unicode="&#x1ea1;" horiz-adv-x="633" 
d="M274 -10q-65 0 -118.5 36t-85.5 98t-32 140q0 79 32.5 140.5t88 96.5t124.5 35q59 0 104.5 -25.5t69.5 -65.5v80h104v-525h-104v81q-27 -38 -76.5 -64.5t-106.5 -26.5zM301 85q47 0 83 23t56.5 63.5t20.5 92.5q0 51 -20.5 91t-56.5 63t-83 23q-46 0 -81.5 -23t-56 -63
t-20.5 -91q0 -52 20.5 -92.5t56 -63.5t81.5 -23zM317 -206q-33 0 -51 17t-18 48q0 29 18.5 47t50.5 18q33 0 51 -17t18 -48q0 -29 -18.5 -47t-50.5 -18z" />
    <glyph glyph-name="uni1EA2" unicode="&#x1ea2;" horiz-adv-x="700" 
d="M25 0l271 700h110l269 -700h-115l-66 174h-293l-66 -174h-110zM294 418l-53 -140h214l-55 144q-3 7 -12 35t-20 62t-20 60q-8 -26 -18 -57t-19.5 -59t-16.5 -45zM327 758q-15 20 -15 38q0 9 5.5 20t21.5 22q30 20 30 30q0 9 -8.5 13t-21.5 4q-35 0 -71 -18l-16 63
q21 12 45 18t44 6q53 0 79.5 -22.5t26.5 -54.5q0 -25 -11.5 -39.5t-25.5 -21.5q-18 -9 -26.5 -15.5t-8.5 -16.5q0 -7 3 -13z" />
    <glyph glyph-name="uni1EA3" unicode="&#x1ea3;" horiz-adv-x="633" 
d="M274 -10q-65 0 -118.5 36t-85.5 98t-32 140q0 79 32.5 140.5t88 96.5t124.5 35q59 0 104.5 -25.5t69.5 -65.5v80h104v-525h-104v81q-27 -38 -76.5 -64.5t-106.5 -26.5zM301 85q47 0 83 23t56.5 63.5t20.5 92.5q0 51 -20.5 91t-56.5 63t-83 23q-46 0 -81.5 -23t-56 -63
t-20.5 -91q0 -52 20.5 -92.5t56 -63.5t81.5 -23zM294 593q-15 20 -15 38q0 9 5.5 20t21.5 22q30 20 30 30q0 9 -8.5 13t-21.5 4q-35 0 -71 -18l-16 63q21 12 45 18t44 6q53 0 79.5 -22.5t26.5 -54.5q0 -25 -11.5 -39.5t-25.5 -21.5q-18 -9 -26.5 -15.5t-8.5 -16.5
q0 -7 3 -13z" />
    <glyph glyph-name="uni1EA4" unicode="&#x1ea4;" horiz-adv-x="700" 
d="M25 0l271 700h110l269 -700h-115l-66 174h-293l-66 -174h-110zM294 418l-53 -140h214l-55 144q-3 7 -12 35t-20 62t-20 60q-8 -26 -18 -57t-19.5 -59t-16.5 -45zM512 864l-52 36l82 146l87 -62zM226 755l-33 36l120 98h73l120 -98l-33 -36l-123 56z" />
    <glyph glyph-name="uni1EA5" unicode="&#x1ea5;" horiz-adv-x="633" 
d="M274 -10q-65 0 -118.5 36t-85.5 98t-32 140q0 79 32.5 140.5t88 96.5t124.5 35q59 0 104.5 -25.5t69.5 -65.5v80h104v-525h-104v81q-27 -38 -76.5 -64.5t-106.5 -26.5zM301 85q47 0 83 23t56.5 63.5t20.5 92.5q0 51 -20.5 91t-56.5 63t-83 23q-46 0 -81.5 -23t-56 -63
t-20.5 -91q0 -52 20.5 -92.5t56 -63.5t81.5 -23zM484 745l-52 36l82 146l87 -62zM197 607l-38 33l115 113h86l115 -113l-38 -33l-120 65z" />
    <glyph glyph-name="uni1EA6" unicode="&#x1ea6;" horiz-adv-x="700" 
d="M25 0l271 700h110l269 -700h-115l-66 174h-293l-66 -174h-110zM294 418l-53 -140h214l-55 144q-3 7 -12 35t-20 62t-20 60q-8 -26 -18 -57t-19.5 -59t-16.5 -45zM515 865l-121 121l86 63l83 -146zM226 755l-33 36l120 98h73l120 -98l-33 -36l-123 56z" />
    <glyph glyph-name="uni1EA7" unicode="&#x1ea7;" horiz-adv-x="633" 
d="M274 -10q-65 0 -118.5 36t-85.5 98t-32 140q0 79 32.5 140.5t88 96.5t124.5 35q59 0 104.5 -25.5t69.5 -65.5v80h104v-525h-104v81q-27 -38 -76.5 -64.5t-106.5 -26.5zM301 85q47 0 83 23t56.5 63.5t20.5 92.5q0 51 -20.5 91t-56.5 63t-83 23q-46 0 -81.5 -23t-56 -63
t-20.5 -91q0 -52 20.5 -92.5t56 -63.5t81.5 -23zM470 743l-121 121l86 63l83 -146zM197 607l-38 33l115 113h86l115 -113l-38 -33l-120 65z" />
    <glyph glyph-name="uni1EA8" unicode="&#x1ea8;" horiz-adv-x="700" 
d="M25 0l271 700h110l269 -700h-115l-66 174h-293l-66 -174h-110zM294 418l-53 -140h214l-55 144q-3 7 -12 35t-20 62t-20 60q-8 -26 -18 -57t-19.5 -59t-16.5 -45zM484 863q-6 8 -10.5 17t-4.5 18t4.5 18t22.5 21q30 20 30 26q0 9 -8.5 13t-21.5 4q-35 0 -71 -18l-16 63
q21 12 45 18t44 6q53 0 79.5 -22.5t26.5 -54.5q0 -21 -12.5 -33.5t-24.5 -20.5q-35 -21 -35 -31q0 -5 3 -11zM226 755l-33 36l120 98h73l120 -98l-33 -36l-123 56z" />
    <glyph glyph-name="uni1EA9" unicode="&#x1ea9;" horiz-adv-x="633" 
d="M274 -10q-65 0 -118.5 36t-85.5 98t-32 140q0 79 32.5 140.5t88 96.5t124.5 35q59 0 104.5 -25.5t69.5 -65.5v80h104v-525h-104v81q-27 -38 -76.5 -64.5t-106.5 -26.5zM301 85q47 0 83 23t56.5 63.5t20.5 92.5q0 51 -20.5 91t-56.5 63t-83 23q-46 0 -81.5 -23t-56 -63
t-20.5 -91q0 -52 20.5 -92.5t56 -63.5t81.5 -23zM461 732q-15 20 -15 38q0 9 5.5 20t21.5 22q30 20 30 30q0 9 -8.5 13t-21.5 4q-16 0 -35 -3.5t-36 -14.5l-16 63q21 12 45 18t44 6q53 0 79.5 -22.5t26.5 -54.5q0 -25 -11.5 -39.5t-25.5 -21.5q-18 -9 -26.5 -15.5
t-8.5 -16.5q0 -7 3 -13zM197 607l-38 33l115 113h86l115 -113l-38 -33l-120 65z" />
    <glyph glyph-name="uni1EAA" unicode="&#x1eaa;" horiz-adv-x="700" 
d="M25 0l271 700h110l269 -700h-115l-66 174h-293l-66 -174h-110zM294 418l-53 -140h214l-55 144q-3 7 -12 35t-20 62t-20 60q-8 -26 -18 -57t-19.5 -59t-16.5 -45zM427 937q-24 0 -44.5 7t-37.5 14q-18 8 -30 13t-22 5q-29 0 -37 -37l-68 10q2 41 30 71.5t68 30.5
q21 0 38.5 -7t35.5 -15q13 -6 26.5 -11.5t23.5 -5.5q25 0 33 38l68 -10q-2 -42 -23 -72.5t-61 -30.5zM226 755l-33 36l120 98h73l120 -98l-33 -36l-123 56z" />
    <glyph glyph-name="uni1EAB" unicode="&#x1eab;" horiz-adv-x="633" 
d="M274 -10q-65 0 -118.5 36t-85.5 98t-32 140q0 79 32.5 140.5t88 96.5t124.5 35q59 0 104.5 -25.5t69.5 -65.5v80h104v-525h-104v81q-27 -38 -76.5 -64.5t-106.5 -26.5zM301 85q47 0 83 23t56.5 63.5t20.5 92.5q0 51 -20.5 91t-56.5 63t-83 23q-46 0 -81.5 -23t-56 -63
t-20.5 -91q0 -52 20.5 -92.5t56 -63.5t81.5 -23zM392 807q-29 0 -48 9.5t-37 16.5q-12 5 -23 10t-24 5t-23 -10t-14 -27l-68 10q2 42 30 73.5t65 31.5q23 0 41 -9.5t36 -17.5q13 -6 24.5 -10.5t21.5 -4.5q29 0 37 38l68 -10q-2 -42 -24 -73.5t-62 -31.5zM196 607l-38 33
l115 113h86l115 -113l-38 -33l-120 65z" />
    <glyph glyph-name="uni1EAC" unicode="&#x1eac;" horiz-adv-x="700" 
d="M25 0l271 700h110l269 -700h-115l-66 174h-293l-66 -174h-110zM294 418l-53 -140h214l-55 144q-3 7 -12 35t-20 62t-20 60q-8 -26 -18 -57t-19.5 -59t-16.5 -45zM350 -206q-33 0 -51 17t-18 48q0 29 18.5 47t50.5 18q33 0 51 -17t18 -48q0 -29 -18.5 -47t-50.5 -18z
M226 755l-37 35l124 101h73l124 -101l-37 -35l-123 58z" />
    <glyph glyph-name="uni1EAD" unicode="&#x1ead;" horiz-adv-x="633" 
d="M274 -10q-65 0 -118.5 36t-85.5 98t-32 140q0 79 32.5 140.5t88 96.5t124.5 35q59 0 104.5 -25.5t69.5 -65.5v80h104v-525h-104v81q-27 -38 -76.5 -64.5t-106.5 -26.5zM301 85q47 0 83 23t56.5 63.5t20.5 92.5q0 51 -20.5 91t-56.5 63t-83 23q-46 0 -81.5 -23t-56 -63
t-20.5 -91q0 -52 20.5 -92.5t56 -63.5t81.5 -23zM317 -206q-33 0 -51 17t-18 48q0 29 18.5 47t50.5 18q33 0 51 -17t18 -48q0 -29 -18.5 -47t-50.5 -18zM197 607l-38 33l115 113h86l115 -113l-38 -33l-120 65z" />
    <glyph glyph-name="uni1EAE" unicode="&#x1eae;" horiz-adv-x="700" 
d="M25 0l271 700h110l269 -700h-115l-66 174h-293l-66 -174h-110zM294 418l-53 -140h214l-55 144q-3 7 -12 35t-20 62t-20 60q-8 -26 -18 -57t-19.5 -59t-16.5 -45zM356 885l-48 38l83 146l86 -63zM350 751q-62 0 -105.5 36t-56.5 98l70 12q14 -36 37.5 -52.5t54.5 -16.5
t54.5 16.5t37.5 52.5l70 -12q-13 -62 -56.5 -98t-105.5 -36z" />
    <glyph glyph-name="uni1EAF" unicode="&#x1eaf;" horiz-adv-x="633" 
d="M274 -10q-65 0 -118.5 36t-85.5 98t-32 140q0 79 32.5 140.5t88 96.5t124.5 35q59 0 104.5 -25.5t69.5 -65.5v80h104v-525h-104v81q-27 -38 -76.5 -64.5t-106.5 -26.5zM301 85q47 0 83 23t56.5 63.5t20.5 92.5q0 51 -20.5 91t-56.5 63t-83 23q-46 0 -81.5 -23t-56 -63
t-20.5 -91q0 -52 20.5 -92.5t56 -63.5t81.5 -23zM324 755l-52 36l82 146l87 -62zM317 589q-64 0 -106 36t-56 98l74 12q13 -30 35.5 -47.5t52.5 -17.5t52.5 17.5t35.5 47.5l74 -12q-14 -62 -56 -98t-106 -36z" />
    <glyph glyph-name="uni1EB0" unicode="&#x1eb0;" horiz-adv-x="700" 
d="M25 0l271 700h110l269 -700h-115l-66 174h-293l-66 -174h-110zM294 418l-53 -140h214l-55 144q-3 7 -12 35t-20 62t-20 60q-8 -26 -18 -57t-19.5 -59t-16.5 -45zM349 885l-121 121l86 63l83 -146zM350 751q-62 0 -105.5 36t-56.5 98l70 12q29 -69 92 -69q31 0 54.5 16.5
t37.5 52.5l70 -12q-13 -62 -56.5 -98t-105.5 -36z" />
    <glyph glyph-name="uni1EB1" unicode="&#x1eb1;" horiz-adv-x="633" 
d="M274 -10q-65 0 -118.5 36t-85.5 98t-32 140q0 79 32.5 140.5t88 96.5t124.5 35q59 0 104.5 -25.5t69.5 -65.5v80h104v-525h-104v81q-27 -38 -76.5 -64.5t-106.5 -26.5zM301 85q47 0 83 23t56.5 63.5t20.5 92.5q0 51 -20.5 91t-56.5 63t-83 23q-46 0 -81.5 -23t-56 -63
t-20.5 -91q0 -52 20.5 -92.5t56 -63.5t81.5 -23zM320 753l-121 121l86 63l83 -146zM317 589q-64 0 -106 38.5t-56 105.5l74 12q13 -34 35.5 -54.5t52.5 -20.5t52.5 20.5t35.5 54.5l74 -12q-14 -67 -56 -105.5t-106 -38.5z" />
    <glyph glyph-name="uni1EB2" unicode="&#x1eb2;" horiz-adv-x="700" 
d="M25 0l271 700h110l269 -700h-115l-66 174h-293l-66 -174h-110zM294 418l-53 -140h214l-55 144q-3 7 -12 35t-20 62t-20 60q-8 -26 -18 -57t-19.5 -59t-16.5 -45zM330 885q-6 8 -10.5 17t-4.5 18t4.5 18t22.5 21q30 20 30 26q0 9 -8.5 13t-21.5 4q-35 0 -71 -18l-16 63
q21 12 45 18t44 6q53 0 79.5 -22.5t26.5 -54.5q0 -21 -12.5 -33.5t-24.5 -20.5q-35 -21 -35 -31q0 -5 3 -11zM350 751q-62 0 -105.5 36t-56.5 98l70 12q14 -36 37.5 -52.5t54.5 -16.5t54.5 16.5t37.5 52.5l70 -12q-13 -62 -56.5 -98t-105.5 -36z" />
    <glyph glyph-name="uni1EB3" unicode="&#x1eb3;" horiz-adv-x="633" 
d="M274 -10q-65 0 -118.5 36t-85.5 98t-32 140q0 79 32.5 140.5t88 96.5t124.5 35q59 0 104.5 -25.5t69.5 -65.5v80h104v-525h-104v81q-27 -38 -76.5 -64.5t-106.5 -26.5zM301 85q47 0 83 23t56.5 63.5t20.5 92.5q0 51 -20.5 91t-56.5 63t-83 23q-46 0 -81.5 -23t-56 -63
t-20.5 -91q0 -52 20.5 -92.5t56 -63.5t81.5 -23zM294 756q-15 20 -15 38q0 9 5.5 20t21.5 22q30 20 30 30q0 9 -8.5 13t-21.5 4q-35 0 -71 -18l-16 63q20 13 44.5 18.5t44.5 5.5q53 0 79.5 -22.5t26.5 -54.5q0 -25 -11.5 -39.5t-25.5 -21.5q-18 -9 -26.5 -15.5t-8.5 -16.5
q0 -7 3 -13zM317 589q-64 0 -106 38.5t-56 105.5l74 12q13 -34 35.5 -54.5t52.5 -20.5t52.5 20.5t35.5 54.5l74 -12q-14 -67 -56 -105.5t-106 -38.5z" />
    <glyph glyph-name="uni1EB4" unicode="&#x1eb4;" horiz-adv-x="700" 
d="M25 0l271 700h110l269 -700h-115l-66 174h-293l-66 -174h-110zM294 418l-53 -140h214l-55 144q-3 7 -12 35t-20 62t-20 60q-8 -26 -18 -57t-19.5 -59t-16.5 -45zM428 937q-24 0 -44.5 7t-37.5 14q-18 8 -30 13t-22 5q-13 0 -23 -10t-14 -27l-68 10q2 41 30 71.5t68 30.5
q21 0 38.5 -7t35.5 -15q13 -6 26.5 -11.5t23.5 -5.5q25 0 33 38l68 -10q-2 -42 -23 -72.5t-61 -30.5zM350 751q-62 0 -105.5 33t-56.5 91l70 12q14 -31 37.5 -45t54.5 -14t54.5 14t37.5 45l70 -12q-13 -58 -56.5 -91t-105.5 -33z" />
    <glyph glyph-name="uni1EB5" unicode="&#x1eb5;" horiz-adv-x="633" 
d="M274 -10q-65 0 -118.5 36t-85.5 98t-32 140q0 79 32.5 140.5t88 96.5t124.5 35q59 0 104.5 -25.5t69.5 -65.5v80h104v-525h-104v81q-27 -38 -76.5 -64.5t-106.5 -26.5zM301 85q47 0 83 23t56.5 63.5t20.5 92.5q0 51 -20.5 91t-56.5 63t-83 23q-46 0 -81.5 -23t-56 -63
t-20.5 -91q0 -52 20.5 -92.5t56 -63.5t81.5 -23zM393 817q-29 0 -48 9.5t-37 16.5q-12 5 -23 10t-24 5t-23 -10t-14 -27l-68 10q2 42 30 73.5t65 31.5q23 0 41 -9.5t36 -17.5q13 -6 24.5 -10.5t21.5 -4.5q29 0 37 38l68 -10q-2 -42 -24 -73.5t-62 -31.5zM317 589
q-64 0 -106 38.5t-56 105.5l74 12q13 -34 35.5 -54.5t52.5 -20.5t52.5 20.5t35.5 54.5l74 -12q-14 -67 -56 -105.5t-106 -38.5z" />
    <glyph glyph-name="uni1EB6" unicode="&#x1eb6;" horiz-adv-x="700" 
d="M25 0l271 700h110l269 -700h-115l-66 174h-293l-66 -174h-110zM294 418l-53 -140h214l-55 144q-3 7 -12 35t-20 62t-20 60q-8 -26 -18 -57t-19.5 -59t-16.5 -45zM350 -206q-33 0 -51 17t-18 48q0 29 18.5 47t50.5 18q33 0 51 -17t18 -48q0 -29 -18.5 -47t-50.5 -18z
M350 751q-41 0 -74.5 18.5t-56 49t-31.5 66.5l74 12q11 -25 34 -45t54 -20t54 20t34 45l74 -12q-8 -36 -31 -66.5t-56 -49t-75 -18.5z" />
    <glyph glyph-name="uni1EB7" unicode="&#x1eb7;" horiz-adv-x="633" 
d="M274 -10q-65 0 -118.5 36t-85.5 98t-32 140q0 79 32.5 140.5t88 96.5t124.5 35q59 0 104.5 -25.5t69.5 -65.5v80h104v-525h-104v81q-27 -38 -76.5 -64.5t-106.5 -26.5zM301 85q47 0 83 23t56.5 63.5t20.5 92.5q0 51 -20.5 91t-56.5 63t-83 23q-46 0 -81.5 -23t-56 -63
t-20.5 -91q0 -52 20.5 -92.5t56 -63.5t81.5 -23zM317 -206q-33 0 -51 17t-18 48q0 29 18.5 47t50.5 18q33 0 51 -17t18 -48q0 -29 -18.5 -47t-50.5 -18zM317 589q-64 0 -106 41.5t-56 112.5l74 12q13 -39 35.5 -62t52.5 -23t52.5 23t35.5 62l74 -12q-14 -71 -56 -112.5
t-106 -41.5z" />
    <glyph glyph-name="uni1EB8" unicode="&#x1eb8;" horiz-adv-x="614" 
d="M98 0v700h441v-104h-333v-185h278v-104h-278v-203h333v-104h-441zM307 -206q-33 0 -51 17t-18 48q0 29 18.5 47t50.5 18q33 0 51 -17t18 -48q0 -29 -18.5 -47t-50.5 -18z" />
    <glyph glyph-name="uni1EB9" unicode="&#x1eb9;" horiz-adv-x="586" 
d="M317 -10q-81 0 -143.5 34.5t-98 94.5t-35.5 138q0 83 34.5 145.5t95 98t138.5 36.5q68 -1 122.5 -34t86 -90t29.5 -131l-1 -44h-402q9 -71 58.5 -112.5t125.5 -41.5q39 0 72.5 13t72.5 47l52 -73q-37 -36 -94 -58.5t-113 -22.5zM308 442q-135 0 -161 -122h294v7
q-3 33 -22 59t-48 41t-63 15zM317 -206q-33 0 -51 17t-18 48q0 29 18.5 47t50.5 18q33 0 51 -17t18 -48q0 -29 -18.5 -47t-50.5 -18z" />
    <glyph glyph-name="uni1EBA" unicode="&#x1eba;" horiz-adv-x="614" 
d="M98 0v700h441v-104h-333v-185h278v-104h-278v-203h333v-104h-441zM304 758q-15 20 -15 38q0 9 5.5 20t21.5 22q30 20 30 30q0 9 -8.5 13t-21.5 4q-35 0 -71 -18l-16 63q21 12 45 18t44 6q53 0 79.5 -22.5t26.5 -54.5q0 -25 -11.5 -39.5t-25.5 -21.5q-18 -9 -26.5 -15.5
t-8.5 -16.5q0 -7 3 -13z" />
    <glyph glyph-name="uni1EBB" unicode="&#x1ebb;" horiz-adv-x="586" 
d="M317 -10q-81 0 -143.5 34.5t-98 94.5t-35.5 138q0 83 34.5 145.5t95 98t138.5 36.5q68 -1 122.5 -34t86 -90t29.5 -131l-1 -44h-402q9 -71 58.5 -112.5t125.5 -41.5q39 0 72.5 13t72.5 47l52 -73q-37 -36 -94 -58.5t-113 -22.5zM308 442q-135 0 -161 -122h294v7
q-3 33 -22 59t-48 41t-63 15zM285 593q-15 20 -15 38q0 9 5.5 20t21.5 22q30 20 30 30q0 9 -8.5 13t-21.5 4q-35 0 -71 -18l-16 63q21 12 45 18t44 6q53 0 79.5 -22.5t26.5 -54.5q0 -25 -11.5 -39.5t-25.5 -21.5q-18 -9 -26.5 -15.5t-8.5 -16.5q0 -7 3 -13z" />
    <glyph glyph-name="uni1EBC" unicode="&#x1ebc;" horiz-adv-x="614" 
d="M98 0v700h441v-104h-333v-185h278v-104h-278v-203h333v-104h-441zM401 768q-23 0 -46.5 7.5t-44.5 15.5q-17 7 -29 11t-22 4q-30 0 -30 -38h-77q0 54 35 83.5t79 29.5q21 0 41 -7t39 -15q14 -6 27.5 -10t22.5 -4q31 0 29 36h76q0 -44 -26.5 -78.5t-73.5 -34.5z" />
    <glyph glyph-name="uni1EBD" unicode="&#x1ebd;" horiz-adv-x="586" 
d="M317 -10q-81 0 -143.5 34.5t-98 94.5t-35.5 138q0 83 34.5 145.5t95 98t138.5 36.5q68 -1 122.5 -34t86 -90t29.5 -131l-1 -44h-402q9 -71 58.5 -112.5t125.5 -41.5q39 0 72.5 13t72.5 47l52 -73q-37 -36 -94 -58.5t-113 -22.5zM308 442q-135 0 -161 -122h294v7
q-3 33 -22 59t-48 41t-63 15zM359 615q-20 0 -33.5 8t-28.5 20q-19 17 -28.5 23.5t-17.5 6.5q-29 0 -37 -58l-68 10q2 49 31.5 85t78.5 36q20 0 33.5 -8t28.5 -20q20 -16 29 -23t17 -7q29 0 37 58l68 -10q-2 -49 -31.5 -85t-78.5 -36z" />
    <glyph glyph-name="uni1EBE" unicode="&#x1ebe;" horiz-adv-x="614" 
d="M98 0v700h441v-104h-333v-185h278v-104h-278v-203h333v-104h-441zM489 864l-52 36l82 146l87 -62zM203 755l-33 36l120 98h73l120 -98l-33 -36l-123 56z" />
    <glyph glyph-name="uni1EBF" unicode="&#x1ebf;" horiz-adv-x="586" 
d="M317 -10q-81 0 -143.5 34.5t-98 94.5t-35.5 138q0 83 34.5 145.5t95 98t138.5 36.5q68 -1 122.5 -34t86 -90t29.5 -131l-1 -44h-402q9 -71 58.5 -112.5t125.5 -41.5q39 0 72.5 13t72.5 47l52 -73q-37 -36 -94 -58.5t-113 -22.5zM308 442q-135 0 -161 -122h294v7
q-3 33 -22 59t-48 41t-63 15zM475 745l-52 36l82 146l87 -62zM188 607l-38 33l115 113h86l115 -113l-38 -33l-120 65z" />
    <glyph glyph-name="uni1EC0" unicode="&#x1ec0;" horiz-adv-x="614" 
d="M98 0v700h441v-104h-333v-185h278v-104h-278v-203h333v-104h-441zM492 865l-121 121l86 63l83 -146zM203 755l-33 36l120 98h73l120 -98l-33 -36l-123 56z" />
    <glyph glyph-name="uni1EC1" unicode="&#x1ec1;" horiz-adv-x="586" 
d="M317 -10q-81 0 -143.5 34.5t-98 94.5t-35.5 138q0 83 34.5 145.5t95 98t138.5 36.5q68 -1 122.5 -34t86 -90t29.5 -131l-1 -44h-402q9 -71 58.5 -112.5t125.5 -41.5q39 0 72.5 13t72.5 47l52 -73q-37 -36 -94 -58.5t-113 -22.5zM308 442q-135 0 -161 -122h294v7
q-3 33 -22 59t-48 41t-63 15zM461 743l-121 121l86 63l83 -146zM188 607l-38 33l115 113h86l115 -113l-38 -33l-120 65z" />
    <glyph glyph-name="uni1EC2" unicode="&#x1ec2;" horiz-adv-x="614" 
d="M98 0v700h441v-104h-333v-185h278v-104h-278v-203h333v-104h-441zM461 863q-6 8 -10.5 17t-4.5 18t4.5 18t22.5 21q30 20 30 26q0 9 -8.5 13t-21.5 4q-35 0 -71 -18l-16 63q21 12 45 18t44 6q53 0 79.5 -22.5t26.5 -54.5q0 -21 -12.5 -33.5t-24.5 -20.5q-35 -21 -35 -31
q0 -5 3 -11zM203 755l-33 36l120 98h73l120 -98l-33 -36l-123 56z" />
    <glyph glyph-name="uni1EC3" unicode="&#x1ec3;" horiz-adv-x="586" 
d="M317 -10q-81 0 -143.5 34.5t-98 94.5t-35.5 138q0 83 34.5 145.5t95 98t138.5 36.5q68 -1 122.5 -34t86 -90t29.5 -131l-1 -44h-402q9 -71 58.5 -112.5t125.5 -41.5q39 0 72.5 13t72.5 47l52 -73q-37 -36 -94 -58.5t-113 -22.5zM308 442q-135 0 -161 -122h294v7
q-3 33 -22 59t-48 41t-63 15zM452 732q-15 20 -15 38q0 9 5.5 20t21.5 22q30 20 30 30q0 9 -8.5 13t-21.5 4q-16 0 -35 -3.5t-36 -14.5l-16 63q21 12 45 18t44 6q53 0 79.5 -22.5t26.5 -54.5q0 -25 -11.5 -39.5t-25.5 -21.5q-18 -9 -26.5 -15.5t-8.5 -16.5q0 -7 3 -13z
M188 607l-38 33l115 113h86l115 -113l-38 -33l-120 65z" />
    <glyph glyph-name="uni1EC4" unicode="&#x1ec4;" horiz-adv-x="614" 
d="M98 0v700h441v-104h-333v-185h278v-104h-278v-203h333v-104h-441zM404 937q-24 0 -44.5 7t-37.5 14q-18 8 -30 13t-22 5q-29 0 -37 -37l-68 10q2 41 30 71.5t68 30.5q21 0 38.5 -7t35.5 -15q13 -6 26.5 -11.5t23.5 -5.5q25 0 33 38l68 -10q-2 -42 -23 -72.5t-61 -30.5z
M203 755l-33 36l120 98h73l120 -98l-33 -36l-123 56z" />
    <glyph glyph-name="uni1EC5" unicode="&#x1ec5;" horiz-adv-x="586" 
d="M317 -10q-81 0 -143.5 34.5t-98 94.5t-35.5 138q0 83 34.5 145.5t95 98t138.5 36.5q68 -1 122.5 -34t86 -90t29.5 -131l-1 -44h-402q9 -71 58.5 -112.5t125.5 -41.5q39 0 72.5 13t72.5 47l52 -73q-37 -36 -94 -58.5t-113 -22.5zM308 442q-135 0 -161 -122h294v7
q-3 33 -22 59t-48 41t-63 15zM383 807q-29 0 -48 9.5t-37 16.5q-12 5 -23 10t-24 5t-23 -10t-14 -27l-68 10q2 42 30 73.5t65 31.5q23 0 41 -9.5t36 -17.5q13 -6 24.5 -10.5t21.5 -4.5q29 0 37 38l68 -10q-2 -42 -24 -73.5t-62 -31.5zM187 607l-38 33l115 113h86l115 -113
l-38 -33l-120 65z" />
    <glyph glyph-name="uni1EC6" unicode="&#x1ec6;" horiz-adv-x="614" 
d="M98 0v700h441v-104h-333v-185h278v-104h-278v-203h333v-104h-441zM307 -206q-33 0 -51 17t-18 48q0 29 18.5 47t50.5 18q33 0 51 -17t18 -48q0 -29 -18.5 -47t-50.5 -18zM203 755l-37 35l124 101h73l124 -101l-37 -35l-123 58z" />
    <glyph glyph-name="uni1EC7" unicode="&#x1ec7;" horiz-adv-x="586" 
d="M317 -10q-81 0 -143.5 34.5t-98 94.5t-35.5 138q0 83 34.5 145.5t95 98t138.5 36.5q68 -1 122.5 -34t86 -90t29.5 -131l-1 -44h-402q9 -71 58.5 -112.5t125.5 -41.5q39 0 72.5 13t72.5 47l52 -73q-37 -36 -94 -58.5t-113 -22.5zM308 442q-135 0 -161 -122h294v7
q-3 33 -22 59t-48 41t-63 15zM317 -206q-33 0 -51 17t-18 48q0 29 18.5 47t50.5 18q33 0 51 -17t18 -48q0 -29 -18.5 -47t-50.5 -18zM188 607l-38 33l115 113h86l115 -113l-38 -33l-120 65z" />
    <glyph glyph-name="uni1EC8" unicode="&#x1ec8;" horiz-adv-x="478" 
d="M72 0v100h113v500h-113v100h334v-100h-113v-500h113v-100h-334zM216 758q-15 20 -15 38q0 9 5.5 20t21.5 22q30 20 30 30q0 9 -8.5 13t-21.5 4q-35 0 -71 -18l-16 63q21 12 45 18t44 6q53 0 79.5 -22.5t26.5 -54.5q0 -25 -11.5 -39.5t-25.5 -21.5q-18 -9 -26.5 -15.5
t-8.5 -16.5q0 -7 3 -13z" />
    <glyph glyph-name="uni1EC9" unicode="&#x1ec9;" horiz-adv-x="243" 
d="M72 0v525h103v-525h-103zM99 593q-15 20 -15 38q0 9 5.5 20t21.5 22q30 20 30 30q0 9 -8.5 13t-21.5 4q-35 0 -71 -18l-16 63q21 12 45 18t44 6q53 0 79.5 -22.5t26.5 -54.5q0 -25 -11.5 -39.5t-25.5 -21.5q-18 -9 -26.5 -15.5t-8.5 -16.5q0 -7 3 -13z" />
    <glyph glyph-name="uni1ECA" unicode="&#x1eca;" horiz-adv-x="478" 
d="M72 0v100h113v500h-113v100h334v-100h-113v-500h113v-100h-334zM239 -206q-33 0 -51 17t-18 48q0 29 18.5 47t50.5 18q33 0 51 -17t18 -48q0 -29 -18.5 -47t-50.5 -18z" />
    <glyph glyph-name="uni1ECB" unicode="&#x1ecb;" horiz-adv-x="278" 
d="M141 641q-33 0 -51 17t-18 48q0 29 18.5 47t50.5 18q33 0 51 -17t18 -48q0 -29 -18.5 -47t-50.5 -18zM91 0v525h103v-525h-103zM141 -206q-33 0 -51 17t-18 48q0 29 18.5 47t50.5 18q33 0 51 -17t18 -48q0 -29 -18.5 -47t-50.5 -18z" />
    <glyph glyph-name="uni1ECC" unicode="&#x1ecc;" horiz-adv-x="782" 
d="M391 -10q-74 0 -136.5 27t-109 75.5t-72 114t-25.5 143.5t25.5 143.5t72 114t109 75.5t136.5 27t136.5 -27t109 -76t72 -114.5t25.5 -142.5t-25.5 -142.5t-72 -114.5t-109 -76t-136.5 -27zM391 95q67 0 120 33t83 91t30 131t-30 131t-83 91t-120 33q-68 0 -120.5 -33
t-82.5 -90.5t-30 -131.5t30 -131.5t82.5 -90.5t120.5 -33zM391 -206q-33 0 -51 17t-18 48q0 29 18.5 47t50.5 18q33 0 51 -17t18 -48q0 -29 -18.5 -47t-50.5 -18z" />
    <glyph glyph-name="uni1ECD" unicode="&#x1ecd;" horiz-adv-x="615" 
d="M308 -10q-77 0 -137.5 35.5t-95.5 97t-35 140.5t35 140.5t95.5 97t137.5 35.5q76 0 136.5 -35.5t95.5 -97t35 -140.5t-35 -140.5t-95.5 -97t-136.5 -35.5zM308 84q47 0 84 23.5t58 64t20 91.5q1 52 -20 92.5t-58 63.5t-84 23t-84.5 -23.5t-58.5 -64t-20 -91.5
q-1 -51 20 -91.5t58.5 -64t84.5 -23.5zM308 -206q-33 0 -51 17t-18 48q0 29 18.5 47t50.5 18q33 0 51 -17t18 -48q0 -29 -18.5 -47t-50.5 -18z" />
    <glyph glyph-name="uni1ECE" unicode="&#x1ece;" horiz-adv-x="782" 
d="M391 -10q-74 0 -136.5 27t-109 75.5t-72 114t-25.5 143.5t25.5 143.5t72 114t109 75.5t136.5 27t136.5 -27t109 -76t72 -114.5t25.5 -142.5t-25.5 -142.5t-72 -114.5t-109 -76t-136.5 -27zM391 95q67 0 120 33t83 91t30 131t-30 131t-83 91t-120 33q-68 0 -120.5 -33
t-82.5 -90.5t-30 -131.5t30 -131.5t82.5 -90.5t120.5 -33zM368 758q-15 20 -15 38q0 9 5.5 20t21.5 22q30 20 30 30q0 9 -8.5 13t-21.5 4q-35 0 -71 -18l-16 63q21 12 45 18t44 6q53 0 79.5 -22.5t26.5 -54.5q0 -25 -11.5 -39.5t-25.5 -21.5q-18 -9 -26.5 -15.5t-8.5 -16.5
q0 -7 3 -13z" />
    <glyph glyph-name="uni1ECF" unicode="&#x1ecf;" horiz-adv-x="615" 
d="M308 -10q-77 0 -137.5 35.5t-95.5 97t-35 140.5t35 140.5t95.5 97t137.5 35.5q76 0 136.5 -35.5t95.5 -97t35 -140.5t-35 -140.5t-95.5 -97t-136.5 -35.5zM308 84q47 0 84 23.5t58 64t20 91.5q1 52 -20 92.5t-58 63.5t-84 23t-84.5 -23.5t-58.5 -64t-20 -91.5
q-1 -51 20 -91.5t58.5 -64t84.5 -23.5zM285 593q-15 20 -15 38q0 9 5.5 20t21.5 22q30 20 30 30q0 9 -8.5 13t-21.5 4q-35 0 -71 -18l-16 63q21 12 45 18t44 6q53 0 79.5 -22.5t26.5 -54.5q0 -25 -11.5 -39.5t-25.5 -21.5q-18 -9 -26.5 -15.5t-8.5 -16.5q0 -7 3 -13z" />
    <glyph glyph-name="uni1ED0" unicode="&#x1ed0;" horiz-adv-x="782" 
d="M391 -10q-74 0 -136.5 27t-109 75.5t-72 114t-25.5 143.5t25.5 143.5t72 114t109 75.5t136.5 27t136.5 -27t109 -76t72 -114.5t25.5 -142.5t-25.5 -142.5t-72 -114.5t-109 -76t-136.5 -27zM391 95q67 0 120 33t83 91t30 131t-30 131t-83 91t-120 33q-68 0 -120.5 -33
t-82.5 -90.5t-30 -131.5t30 -131.5t82.5 -90.5t120.5 -33zM553 864l-52 36l82 146l87 -62zM267 755l-33 36l120 98h73l120 -98l-33 -36l-123 56z" />
    <glyph glyph-name="uni1ED1" unicode="&#x1ed1;" horiz-adv-x="615" 
d="M308 -10q-77 0 -137.5 35.5t-95.5 97t-35 140.5t35 140.5t95.5 97t137.5 35.5q76 0 136.5 -35.5t95.5 -97t35 -140.5t-35 -140.5t-95.5 -97t-136.5 -35.5zM308 84q47 0 84 23.5t58 64t20 91.5q1 52 -20 92.5t-58 63.5t-84 23t-84.5 -23.5t-58.5 -64t-20 -91.5
q-1 -51 20 -91.5t58.5 -64t84.5 -23.5zM475 745l-52 36l82 146l87 -62zM188 607l-38 33l115 113h86l115 -113l-38 -33l-120 65z" />
    <glyph glyph-name="uni1ED2" unicode="&#x1ed2;" horiz-adv-x="782" 
d="M391 -10q-74 0 -136.5 27t-109 75.5t-72 114t-25.5 143.5t25.5 143.5t72 114t109 75.5t136.5 27t136.5 -27t109 -76t72 -114.5t25.5 -142.5t-25.5 -142.5t-72 -114.5t-109 -76t-136.5 -27zM391 95q67 0 120 33t83 91t30 131t-30 131t-83 91t-120 33q-68 0 -120.5 -33
t-82.5 -90.5t-30 -131.5t30 -131.5t82.5 -90.5t120.5 -33zM556 865l-121 121l86 63l83 -146zM267 755l-33 36l120 98h73l120 -98l-33 -36l-123 56z" />
    <glyph glyph-name="uni1ED3" unicode="&#x1ed3;" horiz-adv-x="615" 
d="M308 -10q-77 0 -137.5 35.5t-95.5 97t-35 140.5t35 140.5t95.5 97t137.5 35.5q76 0 136.5 -35.5t95.5 -97t35 -140.5t-35 -140.5t-95.5 -97t-136.5 -35.5zM308 84q47 0 84 23.5t58 64t20 91.5q1 52 -20 92.5t-58 63.5t-84 23t-84.5 -23.5t-58.5 -64t-20 -91.5
q-1 -51 20 -91.5t58.5 -64t84.5 -23.5zM461 743l-121 121l86 63l83 -146zM188 607l-38 33l115 113h86l115 -113l-38 -33l-120 65z" />
    <glyph glyph-name="uni1ED4" unicode="&#x1ed4;" horiz-adv-x="782" 
d="M391 -10q-74 0 -136.5 27t-109 75.5t-72 114t-25.5 143.5t25.5 143.5t72 114t109 75.5t136.5 27t136.5 -27t109 -76t72 -114.5t25.5 -142.5t-25.5 -142.5t-72 -114.5t-109 -76t-136.5 -27zM391 95q67 0 120 33t83 91t30 131t-30 131t-83 91t-120 33q-68 0 -120.5 -33
t-82.5 -90.5t-30 -131.5t30 -131.5t82.5 -90.5t120.5 -33zM525 863q-6 8 -10.5 17t-4.5 18t4.5 18t22.5 21q30 20 30 26q0 9 -8.5 13t-21.5 4q-35 0 -71 -18l-16 63q21 12 45 18t44 6q53 0 79.5 -22.5t26.5 -54.5q0 -21 -12.5 -33.5t-24.5 -20.5q-35 -21 -35 -31q0 -5 3 -11
zM267 755l-33 36l120 98h73l120 -98l-33 -36l-123 56z" />
    <glyph glyph-name="uni1ED5" unicode="&#x1ed5;" horiz-adv-x="615" 
d="M308 -10q-77 0 -137.5 35.5t-95.5 97t-35 140.5t35 140.5t95.5 97t137.5 35.5q76 0 136.5 -35.5t95.5 -97t35 -140.5t-35 -140.5t-95.5 -97t-136.5 -35.5zM308 84q47 0 84 23.5t58 64t20 91.5q1 52 -20 92.5t-58 63.5t-84 23t-84.5 -23.5t-58.5 -64t-20 -91.5
q-1 -51 20 -91.5t58.5 -64t84.5 -23.5zM452 732q-15 20 -15 38q0 9 5.5 20t21.5 22q30 20 30 30q0 9 -8.5 13t-21.5 4q-16 0 -35 -3.5t-36 -14.5l-16 63q21 12 45 18t44 6q53 0 79.5 -22.5t26.5 -54.5q0 -25 -11.5 -39.5t-25.5 -21.5q-18 -9 -26.5 -15.5t-8.5 -16.5
q0 -7 3 -13zM188 607l-38 33l115 113h86l115 -113l-38 -33l-120 65z" />
    <glyph glyph-name="uni1ED6" unicode="&#x1ed6;" horiz-adv-x="782" 
d="M391 -10q-74 0 -136.5 27t-109 75.5t-72 114t-25.5 143.5t25.5 143.5t72 114t109 75.5t136.5 27t136.5 -27t109 -76t72 -114.5t25.5 -142.5t-25.5 -142.5t-72 -114.5t-109 -76t-136.5 -27zM391 95q67 0 120 33t83 91t30 131t-30 131t-83 91t-120 33q-68 0 -120.5 -33
t-82.5 -90.5t-30 -131.5t30 -131.5t82.5 -90.5t120.5 -33zM468 937q-24 0 -44.5 7t-37.5 14q-18 8 -30 13t-22 5q-29 0 -37 -37l-68 10q2 41 30 71.5t68 30.5q21 0 38.5 -7t35.5 -15q13 -6 26.5 -11.5t23.5 -5.5q25 0 33 38l68 -10q-2 -42 -23 -72.5t-61 -30.5zM267 755
l-33 36l120 98h73l120 -98l-33 -36l-123 56z" />
    <glyph glyph-name="uni1ED7" unicode="&#x1ed7;" horiz-adv-x="615" 
d="M308 -10q-77 0 -137.5 35.5t-95.5 97t-35 140.5t35 140.5t95.5 97t137.5 35.5q76 0 136.5 -35.5t95.5 -97t35 -140.5t-35 -140.5t-95.5 -97t-136.5 -35.5zM308 84q47 0 84 23.5t58 64t20 91.5q1 52 -20 92.5t-58 63.5t-84 23t-84.5 -23.5t-58.5 -64t-20 -91.5
q-1 -51 20 -91.5t58.5 -64t84.5 -23.5zM383 807q-29 0 -48 9.5t-37 16.5q-12 5 -23 10t-24 5t-23 -10t-14 -27l-68 10q2 42 30 73.5t65 31.5q23 0 41 -9.5t36 -17.5q13 -6 24.5 -10.5t21.5 -4.5q29 0 37 38l68 -10q-2 -42 -24 -73.5t-62 -31.5zM187 607l-38 33l115 113h86
l115 -113l-38 -33l-120 65z" />
    <glyph glyph-name="uni1ED8" unicode="&#x1ed8;" horiz-adv-x="782" 
d="M391 -10q-74 0 -136.5 27t-109 75.5t-72 114t-25.5 143.5t25.5 143.5t72 114t109 75.5t136.5 27t136.5 -27t109 -76t72 -114.5t25.5 -142.5t-25.5 -142.5t-72 -114.5t-109 -76t-136.5 -27zM391 95q67 0 120 33t83 91t30 131t-30 131t-83 91t-120 33q-68 0 -120.5 -33
t-82.5 -90.5t-30 -131.5t30 -131.5t82.5 -90.5t120.5 -33zM391 -206q-33 0 -51 17t-18 48q0 29 18.5 47t50.5 18q33 0 51 -17t18 -48q0 -29 -18.5 -47t-50.5 -18zM267 755l-37 35l124 101h73l124 -101l-37 -35l-123 58z" />
    <glyph glyph-name="uni1ED9" unicode="&#x1ed9;" horiz-adv-x="615" 
d="M308 -10q-77 0 -137.5 35.5t-95.5 97t-35 140.5t35 140.5t95.5 97t137.5 35.5q76 0 136.5 -35.5t95.5 -97t35 -140.5t-35 -140.5t-95.5 -97t-136.5 -35.5zM308 84q47 0 84 23.5t58 64t20 91.5q1 52 -20 92.5t-58 63.5t-84 23t-84.5 -23.5t-58.5 -64t-20 -91.5
q-1 -51 20 -91.5t58.5 -64t84.5 -23.5zM308 -206q-33 0 -51 17t-18 48q0 29 18.5 47t50.5 18q33 0 51 -17t18 -48q0 -29 -18.5 -47t-50.5 -18zM188 607l-38 33l115 113h86l115 -113l-38 -33l-120 65z" />
    <glyph glyph-name="uni1EDA" unicode="&#x1eda;" horiz-adv-x="782" 
d="M391 -10q-74 0 -136.5 27t-109 75.5t-72 114t-25.5 143.5t25.5 143.5t72 114t109 75.5t136.5 27q25 0 44.5 -2.5t35.5 -6.5q26 -6 48 -6q89 0 89 119h92q0 -66 -23 -113t-73 -64q60 -49 95 -123t35 -164q0 -77 -25.5 -142.5t-72 -114.5t-109 -76t-136.5 -27zM391 95
q67 0 120 33t83 91t30 131t-30 131t-83 91t-120 33q-68 0 -120.5 -33t-82.5 -90.5t-30 -131.5t30 -131.5t82.5 -90.5t120.5 -33zM323 755l-28 52l183 113l47 -90z" />
    <glyph glyph-name="uni1EDB" unicode="&#x1edb;" horiz-adv-x="615" 
d="M308 -10q-77 0 -137.5 35.5t-95.5 97t-35 140.5t35 140.5t95.5 97t137.5 35.5q22 0 40.5 -3t32.5 -6q9 -2 16.5 -3.5t13.5 -1.5q78 0 78 117h82q0 -60 -20 -104.5t-66 -63.5q42 -37 66 -90t24 -118q0 -79 -35 -140.5t-95.5 -97t-136.5 -35.5zM308 84q47 0 84 23.5t58 64
t20 91.5q1 52 -20 92.5t-58 63.5t-84 23t-84.5 -23.5t-58.5 -64t-20 -91.5q-1 -51 20 -91.5t58.5 -64t84.5 -23.5zM238 606l-34 51l143 125l65 -82z" />
    <glyph glyph-name="uni1EDC" unicode="&#x1edc;" horiz-adv-x="782" 
d="M391 -10q-74 0 -136.5 27t-109 75.5t-72 114t-25.5 143.5t25.5 143.5t72 114t109 75.5t136.5 27q25 0 44.5 -2.5t35.5 -6.5q26 -6 48 -6q89 0 89 119h92q0 -66 -23 -113t-73 -64q60 -49 95 -123t35 -164q0 -77 -25.5 -142.5t-72 -114.5t-109 -76t-136.5 -27zM391 95
q67 0 120 33t83 91t30 131t-30 131t-83 91t-120 33q-68 0 -120.5 -33t-82.5 -90.5t-30 -131.5t30 -131.5t82.5 -90.5t120.5 -33zM467 755l-202 75l49 90l183 -113z" />
    <glyph glyph-name="uni1EDD" unicode="&#x1edd;" horiz-adv-x="615" 
d="M308 -10q-77 0 -137.5 35.5t-95.5 97t-35 140.5t35 140.5t95.5 97t137.5 35.5q22 0 40.5 -3t32.5 -6q9 -2 16.5 -3.5t13.5 -1.5q78 0 78 117h82q0 -60 -20 -104.5t-66 -63.5q42 -37 66 -90t24 -118q0 -79 -35 -140.5t-95.5 -97t-136.5 -35.5zM308 84q47 0 84 23.5t58 64
t20 91.5q1 52 -20 92.5t-58 63.5t-84 23t-84.5 -23.5t-58.5 -64t-20 -91.5q-1 -51 20 -91.5t58.5 -64t84.5 -23.5zM358 606l-174 94l65 82l143 -125z" />
    <glyph glyph-name="uni1EDE" unicode="&#x1ede;" horiz-adv-x="782" 
d="M391 -10q-74 0 -136.5 27t-109 75.5t-72 114t-25.5 143.5t25.5 143.5t72 114t109 75.5t136.5 27q25 0 44.5 -2.5t35.5 -6.5q26 -6 48 -6q89 0 89 119h92q0 -66 -23 -113t-73 -64q60 -49 95 -123t35 -164q0 -77 -25.5 -142.5t-72 -114.5t-109 -76t-136.5 -27zM391 95
q67 0 120 33t83 91t30 131t-30 131t-83 91t-120 33q-68 0 -120.5 -33t-82.5 -90.5t-30 -131.5t30 -131.5t82.5 -90.5t120.5 -33zM368 758q-15 20 -15 38q0 9 5.5 20t21.5 22q30 20 30 30q0 9 -8.5 13t-21.5 4q-35 0 -71 -18l-16 63q21 12 45 18t44 6q53 0 79.5 -22.5
t26.5 -54.5q0 -25 -11.5 -39.5t-25.5 -21.5q-18 -9 -26.5 -15.5t-8.5 -16.5q0 -7 3 -13z" />
    <glyph glyph-name="uni1EDF" unicode="&#x1edf;" horiz-adv-x="615" 
d="M308 -10q-77 0 -137.5 35.5t-95.5 97t-35 140.5t35 140.5t95.5 97t137.5 35.5q22 0 40.5 -3t32.5 -6q9 -2 16.5 -3.5t13.5 -1.5q78 0 78 117h82q0 -60 -20 -104.5t-66 -63.5q42 -37 66 -90t24 -118q0 -79 -35 -140.5t-95.5 -97t-136.5 -35.5zM308 84q47 0 84 23.5t58 64
t20 91.5q1 52 -20 92.5t-58 63.5t-84 23t-84.5 -23.5t-58.5 -64t-20 -91.5q-1 -51 20 -91.5t58.5 -64t84.5 -23.5zM285 593q-15 20 -15 38q0 9 5.5 20t21.5 22q30 20 30 30q0 9 -8.5 13t-21.5 4q-35 0 -71 -18l-16 63q21 12 45 18t44 6q53 0 79.5 -22.5t26.5 -54.5
q0 -25 -11.5 -39.5t-25.5 -21.5q-18 -9 -26.5 -15.5t-8.5 -16.5q0 -7 3 -13z" />
    <glyph glyph-name="uni1EE0" unicode="&#x1ee0;" horiz-adv-x="782" 
d="M391 -10q-74 0 -136.5 27t-109 75.5t-72 114t-25.5 143.5t25.5 143.5t72 114t109 75.5t136.5 27q25 0 44.5 -2.5t35.5 -6.5q26 -6 48 -6q89 0 89 119h92q0 -66 -23 -113t-73 -64q60 -49 95 -123t35 -164q0 -77 -25.5 -142.5t-72 -114.5t-109 -76t-136.5 -27zM391 95
q67 0 120 33t83 91t30 131t-30 131t-83 91t-120 33q-68 0 -120.5 -33t-82.5 -90.5t-30 -131.5t30 -131.5t82.5 -90.5t120.5 -33zM465 768q-23 0 -46.5 7.5t-44.5 15.5q-17 7 -29 11t-22 4q-30 0 -30 -38h-77q0 54 35 83.5t79 29.5q21 0 41 -7t39 -15q14 -6 27.5 -10t22.5 -4
q31 0 29 36h76q0 -44 -26.5 -78.5t-73.5 -34.5z" />
    <glyph glyph-name="uni1EE1" unicode="&#x1ee1;" horiz-adv-x="615" 
d="M308 -10q-77 0 -137.5 35.5t-95.5 97t-35 140.5t35 140.5t95.5 97t137.5 35.5q22 0 40.5 -3t32.5 -6q9 -2 16.5 -3.5t13.5 -1.5q78 0 78 117h82q0 -60 -20 -104.5t-66 -63.5q42 -37 66 -90t24 -118q0 -79 -35 -140.5t-95.5 -97t-136.5 -35.5zM308 84q47 0 84 23.5t58 64
t20 91.5q1 52 -20 92.5t-58 63.5t-84 23t-84.5 -23.5t-58.5 -64t-20 -91.5q-1 -51 20 -91.5t58.5 -64t84.5 -23.5zM359 615q-20 0 -33.5 8t-28.5 20q-19 17 -28.5 23.5t-17.5 6.5q-29 0 -37 -58l-68 10q2 49 31.5 85t78.5 36q20 0 33.5 -8t28.5 -20q20 -16 29 -23t17 -7
q29 0 37 58l68 -10q-2 -49 -31.5 -85t-78.5 -36z" />
    <glyph glyph-name="uni1EE2" unicode="&#x1ee2;" horiz-adv-x="782" 
d="M391 -10q-74 0 -136.5 27t-109 75.5t-72 114t-25.5 143.5t25.5 143.5t72 114t109 75.5t136.5 27q25 0 44.5 -2.5t35.5 -6.5q26 -6 48 -6q89 0 89 119h92q0 -66 -23 -113t-73 -64q60 -49 95 -123t35 -164q0 -77 -25.5 -142.5t-72 -114.5t-109 -76t-136.5 -27zM391 95
q67 0 120 33t83 91t30 131t-30 131t-83 91t-120 33q-68 0 -120.5 -33t-82.5 -90.5t-30 -131.5t30 -131.5t82.5 -90.5t120.5 -33zM391 -206q-33 0 -51 17t-18 48q0 29 18.5 47t50.5 18q33 0 51 -17t18 -48q0 -29 -18.5 -47t-50.5 -18z" />
    <glyph glyph-name="uni1EE3" unicode="&#x1ee3;" horiz-adv-x="615" 
d="M308 -10q-77 0 -137.5 35.5t-95.5 97t-35 140.5t35 140.5t95.5 97t137.5 35.5q22 0 40.5 -3t32.5 -6q9 -2 16.5 -3.5t13.5 -1.5q78 0 78 117h82q0 -60 -20 -104.5t-66 -63.5q42 -37 66 -90t24 -118q0 -79 -35 -140.5t-95.5 -97t-136.5 -35.5zM308 84q47 0 84 23.5t58 64
t20 91.5q1 52 -20 92.5t-58 63.5t-84 23t-84.5 -23.5t-58.5 -64t-20 -91.5q-1 -51 20 -91.5t58.5 -64t84.5 -23.5zM308 -206q-33 0 -51 17t-18 48q0 29 18.5 47t50.5 18q33 0 51 -17t18 -48q0 -29 -18.5 -47t-50.5 -18z" />
    <glyph glyph-name="uni1EE4" unicode="&#x1ee4;" horiz-adv-x="740" 
d="M370 -6q-81 0 -145 35.5t-100.5 98t-36.5 141.5v432h108v-423q0 -51 24 -91.5t63.5 -64.5t86.5 -24q50 0 90.5 24t64.5 64.5t24 91.5v423h103v-432q0 -79 -36.5 -141.5t-100.5 -98t-145 -35.5zM370 -206q-33 0 -51 17t-18 48q0 29 18.5 47t50.5 18q33 0 51 -17t18 -48
q0 -29 -18.5 -47t-50.5 -18z" />
    <glyph glyph-name="uni1EE5" unicode="&#x1ee5;" horiz-adv-x="605" 
d="M256 -10q-84 0 -134 57t-50 154v324h103v-296q0 -69 32.5 -109t90.5 -40q57 0 94.5 36t37.5 93v316h103v-525h-103v84q-26 -42 -72.5 -68t-101.5 -26zM303 -206q-33 0 -51 17t-18 48q0 29 18.5 47t50.5 18q33 0 51 -17t18 -48q0 -29 -18.5 -47t-50.5 -18z" />
    <glyph glyph-name="uni1EE6" unicode="&#x1ee6;" horiz-adv-x="740" 
d="M370 -6q-81 0 -145 35.5t-100.5 98t-36.5 141.5v432h108v-423q0 -51 24 -91.5t63.5 -64.5t86.5 -24q50 0 90.5 24t64.5 64.5t24 91.5v423h103v-432q0 -79 -36.5 -141.5t-100.5 -98t-145 -35.5zM347 758q-15 20 -15 38q0 9 5.5 20t21.5 22q30 20 30 30q0 9 -8.5 13
t-21.5 4q-35 0 -71 -18l-16 63q21 12 45 18t44 6q53 0 79.5 -22.5t26.5 -54.5q0 -25 -11.5 -39.5t-25.5 -21.5q-18 -9 -26.5 -15.5t-8.5 -16.5q0 -7 3 -13z" />
    <glyph glyph-name="uni1EE7" unicode="&#x1ee7;" horiz-adv-x="605" 
d="M256 -10q-84 0 -134 57t-50 154v324h103v-296q0 -69 32.5 -109t90.5 -40q57 0 94.5 36t37.5 93v316h103v-525h-103v84q-26 -42 -72.5 -68t-101.5 -26zM280 593q-15 20 -15 38q0 9 5.5 20t21.5 22q30 20 30 30q0 9 -8.5 13t-21.5 4q-35 0 -71 -18l-16 63q21 12 45 18t44 6
q53 0 79.5 -22.5t26.5 -54.5q0 -25 -11.5 -39.5t-25.5 -21.5q-18 -9 -26.5 -15.5t-8.5 -16.5q0 -7 3 -13z" />
    <glyph glyph-name="uni1EE8" unicode="&#x1ee8;" horiz-adv-x="740" 
d="M370 -6q-81 0 -145 35.5t-100.5 98t-36.5 141.5v432h108v-423q0 -51 24 -91.5t63.5 -64.5t86.5 -24q50 0 90.5 24t64.5 64.5t24 91.5v423h38q47 0 66.5 30.5t19.5 82.5h92q0 -71 -29 -119t-84 -67v-359q0 -79 -36.5 -141.5t-100.5 -98t-145 -35.5zM302 755l-28 52
l183 113l47 -90z" />
    <glyph glyph-name="uni1EE9" unicode="&#x1ee9;" horiz-adv-x="605" 
d="M256 -10q-84 0 -134 57t-50 154v324h103v-296q0 -69 32.5 -109t90.5 -40q57 0 94.5 36t37.5 93v316q98 0 98 114h82q0 -51 -18 -92.5t-59 -64.5v-482h-103v84q-26 -41 -72.5 -67.5t-101.5 -26.5zM233 606l-34 51l143 125l65 -82z" />
    <glyph glyph-name="uni1EEA" unicode="&#x1eea;" horiz-adv-x="740" 
d="M370 -6q-81 0 -145 35.5t-100.5 98t-36.5 141.5v432h108v-423q0 -51 24 -91.5t63.5 -64.5t86.5 -24q50 0 90.5 24t64.5 64.5t24 91.5v423h38q47 0 66.5 30.5t19.5 82.5h92q0 -71 -29 -119t-84 -67v-359q0 -79 -36.5 -141.5t-100.5 -98t-145 -35.5zM446 755l-202 75l49 90
l183 -113z" />
    <glyph glyph-name="uni1EEB" unicode="&#x1eeb;" horiz-adv-x="605" 
d="M256 -10q-84 0 -134 57t-50 154v324h103v-296q0 -69 32.5 -109t90.5 -40q57 0 94.5 36t37.5 93v316q98 0 98 114h82q0 -51 -18 -92.5t-59 -64.5v-482h-103v84q-26 -41 -72.5 -67.5t-101.5 -26.5zM353 606l-174 94l65 82l143 -125z" />
    <glyph glyph-name="uni1EEC" unicode="&#x1eec;" horiz-adv-x="740" 
d="M370 -6q-81 0 -145 35.5t-100.5 98t-36.5 141.5v432h108v-423q0 -51 24 -91.5t63.5 -64.5t86.5 -24q50 0 90.5 24t64.5 64.5t24 91.5v423h38q47 0 66.5 30.5t19.5 82.5h92q0 -71 -29 -119t-84 -67v-359q0 -79 -36.5 -141.5t-100.5 -98t-145 -35.5zM347 758q-15 20 -15 38
q0 9 5.5 20t21.5 22q30 20 30 30q0 9 -8.5 13t-21.5 4q-35 0 -71 -18l-16 63q21 12 45 18t44 6q53 0 79.5 -22.5t26.5 -54.5q0 -25 -11.5 -39.5t-25.5 -21.5q-18 -9 -26.5 -15.5t-8.5 -16.5q0 -7 3 -13z" />
    <glyph glyph-name="uni1EED" unicode="&#x1eed;" horiz-adv-x="605" 
d="M256 -10q-84 0 -134 57t-50 154v324h103v-296q0 -69 32.5 -109t90.5 -40q57 0 94.5 36t37.5 93v316q98 0 98 114h82q0 -51 -18 -92.5t-59 -64.5v-482h-103v84q-26 -41 -72.5 -67.5t-101.5 -26.5zM280 593q-15 20 -15 38q0 9 5.5 20t21.5 22q30 20 30 30q0 9 -8.5 13
t-21.5 4q-35 0 -71 -18l-16 63q21 12 45 18t44 6q53 0 79.5 -22.5t26.5 -54.5q0 -25 -11.5 -39.5t-25.5 -21.5q-18 -9 -26.5 -15.5t-8.5 -16.5q0 -7 3 -13z" />
    <glyph glyph-name="uni1EEE" unicode="&#x1eee;" horiz-adv-x="740" 
d="M370 -6q-81 0 -145 35.5t-100.5 98t-36.5 141.5v432h108v-423q0 -51 24 -91.5t63.5 -64.5t86.5 -24q50 0 90.5 24t64.5 64.5t24 91.5v423h38q47 0 66.5 30.5t19.5 82.5h92q0 -71 -29 -119t-84 -67v-359q0 -79 -36.5 -141.5t-100.5 -98t-145 -35.5zM444 768
q-23 0 -46.5 7.5t-44.5 15.5q-17 7 -29 11t-22 4q-30 0 -30 -38h-77q0 54 35 83.5t79 29.5q21 0 41 -7t39 -15q14 -6 27.5 -10t22.5 -4q31 0 29 36h76q0 -44 -26.5 -78.5t-73.5 -34.5z" />
    <glyph glyph-name="uni1EEF" unicode="&#x1eef;" horiz-adv-x="605" 
d="M256 -10q-84 0 -134 57t-50 154v324h103v-296q0 -69 32.5 -109t90.5 -40q57 0 94.5 36t37.5 93v316q98 0 98 114h82q0 -51 -18 -92.5t-59 -64.5v-482h-103v84q-26 -41 -72.5 -67.5t-101.5 -26.5zM354 615q-20 0 -33.5 8t-28.5 20q-19 17 -28.5 23.5t-17.5 6.5
q-29 0 -37 -58l-68 10q2 49 31.5 85t78.5 36q20 0 33.5 -8t28.5 -20q20 -16 29 -23t17 -7q29 0 37 58l68 -10q-2 -49 -31.5 -85t-78.5 -36z" />
    <glyph glyph-name="uni1EF0" unicode="&#x1ef0;" horiz-adv-x="740" 
d="M370 -6q-81 0 -145 35.5t-100.5 98t-36.5 141.5v432h108v-423q0 -51 24 -91.5t63.5 -64.5t86.5 -24q50 0 90.5 24t64.5 64.5t24 91.5v423h38q47 0 66.5 30.5t19.5 82.5h92q0 -71 -29 -119t-84 -67v-359q0 -79 -36.5 -141.5t-100.5 -98t-145 -35.5zM370 -206q-33 0 -51 17
t-18 48q0 29 18.5 47t50.5 18q33 0 51 -17t18 -48q0 -29 -18.5 -47t-50.5 -18z" />
    <glyph glyph-name="uni1EF1" unicode="&#x1ef1;" horiz-adv-x="605" 
d="M256 -10q-84 0 -134 57t-50 154v324h103v-296q0 -69 32.5 -109t90.5 -40q57 0 94.5 36t37.5 93v316q98 0 98 114h82q0 -51 -18 -92.5t-59 -64.5v-482h-103v84q-26 -41 -72.5 -67.5t-101.5 -26.5zM303 -206q-33 0 -51 17t-18 48q0 29 18.5 47t50.5 18q33 0 51 -17t18 -48
q0 -29 -18.5 -47t-50.5 -18z" />
    <glyph glyph-name="Ygrave" unicode="&#x1ef2;" horiz-adv-x="660" 
d="M286 0v310l-276 390h130l202 -290l184 290h124l-256 -388v-312h-108zM406 755l-202 75l49 90l183 -113z" />
    <glyph glyph-name="ygrave" unicode="&#x1ef3;" horiz-adv-x="581" 
d="M160 -230l89 205l-244 550h120l164 -386q5 -11 13 -35l15 42l137 379h122l-216 -525l-89 -230h-111zM341 606l-174 94l65 82l143 -125z" />
    <glyph glyph-name="uni1EF4" unicode="&#x1ef4;" horiz-adv-x="660" 
d="M286 0v310l-276 390h130l202 -290l184 290h124l-256 -388v-312h-108zM330 -206q-33 0 -51 17t-18 48q0 29 18.5 47t50.5 18q33 0 51 -17t18 -48q0 -29 -18.5 -47t-50.5 -18z" />
    </font>
</defs>
</svg>
